999
FreeCAD v0.19 24291 (Git)
  0
SECTION
  2
HEADER
  9
$ACADVER
  1
AC1014
  9
$ACADMAINTVER
 70
     9
  9
$DWGCODEPAGE
  3
ANSI_1252
  9
$TEXTSTYLE
  7
STANDARD
  9
$DIMSTYLE
  2
STANDARD
  9
$DIMTXSTY
  7
STANDARD
  9
$CMLSTYLE
  2
STANDARD
  9
$PEXTMAX
 10
50
 20
50
 30
50
  9
$PEXTMIN
 10
0
 20
0
 30
0
  9
$HANDSEED
  5
FFFF
  0
ENDSEC
  0
SECTION
  2
CLASSES
  0
CLASS
  1
ACDBDICTIONARYWDFLT
  2
AcDbDictionaryWithDefault
  3
ObjectDBX Classes
 90
        0
280
     0
281
     0
  0
CLASS
  1
XRECORD
  2
AcDbXrecord
  3
ObjectDBX Classes
 90
        0
280
     0
281
     0
  0
CLASS
  1
LWPOLYLINE
  2
AcDbPolyline
  3
ObjectDBX Classes
 90
        0
280
     0
281
     1
  0
ENDSEC
  0
SECTION
  2
TABLES
  0
TABLE
  2
VPORT
  5
20
330
0
100
AcDbSymbolTable
 70
     1
  0
VPORT
  5
21
330
20
100
AcDbSymbolTableRecord
100
AcDbViewportTableRecord
  2
*ACTIVE
 70
     0
  0
ENDTAB
  0
TABLE
  2
LTYPE
  5
22
330
0
100
AcDbSymbolTable
 70
     1
  0
LTYPE
  5
23
330
21
100
AcDbSymbolTableRecord
100
AcDbLinetypeTableRecord
  2
BYBLOCK
 70
     0
  3

 72
    65
 73
     0
 40
0.0
  0
LTYPE
  5
24
330
21
100
AcDbSymbolTableRecord
100
AcDbLinetypeTableRecord
  2
BYLAYER
 70
     0
  3

 72
    65
 73
     0
 40
0.0
  0
LTYPE
  5
25
330
21
100
AcDbSymbolTableRecord
100
AcDbLinetypeTableRecord
  2
CONTINUOUS
 70
     0
  3
Solid line
 72
    65
 73
     0
 40
0.0
  0
ENDTAB
  0
TABLE
  2
LAYER
  5
C9B
330
0
100
AcDbSymbolTable
 70
661
  0
LAYER
  5
C9C
330
C9B
100
AcDbSymbolTableRecord
100
AcDbLayerTableRecord
  2
0
 70
   0
 62
   7
  6
CONTINUOUS
  0
LAYER
  5
C9D
330
C9B
100
AcDbSymbolTableRecord
100
AcDbLayerTableRecord
  2
none
 70
    0
 62
    7
  6
CONTINUOUS
  0
LAYER
  5
C9E
330
C9B
100
AcDbSymbolTableRecord
100
AcDbLayerTableRecord
  2
Circle
 70
    0
 62
    7
  6
CONTINUOUS
  0
LAYER
  5
C9F
330
C9B
100
AcDbSymbolTableRecord
100
AcDbLayerTableRecord
  2
Circle001
 70
    0
 62
    7
  6
CONTINUOUS
  0
LAYER
  5
CA0
330
C9B
100
AcDbSymbolTableRecord
100
AcDbLayerTableRecord
  2
Circle002
 70
    0
 62
    7
  6
CONTINUOUS
  0
LAYER
  5
CA1
330
C9B
100
AcDbSymbolTableRecord
100
AcDbLayerTableRecord
  2
Circle003
 70
    0
 62
    7
  6
CONTINUOUS
  0
LAYER
  5
CA2
330
C9B
100
AcDbSymbolTableRecord
100
AcDbLayerTableRecord
  2
Circle004
 70
    0
 62
    7
  6
CONTINUOUS
  0
LAYER
  5
CA3
330
C9B
100
AcDbSymbolTableRecord
100
AcDbLayerTableRecord
  2
Circle005
 70
    0
 62
    7
  6
CONTINUOUS
  0
LAYER
  5
CA4
330
C9B
100
AcDbSymbolTableRecord
100
AcDbLayerTableRecord
  2
Circle006
 70
    0
 62
    7
  6
CONTINUOUS
  0
LAYER
  5
CA5
330
C9B
100
AcDbSymbolTableRecord
100
AcDbLayerTableRecord
  2
Circle007
 70
    0
 62
    7
  6
CONTINUOUS
  0
LAYER
  5
CA6
330
C9B
100
AcDbSymbolTableRecord
100
AcDbLayerTableRecord
  2
Arc
 70
    0
 62
    7
  6
CONTINUOUS
  0
LAYER
  5
CA7
330
C9B
100
AcDbSymbolTableRecord
100
AcDbLayerTableRecord
  2
Line
 70
    0
 62
    7
  6
CONTINUOUS
  0
LAYER
  5
CA8
330
C9B
100
AcDbSymbolTableRecord
100
AcDbLayerTableRecord
  2
Line001
 70
    0
 62
    7
  6
CONTINUOUS
  0
LAYER
  5
CA9
330
C9B
100
AcDbSymbolTableRecord
100
AcDbLayerTableRecord
  2
Arc001
 70
    0
 62
    7
  6
CONTINUOUS
  0
LAYER
  5
CAA
330
C9B
100
AcDbSymbolTableRecord
100
AcDbLayerTableRecord
  2
Line002
 70
    0
 62
    7
  6
CONTINUOUS
  0
LAYER
  5
CAB
330
C9B
100
AcDbSymbolTableRecord
100
AcDbLayerTableRecord
  2
Arc002
 70
    0
 62
    7
  6
CONTINUOUS
  0
LAYER
  5
CAC
330
C9B
100
AcDbSymbolTableRecord
100
AcDbLayerTableRecord
  2
Line003
 70
    0
 62
    7
  6
CONTINUOUS
  0
LAYER
  5
CAD
330
C9B
100
AcDbSymbolTableRecord
100
AcDbLayerTableRecord
  2
Line004
 70
    0
 62
    7
  6
CONTINUOUS
  0
LAYER
  5
CAE
330
C9B
100
AcDbSymbolTableRecord
100
AcDbLayerTableRecord
  2
Arc003
 70
    0
 62
    7
  6
CONTINUOUS
  0
LAYER
  5
CAF
330
C9B
100
AcDbSymbolTableRecord
100
AcDbLayerTableRecord
  2
Line005
 70
    0
 62
    7
  6
CONTINUOUS
  0
LAYER
  5
CB0
330
C9B
100
AcDbSymbolTableRecord
100
AcDbLayerTableRecord
  2
Arc004
 70
    0
 62
    7
  6
CONTINUOUS
  0
LAYER
  5
CB1
330
C9B
100
AcDbSymbolTableRecord
100
AcDbLayerTableRecord
  2
Line006
 70
    0
 62
    7
  6
CONTINUOUS
  0
LAYER
  5
CB2
330
C9B
100
AcDbSymbolTableRecord
100
AcDbLayerTableRecord
  2
Arc005
 70
    0
 62
    7
  6
CONTINUOUS
  0
LAYER
  5
CB3
330
C9B
100
AcDbSymbolTableRecord
100
AcDbLayerTableRecord
  2
Line007
 70
    0
 62
    7
  6
CONTINUOUS
  0
LAYER
  5
CB4
330
C9B
100
AcDbSymbolTableRecord
100
AcDbLayerTableRecord
  2
Arc006
 70
    0
 62
    7
  6
CONTINUOUS
  0
LAYER
  5
CB5
330
C9B
100
AcDbSymbolTableRecord
100
AcDbLayerTableRecord
  2
Line008
 70
    0
 62
    7
  6
CONTINUOUS
  0
LAYER
  5
CB6
330
C9B
100
AcDbSymbolTableRecord
100
AcDbLayerTableRecord
  2
Arc007
 70
    0
 62
    7
  6
CONTINUOUS
  0
LAYER
  5
CB7
330
C9B
100
AcDbSymbolTableRecord
100
AcDbLayerTableRecord
  2
Line009
 70
    0
 62
    7
  6
CONTINUOUS
  0
LAYER
  5
CB8
330
C9B
100
AcDbSymbolTableRecord
100
AcDbLayerTableRecord
  2
Arc008
 70
    0
 62
    7
  6
CONTINUOUS
  0
LAYER
  5
CB9
330
C9B
100
AcDbSymbolTableRecord
100
AcDbLayerTableRecord
  2
Line010
 70
    0
 62
    7
  6
CONTINUOUS
  0
LAYER
  5
CBA
330
C9B
100
AcDbSymbolTableRecord
100
AcDbLayerTableRecord
  2
Arc009
 70
    0
 62
    7
  6
CONTINUOUS
  0
LAYER
  5
CBB
330
C9B
100
AcDbSymbolTableRecord
100
AcDbLayerTableRecord
  2
Line011
 70
    0
 62
    7
  6
CONTINUOUS
  0
LAYER
  5
CBC
330
C9B
100
AcDbSymbolTableRecord
100
AcDbLayerTableRecord
  2
Arc010
 70
    0
 62
    7
  6
CONTINUOUS
  0
LAYER
  5
CBD
330
C9B
100
AcDbSymbolTableRecord
100
AcDbLayerTableRecord
  2
Line012
 70
    0
 62
    7
  6
CONTINUOUS
  0
LAYER
  5
CBE
330
C9B
100
AcDbSymbolTableRecord
100
AcDbLayerTableRecord
  2
Line013
 70
    0
 62
    7
  6
CONTINUOUS
  0
LAYER
  5
CBF
330
C9B
100
AcDbSymbolTableRecord
100
AcDbLayerTableRecord
  2
Arc011
 70
    0
 62
    7
  6
CONTINUOUS
  0
LAYER
  5
CC0
330
C9B
100
AcDbSymbolTableRecord
100
AcDbLayerTableRecord
  2
Line014
 70
    0
 62
    7
  6
CONTINUOUS
  0
LAYER
  5
CC1
330
C9B
100
AcDbSymbolTableRecord
100
AcDbLayerTableRecord
  2
Arc012
 70
    0
 62
    7
  6
CONTINUOUS
  0
LAYER
  5
CC2
330
C9B
100
AcDbSymbolTableRecord
100
AcDbLayerTableRecord
  2
Arc013
 70
    0
 62
    7
  6
CONTINUOUS
  0
LAYER
  5
CC3
330
C9B
100
AcDbSymbolTableRecord
100
AcDbLayerTableRecord
  2
Line015
 70
    0
 62
    7
  6
CONTINUOUS
  0
LAYER
  5
CC4
330
C9B
100
AcDbSymbolTableRecord
100
AcDbLayerTableRecord
  2
Arc014
 70
    0
 62
    7
  6
CONTINUOUS
  0
LAYER
  5
CC5
330
C9B
100
AcDbSymbolTableRecord
100
AcDbLayerTableRecord
  2
Line016
 70
    0
 62
    7
  6
CONTINUOUS
  0
LAYER
  5
CC6
330
C9B
100
AcDbSymbolTableRecord
100
AcDbLayerTableRecord
  2
Arc015
 70
    0
 62
    7
  6
CONTINUOUS
  0
LAYER
  5
CC7
330
C9B
100
AcDbSymbolTableRecord
100
AcDbLayerTableRecord
  2
Arc016
 70
    0
 62
    7
  6
CONTINUOUS
  0
LAYER
  5
CC8
330
C9B
100
AcDbSymbolTableRecord
100
AcDbLayerTableRecord
  2
Arc017
 70
    0
 62
    7
  6
CONTINUOUS
  0
LAYER
  5
CC9
330
C9B
100
AcDbSymbolTableRecord
100
AcDbLayerTableRecord
  2
Line017
 70
    0
 62
    7
  6
CONTINUOUS
  0
LAYER
  5
CCA
330
C9B
100
AcDbSymbolTableRecord
100
AcDbLayerTableRecord
  2
Line018
 70
    0
 62
    7
  6
CONTINUOUS
  0
LAYER
  5
CCB
330
C9B
100
AcDbSymbolTableRecord
100
AcDbLayerTableRecord
  2
Arc018
 70
    0
 62
    7
  6
CONTINUOUS
  0
LAYER
  5
CCC
330
C9B
100
AcDbSymbolTableRecord
100
AcDbLayerTableRecord
  2
Line019
 70
    0
 62
    7
  6
CONTINUOUS
  0
LAYER
  5
CCD
330
C9B
100
AcDbSymbolTableRecord
100
AcDbLayerTableRecord
  2
Line020
 70
    0
 62
    7
  6
CONTINUOUS
  0
LAYER
  5
CCE
330
C9B
100
AcDbSymbolTableRecord
100
AcDbLayerTableRecord
  2
Arc019
 70
    0
 62
    7
  6
CONTINUOUS
  0
LAYER
  5
CCF
330
C9B
100
AcDbSymbolTableRecord
100
AcDbLayerTableRecord
  2
Line021
 70
    0
 62
    7
  6
CONTINUOUS
  0
LAYER
  5
CD0
330
C9B
100
AcDbSymbolTableRecord
100
AcDbLayerTableRecord
  2
Arc020
 70
    0
 62
    7
  6
CONTINUOUS
  0
LAYER
  5
CD1
330
C9B
100
AcDbSymbolTableRecord
100
AcDbLayerTableRecord
  2
Arc021
 70
    0
 62
    7
  6
CONTINUOUS
  0
LAYER
  5
CD2
330
C9B
100
AcDbSymbolTableRecord
100
AcDbLayerTableRecord
  2
Arc022
 70
    0
 62
    7
  6
CONTINUOUS
  0
LAYER
  5
CD3
330
C9B
100
AcDbSymbolTableRecord
100
AcDbLayerTableRecord
  2
Arc023
 70
    0
 62
    7
  6
CONTINUOUS
  0
LAYER
  5
CD4
330
C9B
100
AcDbSymbolTableRecord
100
AcDbLayerTableRecord
  2
Line026
 70
    0
 62
    7
  6
CONTINUOUS
  0
LAYER
  5
CD5
330
C9B
100
AcDbSymbolTableRecord
100
AcDbLayerTableRecord
  2
Line027
 70
    0
 62
    7
  6
CONTINUOUS
  0
LAYER
  5
CD6
330
C9B
100
AcDbSymbolTableRecord
100
AcDbLayerTableRecord
  2
Line028
 70
    0
 62
    7
  6
CONTINUOUS
  0
LAYER
  5
CD7
330
C9B
100
AcDbSymbolTableRecord
100
AcDbLayerTableRecord
  2
Line029
 70
    0
 62
    7
  6
CONTINUOUS
  0
LAYER
  5
CD8
330
C9B
100
AcDbSymbolTableRecord
100
AcDbLayerTableRecord
  2
Arc024
 70
    0
 62
    7
  6
CONTINUOUS
  0
LAYER
  5
CD9
330
C9B
100
AcDbSymbolTableRecord
100
AcDbLayerTableRecord
  2
Line032
 70
    0
 62
    7
  6
CONTINUOUS
  0
LAYER
  5
CDA
330
C9B
100
AcDbSymbolTableRecord
100
AcDbLayerTableRecord
  2
Arc025
 70
    0
 62
    7
  6
CONTINUOUS
  0
LAYER
  5
CDB
330
C9B
100
AcDbSymbolTableRecord
100
AcDbLayerTableRecord
  2
Line033
 70
    0
 62
    7
  6
CONTINUOUS
  0
LAYER
  5
CDC
330
C9B
100
AcDbSymbolTableRecord
100
AcDbLayerTableRecord
  2
Arc026
 70
    0
 62
    7
  6
CONTINUOUS
  0
LAYER
  5
CDD
330
C9B
100
AcDbSymbolTableRecord
100
AcDbLayerTableRecord
  2
Arc027
 70
    0
 62
    7
  6
CONTINUOUS
  0
LAYER
  5
CDE
330
C9B
100
AcDbSymbolTableRecord
100
AcDbLayerTableRecord
  2
Line034
 70
    0
 62
    7
  6
CONTINUOUS
  0
LAYER
  5
CDF
330
C9B
100
AcDbSymbolTableRecord
100
AcDbLayerTableRecord
  2
Line035
 70
    0
 62
    7
  6
CONTINUOUS
  0
LAYER
  5
CE0
330
C9B
100
AcDbSymbolTableRecord
100
AcDbLayerTableRecord
  2
Line036
 70
    0
 62
    7
  6
CONTINUOUS
  0
LAYER
  5
CE1
330
C9B
100
AcDbSymbolTableRecord
100
AcDbLayerTableRecord
  2
Arc028
 70
    0
 62
    7
  6
CONTINUOUS
  0
LAYER
  5
CE2
330
C9B
100
AcDbSymbolTableRecord
100
AcDbLayerTableRecord
  2
Line037
 70
    0
 62
    7
  6
CONTINUOUS
  0
LAYER
  5
CE3
330
C9B
100
AcDbSymbolTableRecord
100
AcDbLayerTableRecord
  2
Line038
 70
    0
 62
    7
  6
CONTINUOUS
  0
LAYER
  5
CE4
330
C9B
100
AcDbSymbolTableRecord
100
AcDbLayerTableRecord
  2
Arc029
 70
    0
 62
    7
  6
CONTINUOUS
  0
LAYER
  5
CE5
330
C9B
100
AcDbSymbolTableRecord
100
AcDbLayerTableRecord
  2
Arc030
 70
    0
 62
    7
  6
CONTINUOUS
  0
LAYER
  5
CE6
330
C9B
100
AcDbSymbolTableRecord
100
AcDbLayerTableRecord
  2
Arc031
 70
    0
 62
    7
  6
CONTINUOUS
  0
LAYER
  5
CE7
330
C9B
100
AcDbSymbolTableRecord
100
AcDbLayerTableRecord
  2
Line041
 70
    0
 62
    7
  6
CONTINUOUS
  0
LAYER
  5
CE8
330
C9B
100
AcDbSymbolTableRecord
100
AcDbLayerTableRecord
  2
Line042
 70
    0
 62
    7
  6
CONTINUOUS
  0
LAYER
  5
CE9
330
C9B
100
AcDbSymbolTableRecord
100
AcDbLayerTableRecord
  2
Arc032
 70
    0
 62
    7
  6
CONTINUOUS
  0
LAYER
  5
CEA
330
C9B
100
AcDbSymbolTableRecord
100
AcDbLayerTableRecord
  2
Line044
 70
    0
 62
    7
  6
CONTINUOUS
  0
LAYER
  5
CEB
330
C9B
100
AcDbSymbolTableRecord
100
AcDbLayerTableRecord
  2
Arc033
 70
    0
 62
    7
  6
CONTINUOUS
  0
LAYER
  5
CEC
330
C9B
100
AcDbSymbolTableRecord
100
AcDbLayerTableRecord
  2
Line045
 70
    0
 62
    7
  6
CONTINUOUS
  0
LAYER
  5
CED
330
C9B
100
AcDbSymbolTableRecord
100
AcDbLayerTableRecord
  2
Line046
 70
    0
 62
    7
  6
CONTINUOUS
  0
LAYER
  5
CEE
330
C9B
100
AcDbSymbolTableRecord
100
AcDbLayerTableRecord
  2
Arc034
 70
    0
 62
    7
  6
CONTINUOUS
  0
LAYER
  5
CEF
330
C9B
100
AcDbSymbolTableRecord
100
AcDbLayerTableRecord
  2
Arc035
 70
    0
 62
    7
  6
CONTINUOUS
  0
LAYER
  5
CF0
330
C9B
100
AcDbSymbolTableRecord
100
AcDbLayerTableRecord
  2
Arc036
 70
    0
 62
    7
  6
CONTINUOUS
  0
LAYER
  5
CF1
330
C9B
100
AcDbSymbolTableRecord
100
AcDbLayerTableRecord
  2
Line050
 70
    0
 62
    7
  6
CONTINUOUS
  0
LAYER
  5
CF2
330
C9B
100
AcDbSymbolTableRecord
100
AcDbLayerTableRecord
  2
Arc037
 70
    0
 62
    7
  6
CONTINUOUS
  0
LAYER
  5
CF3
330
C9B
100
AcDbSymbolTableRecord
100
AcDbLayerTableRecord
  2
Line051
 70
    0
 62
    7
  6
CONTINUOUS
  0
LAYER
  5
CF4
330
C9B
100
AcDbSymbolTableRecord
100
AcDbLayerTableRecord
  2
Arc038
 70
    0
 62
    7
  6
CONTINUOUS
  0
LAYER
  5
CF5
330
C9B
100
AcDbSymbolTableRecord
100
AcDbLayerTableRecord
  2
Line052
 70
    0
 62
    7
  6
CONTINUOUS
  0
LAYER
  5
CF6
330
C9B
100
AcDbSymbolTableRecord
100
AcDbLayerTableRecord
  2
Line053
 70
    0
 62
    7
  6
CONTINUOUS
  0
LAYER
  5
CF7
330
C9B
100
AcDbSymbolTableRecord
100
AcDbLayerTableRecord
  2
Arc039
 70
    0
 62
    7
  6
CONTINUOUS
  0
LAYER
  5
CF8
330
C9B
100
AcDbSymbolTableRecord
100
AcDbLayerTableRecord
  2
Arc040
 70
    0
 62
    7
  6
CONTINUOUS
  0
LAYER
  5
CF9
330
C9B
100
AcDbSymbolTableRecord
100
AcDbLayerTableRecord
  2
Arc041
 70
    0
 62
    7
  6
CONTINUOUS
  0
LAYER
  5
CFA
330
C9B
100
AcDbSymbolTableRecord
100
AcDbLayerTableRecord
  2
Arc042
 70
    0
 62
    7
  6
CONTINUOUS
  0
LAYER
  5
CFB
330
C9B
100
AcDbSymbolTableRecord
100
AcDbLayerTableRecord
  2
Line055
 70
    0
 62
    7
  6
CONTINUOUS
  0
LAYER
  5
CFC
330
C9B
100
AcDbSymbolTableRecord
100
AcDbLayerTableRecord
  2
Line056
 70
    0
 62
    7
  6
CONTINUOUS
  0
LAYER
  5
CFD
330
C9B
100
AcDbSymbolTableRecord
100
AcDbLayerTableRecord
  2
Line057
 70
    0
 62
    7
  6
CONTINUOUS
  0
LAYER
  5
CFE
330
C9B
100
AcDbSymbolTableRecord
100
AcDbLayerTableRecord
  2
Line059
 70
    0
 62
    7
  6
CONTINUOUS
  0
LAYER
  5
CFF
330
C9B
100
AcDbSymbolTableRecord
100
AcDbLayerTableRecord
  2
Arc043
 70
    0
 62
    7
  6
CONTINUOUS
  0
LAYER
  5
D00
330
C9B
100
AcDbSymbolTableRecord
100
AcDbLayerTableRecord
  2
Arc044
 70
    0
 62
    7
  6
CONTINUOUS
  0
LAYER
  5
D01
330
C9B
100
AcDbSymbolTableRecord
100
AcDbLayerTableRecord
  2
Line060
 70
    0
 62
    7
  6
CONTINUOUS
  0
LAYER
  5
D02
330
C9B
100
AcDbSymbolTableRecord
100
AcDbLayerTableRecord
  2
Line062
 70
    0
 62
    7
  6
CONTINUOUS
  0
LAYER
  5
D03
330
C9B
100
AcDbSymbolTableRecord
100
AcDbLayerTableRecord
  2
Arc045
 70
    0
 62
    7
  6
CONTINUOUS
  0
LAYER
  5
D04
330
C9B
100
AcDbSymbolTableRecord
100
AcDbLayerTableRecord
  2
Arc046
 70
    0
 62
    7
  6
CONTINUOUS
  0
LAYER
  5
D05
330
C9B
100
AcDbSymbolTableRecord
100
AcDbLayerTableRecord
  2
Line063
 70
    0
 62
    7
  6
CONTINUOUS
  0
LAYER
  5
D06
330
C9B
100
AcDbSymbolTableRecord
100
AcDbLayerTableRecord
  2
Arc047
 70
    0
 62
    7
  6
CONTINUOUS
  0
LAYER
  5
D07
330
C9B
100
AcDbSymbolTableRecord
100
AcDbLayerTableRecord
  2
Line064
 70
    0
 62
    7
  6
CONTINUOUS
  0
LAYER
  5
D08
330
C9B
100
AcDbSymbolTableRecord
100
AcDbLayerTableRecord
  2
Line066
 70
    0
 62
    7
  6
CONTINUOUS
  0
LAYER
  5
D09
330
C9B
100
AcDbSymbolTableRecord
100
AcDbLayerTableRecord
  2
Line067
 70
    0
 62
    7
  6
CONTINUOUS
  0
LAYER
  5
D0A
330
C9B
100
AcDbSymbolTableRecord
100
AcDbLayerTableRecord
  2
Arc048
 70
    0
 62
    7
  6
CONTINUOUS
  0
LAYER
  5
D0B
330
C9B
100
AcDbSymbolTableRecord
100
AcDbLayerTableRecord
  2
Line068
 70
    0
 62
    7
  6
CONTINUOUS
  0
LAYER
  5
D0C
330
C9B
100
AcDbSymbolTableRecord
100
AcDbLayerTableRecord
  2
Arc049
 70
    0
 62
    7
  6
CONTINUOUS
  0
LAYER
  5
D0D
330
C9B
100
AcDbSymbolTableRecord
100
AcDbLayerTableRecord
  2
Arc050
 70
    0
 62
    7
  6
CONTINUOUS
  0
LAYER
  5
D0E
330
C9B
100
AcDbSymbolTableRecord
100
AcDbLayerTableRecord
  2
Arc051
 70
    0
 62
    7
  6
CONTINUOUS
  0
LAYER
  5
D0F
330
C9B
100
AcDbSymbolTableRecord
100
AcDbLayerTableRecord
  2
Line070
 70
    0
 62
    7
  6
CONTINUOUS
  0
LAYER
  5
D10
330
C9B
100
AcDbSymbolTableRecord
100
AcDbLayerTableRecord
  2
Arc052
 70
    0
 62
    7
  6
CONTINUOUS
  0
LAYER
  5
D11
330
C9B
100
AcDbSymbolTableRecord
100
AcDbLayerTableRecord
  2
Line073
 70
    0
 62
    7
  6
CONTINUOUS
  0
LAYER
  5
D12
330
C9B
100
AcDbSymbolTableRecord
100
AcDbLayerTableRecord
  2
Arc053
 70
    0
 62
    7
  6
CONTINUOUS
  0
LAYER
  5
D13
330
C9B
100
AcDbSymbolTableRecord
100
AcDbLayerTableRecord
  2
Line074
 70
    0
 62
    7
  6
CONTINUOUS
  0
LAYER
  5
D14
330
C9B
100
AcDbSymbolTableRecord
100
AcDbLayerTableRecord
  2
Line075
 70
    0
 62
    7
  6
CONTINUOUS
  0
LAYER
  5
D15
330
C9B
100
AcDbSymbolTableRecord
100
AcDbLayerTableRecord
  2
Arc054
 70
    0
 62
    7
  6
CONTINUOUS
  0
LAYER
  5
D16
330
C9B
100
AcDbSymbolTableRecord
100
AcDbLayerTableRecord
  2
Arc055
 70
    0
 62
    7
  6
CONTINUOUS
  0
LAYER
  5
D17
330
C9B
100
AcDbSymbolTableRecord
100
AcDbLayerTableRecord
  2
Line077
 70
    0
 62
    7
  6
CONTINUOUS
  0
LAYER
  5
D18
330
C9B
100
AcDbSymbolTableRecord
100
AcDbLayerTableRecord
  2
Line078
 70
    0
 62
    7
  6
CONTINUOUS
  0
LAYER
  5
D19
330
C9B
100
AcDbSymbolTableRecord
100
AcDbLayerTableRecord
  2
Arc056
 70
    0
 62
    7
  6
CONTINUOUS
  0
LAYER
  5
D1A
330
C9B
100
AcDbSymbolTableRecord
100
AcDbLayerTableRecord
  2
Line079
 70
    0
 62
    7
  6
CONTINUOUS
  0
LAYER
  5
D1B
330
C9B
100
AcDbSymbolTableRecord
100
AcDbLayerTableRecord
  2
Arc057
 70
    0
 62
    7
  6
CONTINUOUS
  0
LAYER
  5
D1C
330
C9B
100
AcDbSymbolTableRecord
100
AcDbLayerTableRecord
  2
Line082
 70
    0
 62
    7
  6
CONTINUOUS
  0
LAYER
  5
D1D
330
C9B
100
AcDbSymbolTableRecord
100
AcDbLayerTableRecord
  2
Arc058
 70
    0
 62
    7
  6
CONTINUOUS
  0
LAYER
  5
D1E
330
C9B
100
AcDbSymbolTableRecord
100
AcDbLayerTableRecord
  2
Arc059
 70
    0
 62
    7
  6
CONTINUOUS
  0
LAYER
  5
D1F
330
C9B
100
AcDbSymbolTableRecord
100
AcDbLayerTableRecord
  2
Line083
 70
    0
 62
    7
  6
CONTINUOUS
  0
LAYER
  5
D20
330
C9B
100
AcDbSymbolTableRecord
100
AcDbLayerTableRecord
  2
Arc060
 70
    0
 62
    7
  6
CONTINUOUS
  0
LAYER
  5
D21
330
C9B
100
AcDbSymbolTableRecord
100
AcDbLayerTableRecord
  2
Line085
 70
    0
 62
    7
  6
CONTINUOUS
  0
LAYER
  5
D22
330
C9B
100
AcDbSymbolTableRecord
100
AcDbLayerTableRecord
  2
Line086
 70
    0
 62
    7
  6
CONTINUOUS
  0
LAYER
  5
D23
330
C9B
100
AcDbSymbolTableRecord
100
AcDbLayerTableRecord
  2
Arc061
 70
    0
 62
    7
  6
CONTINUOUS
  0
LAYER
  5
D24
330
C9B
100
AcDbSymbolTableRecord
100
AcDbLayerTableRecord
  2
Line088
 70
    0
 62
    7
  6
CONTINUOUS
  0
LAYER
  5
D25
330
C9B
100
AcDbSymbolTableRecord
100
AcDbLayerTableRecord
  2
Arc062
 70
    0
 62
    7
  6
CONTINUOUS
  0
LAYER
  5
D26
330
C9B
100
AcDbSymbolTableRecord
100
AcDbLayerTableRecord
  2
Arc063
 70
    0
 62
    7
  6
CONTINUOUS
  0
LAYER
  5
D27
330
C9B
100
AcDbSymbolTableRecord
100
AcDbLayerTableRecord
  2
Line089
 70
    0
 62
    7
  6
CONTINUOUS
  0
LAYER
  5
D28
330
C9B
100
AcDbSymbolTableRecord
100
AcDbLayerTableRecord
  2
Arc064
 70
    0
 62
    7
  6
CONTINUOUS
  0
LAYER
  5
D29
330
C9B
100
AcDbSymbolTableRecord
100
AcDbLayerTableRecord
  2
Line090
 70
    0
 62
    7
  6
CONTINUOUS
  0
LAYER
  5
D2A
330
C9B
100
AcDbSymbolTableRecord
100
AcDbLayerTableRecord
  2
Line091
 70
    0
 62
    7
  6
CONTINUOUS
  0
LAYER
  5
D2B
330
C9B
100
AcDbSymbolTableRecord
100
AcDbLayerTableRecord
  2
Arc065
 70
    0
 62
    7
  6
CONTINUOUS
  0
LAYER
  5
D2C
330
C9B
100
AcDbSymbolTableRecord
100
AcDbLayerTableRecord
  2
Line094
 70
    0
 62
    7
  6
CONTINUOUS
  0
LAYER
  5
D2D
330
C9B
100
AcDbSymbolTableRecord
100
AcDbLayerTableRecord
  2
Arc066
 70
    0
 62
    7
  6
CONTINUOUS
  0
LAYER
  5
D2E
330
C9B
100
AcDbSymbolTableRecord
100
AcDbLayerTableRecord
  2
Arc067
 70
    0
 62
    7
  6
CONTINUOUS
  0
LAYER
  5
D2F
330
C9B
100
AcDbSymbolTableRecord
100
AcDbLayerTableRecord
  2
Line095
 70
    0
 62
    7
  6
CONTINUOUS
  0
LAYER
  5
D30
330
C9B
100
AcDbSymbolTableRecord
100
AcDbLayerTableRecord
  2
Arc068
 70
    0
 62
    7
  6
CONTINUOUS
  0
LAYER
  5
D31
330
C9B
100
AcDbSymbolTableRecord
100
AcDbLayerTableRecord
  2
Arc069
 70
    0
 62
    7
  6
CONTINUOUS
  0
LAYER
  5
D32
330
C9B
100
AcDbSymbolTableRecord
100
AcDbLayerTableRecord
  2
Arc070
 70
    0
 62
    7
  6
CONTINUOUS
  0
LAYER
  5
D33
330
C9B
100
AcDbSymbolTableRecord
100
AcDbLayerTableRecord
  2
Line096
 70
    0
 62
    7
  6
CONTINUOUS
  0
LAYER
  5
D34
330
C9B
100
AcDbSymbolTableRecord
100
AcDbLayerTableRecord
  2
Arc071
 70
    0
 62
    7
  6
CONTINUOUS
  0
LAYER
  5
D35
330
C9B
100
AcDbSymbolTableRecord
100
AcDbLayerTableRecord
  2
Line097
 70
    0
 62
    7
  6
CONTINUOUS
  0
LAYER
  5
D36
330
C9B
100
AcDbSymbolTableRecord
100
AcDbLayerTableRecord
  2
Line098
 70
    0
 62
    7
  6
CONTINUOUS
  0
LAYER
  5
D37
330
C9B
100
AcDbSymbolTableRecord
100
AcDbLayerTableRecord
  2
Line099
 70
    0
 62
    7
  6
CONTINUOUS
  0
LAYER
  5
D38
330
C9B
100
AcDbSymbolTableRecord
100
AcDbLayerTableRecord
  2
Arc078
 70
    0
 62
    7
  6
CONTINUOUS
  0
LAYER
  5
D39
330
C9B
100
AcDbSymbolTableRecord
100
AcDbLayerTableRecord
  2
Arc079
 70
    0
 62
    7
  6
CONTINUOUS
  0
LAYER
  5
D3A
330
C9B
100
AcDbSymbolTableRecord
100
AcDbLayerTableRecord
  2
Line111
 70
    0
 62
    7
  6
CONTINUOUS
  0
LAYER
  5
D3B
330
C9B
100
AcDbSymbolTableRecord
100
AcDbLayerTableRecord
  2
Arc080
 70
    0
 62
    7
  6
CONTINUOUS
  0
LAYER
  5
D3C
330
C9B
100
AcDbSymbolTableRecord
100
AcDbLayerTableRecord
  2
Arc082
 70
    0
 62
    7
  6
CONTINUOUS
  0
LAYER
  5
D3D
330
C9B
100
AcDbSymbolTableRecord
100
AcDbLayerTableRecord
  2
Line115
 70
    0
 62
    7
  6
CONTINUOUS
  0
LAYER
  5
D3E
330
C9B
100
AcDbSymbolTableRecord
100
AcDbLayerTableRecord
  2
Line117
 70
    0
 62
    7
  6
CONTINUOUS
  0
LAYER
  5
D3F
330
C9B
100
AcDbSymbolTableRecord
100
AcDbLayerTableRecord
  2
Arc085
 70
    0
 62
    7
  6
CONTINUOUS
  0
LAYER
  5
D40
330
C9B
100
AcDbSymbolTableRecord
100
AcDbLayerTableRecord
  2
Arc086
 70
    0
 62
    7
  6
CONTINUOUS
  0
LAYER
  5
D41
330
C9B
100
AcDbSymbolTableRecord
100
AcDbLayerTableRecord
  2
Arc088
 70
    0
 62
    7
  6
CONTINUOUS
  0
LAYER
  5
D42
330
C9B
100
AcDbSymbolTableRecord
100
AcDbLayerTableRecord
  2
Arc091
 70
    0
 62
    7
  6
CONTINUOUS
  0
LAYER
  5
D43
330
C9B
100
AcDbSymbolTableRecord
100
AcDbLayerTableRecord
  2
Line127
 70
    0
 62
    7
  6
CONTINUOUS
  0
LAYER
  5
D44
330
C9B
100
AcDbSymbolTableRecord
100
AcDbLayerTableRecord
  2
Arc092
 70
    0
 62
    7
  6
CONTINUOUS
  0
LAYER
  5
D45
330
C9B
100
AcDbSymbolTableRecord
100
AcDbLayerTableRecord
  2
Line129
 70
    0
 62
    7
  6
CONTINUOUS
  0
LAYER
  5
D46
330
C9B
100
AcDbSymbolTableRecord
100
AcDbLayerTableRecord
  2
Arc093
 70
    0
 62
    7
  6
CONTINUOUS
  0
LAYER
  5
D47
330
C9B
100
AcDbSymbolTableRecord
100
AcDbLayerTableRecord
  2
Line130
 70
    0
 62
    7
  6
CONTINUOUS
  0
LAYER
  5
D48
330
C9B
100
AcDbSymbolTableRecord
100
AcDbLayerTableRecord
  2
Arc094
 70
    0
 62
    7
  6
CONTINUOUS
  0
LAYER
  5
D49
330
C9B
100
AcDbSymbolTableRecord
100
AcDbLayerTableRecord
  2
Arc095
 70
    0
 62
    7
  6
CONTINUOUS
  0
LAYER
  5
D4A
330
C9B
100
AcDbSymbolTableRecord
100
AcDbLayerTableRecord
  2
Line133
 70
    0
 62
    7
  6
CONTINUOUS
  0
LAYER
  5
D4B
330
C9B
100
AcDbSymbolTableRecord
100
AcDbLayerTableRecord
  2
Line134
 70
    0
 62
    7
  6
CONTINUOUS
  0
LAYER
  5
D4C
330
C9B
100
AcDbSymbolTableRecord
100
AcDbLayerTableRecord
  2
Arc096
 70
    0
 62
    7
  6
CONTINUOUS
  0
LAYER
  5
D4D
330
C9B
100
AcDbSymbolTableRecord
100
AcDbLayerTableRecord
  2
Arc097
 70
    0
 62
    7
  6
CONTINUOUS
  0
LAYER
  5
D4E
330
C9B
100
AcDbSymbolTableRecord
100
AcDbLayerTableRecord
  2
Arc098
 70
    0
 62
    7
  6
CONTINUOUS
  0
LAYER
  5
D4F
330
C9B
100
AcDbSymbolTableRecord
100
AcDbLayerTableRecord
  2
Arc099
 70
    0
 62
    7
  6
CONTINUOUS
  0
LAYER
  5
D50
330
C9B
100
AcDbSymbolTableRecord
100
AcDbLayerTableRecord
  2
Line137
 70
    0
 62
    7
  6
CONTINUOUS
  0
LAYER
  5
D51
330
C9B
100
AcDbSymbolTableRecord
100
AcDbLayerTableRecord
  2
Line138
 70
    0
 62
    7
  6
CONTINUOUS
  0
LAYER
  5
D52
330
C9B
100
AcDbSymbolTableRecord
100
AcDbLayerTableRecord
  2
Line139
 70
    0
 62
    7
  6
CONTINUOUS
  0
LAYER
  5
D53
330
C9B
100
AcDbSymbolTableRecord
100
AcDbLayerTableRecord
  2
Line140
 70
    0
 62
    7
  6
CONTINUOUS
  0
LAYER
  5
D54
330
C9B
100
AcDbSymbolTableRecord
100
AcDbLayerTableRecord
  2
Arc100
 70
    0
 62
    7
  6
CONTINUOUS
  0
LAYER
  5
D55
330
C9B
100
AcDbSymbolTableRecord
100
AcDbLayerTableRecord
  2
Line143
 70
    0
 62
    7
  6
CONTINUOUS
  0
LAYER
  5
D56
330
C9B
100
AcDbSymbolTableRecord
100
AcDbLayerTableRecord
  2
Arc101
 70
    0
 62
    7
  6
CONTINUOUS
  0
LAYER
  5
D57
330
C9B
100
AcDbSymbolTableRecord
100
AcDbLayerTableRecord
  2
Line144
 70
    0
 62
    7
  6
CONTINUOUS
  0
LAYER
  5
D58
330
C9B
100
AcDbSymbolTableRecord
100
AcDbLayerTableRecord
  2
Arc102
 70
    0
 62
    7
  6
CONTINUOUS
  0
LAYER
  5
D59
330
C9B
100
AcDbSymbolTableRecord
100
AcDbLayerTableRecord
  2
Arc103
 70
    0
 62
    7
  6
CONTINUOUS
  0
LAYER
  5
D5A
330
C9B
100
AcDbSymbolTableRecord
100
AcDbLayerTableRecord
  2
Line145
 70
    0
 62
    7
  6
CONTINUOUS
  0
LAYER
  5
D5B
330
C9B
100
AcDbSymbolTableRecord
100
AcDbLayerTableRecord
  2
Line146
 70
    0
 62
    7
  6
CONTINUOUS
  0
LAYER
  5
D5C
330
C9B
100
AcDbSymbolTableRecord
100
AcDbLayerTableRecord
  2
Line148
 70
    0
 62
    7
  6
CONTINUOUS
  0
LAYER
  5
D5D
330
C9B
100
AcDbSymbolTableRecord
100
AcDbLayerTableRecord
  2
Line149
 70
    0
 62
    7
  6
CONTINUOUS
  0
LAYER
  5
D5E
330
C9B
100
AcDbSymbolTableRecord
100
AcDbLayerTableRecord
  2
Arc104
 70
    0
 62
    7
  6
CONTINUOUS
  0
LAYER
  5
D5F
330
C9B
100
AcDbSymbolTableRecord
100
AcDbLayerTableRecord
  2
Arc105
 70
    0
 62
    7
  6
CONTINUOUS
  0
LAYER
  5
D60
330
C9B
100
AcDbSymbolTableRecord
100
AcDbLayerTableRecord
  2
Line150
 70
    0
 62
    7
  6
CONTINUOUS
  0
LAYER
  5
D61
330
C9B
100
AcDbSymbolTableRecord
100
AcDbLayerTableRecord
  2
Arc106
 70
    0
 62
    7
  6
CONTINUOUS
  0
LAYER
  5
D62
330
C9B
100
AcDbSymbolTableRecord
100
AcDbLayerTableRecord
  2
Line152
 70
    0
 62
    7
  6
CONTINUOUS
  0
LAYER
  5
D63
330
C9B
100
AcDbSymbolTableRecord
100
AcDbLayerTableRecord
  2
Arc107
 70
    0
 62
    7
  6
CONTINUOUS
  0
LAYER
  5
D64
330
C9B
100
AcDbSymbolTableRecord
100
AcDbLayerTableRecord
  2
Arc108
 70
    0
 62
    7
  6
CONTINUOUS
  0
LAYER
  5
D65
330
C9B
100
AcDbSymbolTableRecord
100
AcDbLayerTableRecord
  2
Line153
 70
    0
 62
    7
  6
CONTINUOUS
  0
LAYER
  5
D66
330
C9B
100
AcDbSymbolTableRecord
100
AcDbLayerTableRecord
  2
Arc109
 70
    0
 62
    7
  6
CONTINUOUS
  0
LAYER
  5
D67
330
C9B
100
AcDbSymbolTableRecord
100
AcDbLayerTableRecord
  2
Line155
 70
    0
 62
    7
  6
CONTINUOUS
  0
LAYER
  5
D68
330
C9B
100
AcDbSymbolTableRecord
100
AcDbLayerTableRecord
  2
Line156
 70
    0
 62
    7
  6
CONTINUOUS
  0
LAYER
  5
D69
330
C9B
100
AcDbSymbolTableRecord
100
AcDbLayerTableRecord
  2
Arc110
 70
    0
 62
    7
  6
CONTINUOUS
  0
LAYER
  5
D6A
330
C9B
100
AcDbSymbolTableRecord
100
AcDbLayerTableRecord
  2
Arc111
 70
    0
 62
    7
  6
CONTINUOUS
  0
LAYER
  5
D6B
330
C9B
100
AcDbSymbolTableRecord
100
AcDbLayerTableRecord
  2
Line157
 70
    0
 62
    7
  6
CONTINUOUS
  0
LAYER
  5
D6C
330
C9B
100
AcDbSymbolTableRecord
100
AcDbLayerTableRecord
  2
Line159
 70
    0
 62
    7
  6
CONTINUOUS
  0
LAYER
  5
D6D
330
C9B
100
AcDbSymbolTableRecord
100
AcDbLayerTableRecord
  2
Line161
 70
    0
 62
    7
  6
CONTINUOUS
  0
LAYER
  5
D6E
330
C9B
100
AcDbSymbolTableRecord
100
AcDbLayerTableRecord
  2
Arc112
 70
    0
 62
    7
  6
CONTINUOUS
  0
LAYER
  5
D6F
330
C9B
100
AcDbSymbolTableRecord
100
AcDbLayerTableRecord
  2
Line162
 70
    0
 62
    7
  6
CONTINUOUS
  0
LAYER
  5
D70
330
C9B
100
AcDbSymbolTableRecord
100
AcDbLayerTableRecord
  2
Arc113
 70
    0
 62
    7
  6
CONTINUOUS
  0
LAYER
  5
D71
330
C9B
100
AcDbSymbolTableRecord
100
AcDbLayerTableRecord
  2
Arc114
 70
    0
 62
    7
  6
CONTINUOUS
  0
LAYER
  5
D72
330
C9B
100
AcDbSymbolTableRecord
100
AcDbLayerTableRecord
  2
Line164
 70
    0
 62
    7
  6
CONTINUOUS
  0
LAYER
  5
D73
330
C9B
100
AcDbSymbolTableRecord
100
AcDbLayerTableRecord
  2
Arc115
 70
    0
 62
    7
  6
CONTINUOUS
  0
LAYER
  5
D74
330
C9B
100
AcDbSymbolTableRecord
100
AcDbLayerTableRecord
  2
Line165
 70
    0
 62
    7
  6
CONTINUOUS
  0
LAYER
  5
D75
330
C9B
100
AcDbSymbolTableRecord
100
AcDbLayerTableRecord
  2
Arc116
 70
    0
 62
    7
  6
CONTINUOUS
  0
LAYER
  5
D76
330
C9B
100
AcDbSymbolTableRecord
100
AcDbLayerTableRecord
  2
Line166
 70
    0
 62
    7
  6
CONTINUOUS
  0
LAYER
  5
D77
330
C9B
100
AcDbSymbolTableRecord
100
AcDbLayerTableRecord
  2
Arc117
 70
    0
 62
    7
  6
CONTINUOUS
  0
LAYER
  5
D78
330
C9B
100
AcDbSymbolTableRecord
100
AcDbLayerTableRecord
  2
Arc118
 70
    0
 62
    7
  6
CONTINUOUS
  0
LAYER
  5
D79
330
C9B
100
AcDbSymbolTableRecord
100
AcDbLayerTableRecord
  2
Line168
 70
    0
 62
    7
  6
CONTINUOUS
  0
LAYER
  5
D7A
330
C9B
100
AcDbSymbolTableRecord
100
AcDbLayerTableRecord
  2
Line170
 70
    0
 62
    7
  6
CONTINUOUS
  0
LAYER
  5
D7B
330
C9B
100
AcDbSymbolTableRecord
100
AcDbLayerTableRecord
  2
Arc119
 70
    0
 62
    7
  6
CONTINUOUS
  0
LAYER
  5
D7C
330
C9B
100
AcDbSymbolTableRecord
100
AcDbLayerTableRecord
  2
Arc120
 70
    0
 62
    7
  6
CONTINUOUS
  0
LAYER
  5
D7D
330
C9B
100
AcDbSymbolTableRecord
100
AcDbLayerTableRecord
  2
Line171
 70
    0
 62
    7
  6
CONTINUOUS
  0
LAYER
  5
D7E
330
C9B
100
AcDbSymbolTableRecord
100
AcDbLayerTableRecord
  2
Arc121
 70
    0
 62
    7
  6
CONTINUOUS
  0
LAYER
  5
D7F
330
C9B
100
AcDbSymbolTableRecord
100
AcDbLayerTableRecord
  2
Line173
 70
    0
 62
    7
  6
CONTINUOUS
  0
LAYER
  5
D80
330
C9B
100
AcDbSymbolTableRecord
100
AcDbLayerTableRecord
  2
Line174
 70
    0
 62
    7
  6
CONTINUOUS
  0
LAYER
  5
D81
330
C9B
100
AcDbSymbolTableRecord
100
AcDbLayerTableRecord
  2
Arc122
 70
    0
 62
    7
  6
CONTINUOUS
  0
LAYER
  5
D82
330
C9B
100
AcDbSymbolTableRecord
100
AcDbLayerTableRecord
  2
Line175
 70
    0
 62
    7
  6
CONTINUOUS
  0
LAYER
  5
D83
330
C9B
100
AcDbSymbolTableRecord
100
AcDbLayerTableRecord
  2
Arc123
 70
    0
 62
    7
  6
CONTINUOUS
  0
LAYER
  5
D84
330
C9B
100
AcDbSymbolTableRecord
100
AcDbLayerTableRecord
  2
Line177
 70
    0
 62
    7
  6
CONTINUOUS
  0
LAYER
  5
D85
330
C9B
100
AcDbSymbolTableRecord
100
AcDbLayerTableRecord
  2
Line178
 70
    0
 62
    7
  6
CONTINUOUS
  0
LAYER
  5
D86
330
C9B
100
AcDbSymbolTableRecord
100
AcDbLayerTableRecord
  2
Arc124
 70
    0
 62
    7
  6
CONTINUOUS
  0
LAYER
  5
D87
330
C9B
100
AcDbSymbolTableRecord
100
AcDbLayerTableRecord
  2
Arc125
 70
    0
 62
    7
  6
CONTINUOUS
  0
LAYER
  5
D88
330
C9B
100
AcDbSymbolTableRecord
100
AcDbLayerTableRecord
  2
Line180
 70
    0
 62
    7
  6
CONTINUOUS
  0
LAYER
  5
D89
330
C9B
100
AcDbSymbolTableRecord
100
AcDbLayerTableRecord
  2
Arc126
 70
    0
 62
    7
  6
CONTINUOUS
  0
LAYER
  5
D8A
330
C9B
100
AcDbSymbolTableRecord
100
AcDbLayerTableRecord
  2
Line181
 70
    0
 62
    7
  6
CONTINUOUS
  0
LAYER
  5
D8B
330
C9B
100
AcDbSymbolTableRecord
100
AcDbLayerTableRecord
  2
Arc127
 70
    0
 62
    7
  6
CONTINUOUS
  0
LAYER
  5
D8C
330
C9B
100
AcDbSymbolTableRecord
100
AcDbLayerTableRecord
  2
Line184
 70
    0
 62
    7
  6
CONTINUOUS
  0
LAYER
  5
D8D
330
C9B
100
AcDbSymbolTableRecord
100
AcDbLayerTableRecord
  2
Line186
 70
    0
 62
    7
  6
CONTINUOUS
  0
LAYER
  5
D8E
330
C9B
100
AcDbSymbolTableRecord
100
AcDbLayerTableRecord
  2
Line187
 70
    0
 62
    7
  6
CONTINUOUS
  0
LAYER
  5
D8F
330
C9B
100
AcDbSymbolTableRecord
100
AcDbLayerTableRecord
  2
Arc128
 70
    0
 62
    7
  6
CONTINUOUS
  0
LAYER
  5
D90
330
C9B
100
AcDbSymbolTableRecord
100
AcDbLayerTableRecord
  2
Arc129
 70
    0
 62
    7
  6
CONTINUOUS
  0
LAYER
  5
D91
330
C9B
100
AcDbSymbolTableRecord
100
AcDbLayerTableRecord
  2
Line188
 70
    0
 62
    7
  6
CONTINUOUS
  0
LAYER
  5
D92
330
C9B
100
AcDbSymbolTableRecord
100
AcDbLayerTableRecord
  2
Arc130
 70
    0
 62
    7
  6
CONTINUOUS
  0
LAYER
  5
D93
330
C9B
100
AcDbSymbolTableRecord
100
AcDbLayerTableRecord
  2
Arc131
 70
    0
 62
    7
  6
CONTINUOUS
  0
LAYER
  5
D94
330
C9B
100
AcDbSymbolTableRecord
100
AcDbLayerTableRecord
  2
Line190
 70
    0
 62
    7
  6
CONTINUOUS
  0
LAYER
  5
D95
330
C9B
100
AcDbSymbolTableRecord
100
AcDbLayerTableRecord
  2
Line192
 70
    0
 62
    7
  6
CONTINUOUS
  0
LAYER
  5
D96
330
C9B
100
AcDbSymbolTableRecord
100
AcDbLayerTableRecord
  2
Line193
 70
    0
 62
    7
  6
CONTINUOUS
  0
LAYER
  5
D97
330
C9B
100
AcDbSymbolTableRecord
100
AcDbLayerTableRecord
  2
Arc132
 70
    0
 62
    7
  6
CONTINUOUS
  0
LAYER
  5
D98
330
C9B
100
AcDbSymbolTableRecord
100
AcDbLayerTableRecord
  2
Arc133
 70
    0
 62
    7
  6
CONTINUOUS
  0
LAYER
  5
D99
330
C9B
100
AcDbSymbolTableRecord
100
AcDbLayerTableRecord
  2
Arc134
 70
    0
 62
    7
  6
CONTINUOUS
  0
LAYER
  5
D9A
330
C9B
100
AcDbSymbolTableRecord
100
AcDbLayerTableRecord
  2
Arc135
 70
    0
 62
    7
  6
CONTINUOUS
  0
LAYER
  5
D9B
330
C9B
100
AcDbSymbolTableRecord
100
AcDbLayerTableRecord
  2
Line194
 70
    0
 62
    7
  6
CONTINUOUS
  0
LAYER
  5
D9C
330
C9B
100
AcDbSymbolTableRecord
100
AcDbLayerTableRecord
  2
Arc136
 70
    0
 62
    7
  6
CONTINUOUS
  0
LAYER
  5
D9D
330
C9B
100
AcDbSymbolTableRecord
100
AcDbLayerTableRecord
  2
Line196
 70
    0
 62
    7
  6
CONTINUOUS
  0
LAYER
  5
D9E
330
C9B
100
AcDbSymbolTableRecord
100
AcDbLayerTableRecord
  2
Line198
 70
    0
 62
    7
  6
CONTINUOUS
  0
LAYER
  5
D9F
330
C9B
100
AcDbSymbolTableRecord
100
AcDbLayerTableRecord
  2
Line199
 70
    0
 62
    7
  6
CONTINUOUS
  0
LAYER
  5
DA0
330
C9B
100
AcDbSymbolTableRecord
100
AcDbLayerTableRecord
  2
Arc137
 70
    0
 62
    7
  6
CONTINUOUS
  0
LAYER
  5
DA1
330
C9B
100
AcDbSymbolTableRecord
100
AcDbLayerTableRecord
  2
Line200
 70
    0
 62
    7
  6
CONTINUOUS
  0
LAYER
  5
DA2
330
C9B
100
AcDbSymbolTableRecord
100
AcDbLayerTableRecord
  2
Arc138
 70
    0
 62
    7
  6
CONTINUOUS
  0
LAYER
  5
DA3
330
C9B
100
AcDbSymbolTableRecord
100
AcDbLayerTableRecord
  2
Arc139
 70
    0
 62
    7
  6
CONTINUOUS
  0
LAYER
  5
DA4
330
C9B
100
AcDbSymbolTableRecord
100
AcDbLayerTableRecord
  2
Line201
 70
    0
 62
    7
  6
CONTINUOUS
  0
LAYER
  5
DA5
330
C9B
100
AcDbSymbolTableRecord
100
AcDbLayerTableRecord
  2
Line202
 70
    0
 62
    7
  6
CONTINUOUS
  0
LAYER
  5
DA6
330
C9B
100
AcDbSymbolTableRecord
100
AcDbLayerTableRecord
  2
Arc140
 70
    0
 62
    7
  6
CONTINUOUS
  0
LAYER
  5
DA7
330
C9B
100
AcDbSymbolTableRecord
100
AcDbLayerTableRecord
  2
Arc141
 70
    0
 62
    7
  6
CONTINUOUS
  0
LAYER
  5
DA8
330
C9B
100
AcDbSymbolTableRecord
100
AcDbLayerTableRecord
  2
Arc142
 70
    0
 62
    7
  6
CONTINUOUS
  0
LAYER
  5
DA9
330
C9B
100
AcDbSymbolTableRecord
100
AcDbLayerTableRecord
  2
Line204
 70
    0
 62
    7
  6
CONTINUOUS
  0
LAYER
  5
DAA
330
C9B
100
AcDbSymbolTableRecord
100
AcDbLayerTableRecord
  2
Line205
 70
    0
 62
    7
  6
CONTINUOUS
  0
LAYER
  5
DAB
330
C9B
100
AcDbSymbolTableRecord
100
AcDbLayerTableRecord
  2
Arc143
 70
    0
 62
    7
  6
CONTINUOUS
  0
LAYER
  5
DAC
330
C9B
100
AcDbSymbolTableRecord
100
AcDbLayerTableRecord
  2
Line207
 70
    0
 62
    7
  6
CONTINUOUS
  0
LAYER
  5
DAD
330
C9B
100
AcDbSymbolTableRecord
100
AcDbLayerTableRecord
  2
Arc144
 70
    0
 62
    7
  6
CONTINUOUS
  0
LAYER
  5
DAE
330
C9B
100
AcDbSymbolTableRecord
100
AcDbLayerTableRecord
  2
Arc145
 70
    0
 62
    7
  6
CONTINUOUS
  0
LAYER
  5
DAF
330
C9B
100
AcDbSymbolTableRecord
100
AcDbLayerTableRecord
  2
Line208
 70
    0
 62
    7
  6
CONTINUOUS
  0
LAYER
  5
DB0
330
C9B
100
AcDbSymbolTableRecord
100
AcDbLayerTableRecord
  2
Line209
 70
    0
 62
    7
  6
CONTINUOUS
  0
LAYER
  5
DB1
330
C9B
100
AcDbSymbolTableRecord
100
AcDbLayerTableRecord
  2
Arc146
 70
    0
 62
    7
  6
CONTINUOUS
  0
LAYER
  5
DB2
330
C9B
100
AcDbSymbolTableRecord
100
AcDbLayerTableRecord
  2
Arc147
 70
    0
 62
    7
  6
CONTINUOUS
  0
LAYER
  5
DB3
330
C9B
100
AcDbSymbolTableRecord
100
AcDbLayerTableRecord
  2
Line211
 70
    0
 62
    7
  6
CONTINUOUS
  0
LAYER
  5
DB4
330
C9B
100
AcDbSymbolTableRecord
100
AcDbLayerTableRecord
  2
Line219
 70
    0
 62
    7
  6
CONTINUOUS
  0
LAYER
  5
DB5
330
C9B
100
AcDbSymbolTableRecord
100
AcDbLayerTableRecord
  2
Line220
 70
    0
 62
    7
  6
CONTINUOUS
  0
LAYER
  5
DB6
330
C9B
100
AcDbSymbolTableRecord
100
AcDbLayerTableRecord
  2
Line222
 70
    0
 62
    7
  6
CONTINUOUS
  0
LAYER
  5
DB7
330
C9B
100
AcDbSymbolTableRecord
100
AcDbLayerTableRecord
  2
Arc152
 70
    0
 62
    7
  6
CONTINUOUS
  0
LAYER
  5
DB8
330
C9B
100
AcDbSymbolTableRecord
100
AcDbLayerTableRecord
  2
Arc153
 70
    0
 62
    7
  6
CONTINUOUS
  0
LAYER
  5
DB9
330
C9B
100
AcDbSymbolTableRecord
100
AcDbLayerTableRecord
  2
Arc154
 70
    0
 62
    7
  6
CONTINUOUS
  0
LAYER
  5
DBA
330
C9B
100
AcDbSymbolTableRecord
100
AcDbLayerTableRecord
  2
Line223
 70
    0
 62
    7
  6
CONTINUOUS
  0
LAYER
  5
DBB
330
C9B
100
AcDbSymbolTableRecord
100
AcDbLayerTableRecord
  2
Arc155
 70
    0
 62
    7
  6
CONTINUOUS
  0
LAYER
  5
DBC
330
C9B
100
AcDbSymbolTableRecord
100
AcDbLayerTableRecord
  2
Arc157
 70
    0
 62
    7
  6
CONTINUOUS
  0
LAYER
  5
DBD
330
C9B
100
AcDbSymbolTableRecord
100
AcDbLayerTableRecord
  2
Arc159
 70
    0
 62
    7
  6
CONTINUOUS
  0
LAYER
  5
DBE
330
C9B
100
AcDbSymbolTableRecord
100
AcDbLayerTableRecord
  2
Line230
 70
    0
 62
    7
  6
CONTINUOUS
  0
LAYER
  5
DBF
330
C9B
100
AcDbSymbolTableRecord
100
AcDbLayerTableRecord
  2
Arc160
 70
    0
 62
    7
  6
CONTINUOUS
  0
LAYER
  5
DC0
330
C9B
100
AcDbSymbolTableRecord
100
AcDbLayerTableRecord
  2
Line233
 70
    0
 62
    7
  6
CONTINUOUS
  0
LAYER
  5
DC1
330
C9B
100
AcDbSymbolTableRecord
100
AcDbLayerTableRecord
  2
Arc161
 70
    0
 62
    7
  6
CONTINUOUS
  0
LAYER
  5
DC2
330
C9B
100
AcDbSymbolTableRecord
100
AcDbLayerTableRecord
  2
Line234
 70
    0
 62
    7
  6
CONTINUOUS
  0
LAYER
  5
DC3
330
C9B
100
AcDbSymbolTableRecord
100
AcDbLayerTableRecord
  2
Arc162
 70
    0
 62
    7
  6
CONTINUOUS
  0
LAYER
  5
DC4
330
C9B
100
AcDbSymbolTableRecord
100
AcDbLayerTableRecord
  2
Arc163
 70
    0
 62
    7
  6
CONTINUOUS
  0
LAYER
  5
DC5
330
C9B
100
AcDbSymbolTableRecord
100
AcDbLayerTableRecord
  2
Line235
 70
    0
 62
    7
  6
CONTINUOUS
  0
LAYER
  5
DC6
330
C9B
100
AcDbSymbolTableRecord
100
AcDbLayerTableRecord
  2
Line236
 70
    0
 62
    7
  6
CONTINUOUS
  0
LAYER
  5
DC7
330
C9B
100
AcDbSymbolTableRecord
100
AcDbLayerTableRecord
  2
Arc164
 70
    0
 62
    7
  6
CONTINUOUS
  0
LAYER
  5
DC8
330
C9B
100
AcDbSymbolTableRecord
100
AcDbLayerTableRecord
  2
Line239
 70
    0
 62
    7
  6
CONTINUOUS
  0
LAYER
  5
DC9
330
C9B
100
AcDbSymbolTableRecord
100
AcDbLayerTableRecord
  2
Line240
 70
    0
 62
    7
  6
CONTINUOUS
  0
LAYER
  5
DCA
330
C9B
100
AcDbSymbolTableRecord
100
AcDbLayerTableRecord
  2
Line241
 70
    0
 62
    7
  6
CONTINUOUS
  0
LAYER
  5
DCB
330
C9B
100
AcDbSymbolTableRecord
100
AcDbLayerTableRecord
  2
Arc165
 70
    0
 62
    7
  6
CONTINUOUS
  0
LAYER
  5
DCC
330
C9B
100
AcDbSymbolTableRecord
100
AcDbLayerTableRecord
  2
Arc166
 70
    0
 62
    7
  6
CONTINUOUS
  0
LAYER
  5
DCD
330
C9B
100
AcDbSymbolTableRecord
100
AcDbLayerTableRecord
  2
Arc167
 70
    0
 62
    7
  6
CONTINUOUS
  0
LAYER
  5
DCE
330
C9B
100
AcDbSymbolTableRecord
100
AcDbLayerTableRecord
  2
Line242
 70
    0
 62
    7
  6
CONTINUOUS
  0
LAYER
  5
DCF
330
C9B
100
AcDbSymbolTableRecord
100
AcDbLayerTableRecord
  2
Arc168
 70
    0
 62
    7
  6
CONTINUOUS
  0
LAYER
  5
DD0
330
C9B
100
AcDbSymbolTableRecord
100
AcDbLayerTableRecord
  2
Arc169
 70
    0
 62
    7
  6
CONTINUOUS
  0
LAYER
  5
DD1
330
C9B
100
AcDbSymbolTableRecord
100
AcDbLayerTableRecord
  2
Arc170
 70
    0
 62
    7
  6
CONTINUOUS
  0
LAYER
  5
DD2
330
C9B
100
AcDbSymbolTableRecord
100
AcDbLayerTableRecord
  2
Line244
 70
    0
 62
    7
  6
CONTINUOUS
  0
LAYER
  5
DD3
330
C9B
100
AcDbSymbolTableRecord
100
AcDbLayerTableRecord
  2
Line245
 70
    0
 62
    7
  6
CONTINUOUS
  0
LAYER
  5
DD4
330
C9B
100
AcDbSymbolTableRecord
100
AcDbLayerTableRecord
  2
Line246
 70
    0
 62
    7
  6
CONTINUOUS
  0
LAYER
  5
DD5
330
C9B
100
AcDbSymbolTableRecord
100
AcDbLayerTableRecord
  2
Line248
 70
    0
 62
    7
  6
CONTINUOUS
  0
LAYER
  5
DD6
330
C9B
100
AcDbSymbolTableRecord
100
AcDbLayerTableRecord
  2
Arc171
 70
    0
 62
    7
  6
CONTINUOUS
  0
LAYER
  5
DD7
330
C9B
100
AcDbSymbolTableRecord
100
AcDbLayerTableRecord
  2
Line250
 70
    0
 62
    7
  6
CONTINUOUS
  0
LAYER
  5
DD8
330
C9B
100
AcDbSymbolTableRecord
100
AcDbLayerTableRecord
  2
Arc172
 70
    0
 62
    7
  6
CONTINUOUS
  0
LAYER
  5
DD9
330
C9B
100
AcDbSymbolTableRecord
100
AcDbLayerTableRecord
  2
Arc173
 70
    0
 62
    7
  6
CONTINUOUS
  0
LAYER
  5
DDA
330
C9B
100
AcDbSymbolTableRecord
100
AcDbLayerTableRecord
  2
Arc174
 70
    0
 62
    7
  6
CONTINUOUS
  0
LAYER
  5
DDB
330
C9B
100
AcDbSymbolTableRecord
100
AcDbLayerTableRecord
  2
Line251
 70
    0
 62
    7
  6
CONTINUOUS
  0
LAYER
  5
DDC
330
C9B
100
AcDbSymbolTableRecord
100
AcDbLayerTableRecord
  2
Line252
 70
    0
 62
    7
  6
CONTINUOUS
  0
LAYER
  5
DDD
330
C9B
100
AcDbSymbolTableRecord
100
AcDbLayerTableRecord
  2
Arc175
 70
    0
 62
    7
  6
CONTINUOUS
  0
LAYER
  5
DDE
330
C9B
100
AcDbSymbolTableRecord
100
AcDbLayerTableRecord
  2
Line254
 70
    0
 62
    7
  6
CONTINUOUS
  0
LAYER
  5
DDF
330
C9B
100
AcDbSymbolTableRecord
100
AcDbLayerTableRecord
  2
Line255
 70
    0
 62
    7
  6
CONTINUOUS
  0
LAYER
  5
DE0
330
C9B
100
AcDbSymbolTableRecord
100
AcDbLayerTableRecord
  2
Line256
 70
    0
 62
    7
  6
CONTINUOUS
  0
LAYER
  5
DE1
330
C9B
100
AcDbSymbolTableRecord
100
AcDbLayerTableRecord
  2
Line257
 70
    0
 62
    7
  6
CONTINUOUS
  0
LAYER
  5
DE2
330
C9B
100
AcDbSymbolTableRecord
100
AcDbLayerTableRecord
  2
Line258
 70
    0
 62
    7
  6
CONTINUOUS
  0
LAYER
  5
DE3
330
C9B
100
AcDbSymbolTableRecord
100
AcDbLayerTableRecord
  2
Arc176
 70
    0
 62
    7
  6
CONTINUOUS
  0
LAYER
  5
DE4
330
C9B
100
AcDbSymbolTableRecord
100
AcDbLayerTableRecord
  2
Arc177
 70
    0
 62
    7
  6
CONTINUOUS
  0
LAYER
  5
DE5
330
C9B
100
AcDbSymbolTableRecord
100
AcDbLayerTableRecord
  2
Arc178
 70
    0
 62
    7
  6
CONTINUOUS
  0
LAYER
  5
DE6
330
C9B
100
AcDbSymbolTableRecord
100
AcDbLayerTableRecord
  2
Arc179
 70
    0
 62
    7
  6
CONTINUOUS
  0
LAYER
  5
DE7
330
C9B
100
AcDbSymbolTableRecord
100
AcDbLayerTableRecord
  2
Arc180
 70
    0
 62
    7
  6
CONTINUOUS
  0
LAYER
  5
DE8
330
C9B
100
AcDbSymbolTableRecord
100
AcDbLayerTableRecord
  2
Line262
 70
    0
 62
    7
  6
CONTINUOUS
  0
LAYER
  5
DE9
330
C9B
100
AcDbSymbolTableRecord
100
AcDbLayerTableRecord
  2
Arc181
 70
    0
 62
    7
  6
CONTINUOUS
  0
LAYER
  5
DEA
330
C9B
100
AcDbSymbolTableRecord
100
AcDbLayerTableRecord
  2
Arc182
 70
    0
 62
    7
  6
CONTINUOUS
  0
LAYER
  5
DEB
330
C9B
100
AcDbSymbolTableRecord
100
AcDbLayerTableRecord
  2
Line263
 70
    0
 62
    7
  6
CONTINUOUS
  0
LAYER
  5
DEC
330
C9B
100
AcDbSymbolTableRecord
100
AcDbLayerTableRecord
  2
Line264
 70
    0
 62
    7
  6
CONTINUOUS
  0
LAYER
  5
DED
330
C9B
100
AcDbSymbolTableRecord
100
AcDbLayerTableRecord
  2
Line265
 70
    0
 62
    7
  6
CONTINUOUS
  0
LAYER
  5
DEE
330
C9B
100
AcDbSymbolTableRecord
100
AcDbLayerTableRecord
  2
Arc183
 70
    0
 62
    7
  6
CONTINUOUS
  0
LAYER
  5
DEF
330
C9B
100
AcDbSymbolTableRecord
100
AcDbLayerTableRecord
  2
Line267
 70
    0
 62
    7
  6
CONTINUOUS
  0
LAYER
  5
DF0
330
C9B
100
AcDbSymbolTableRecord
100
AcDbLayerTableRecord
  2
Arc184
 70
    0
 62
    7
  6
CONTINUOUS
  0
LAYER
  5
DF1
330
C9B
100
AcDbSymbolTableRecord
100
AcDbLayerTableRecord
  2
Line269
 70
    0
 62
    7
  6
CONTINUOUS
  0
LAYER
  5
DF2
330
C9B
100
AcDbSymbolTableRecord
100
AcDbLayerTableRecord
  2
Line270
 70
    0
 62
    7
  6
CONTINUOUS
  0
LAYER
  5
DF3
330
C9B
100
AcDbSymbolTableRecord
100
AcDbLayerTableRecord
  2
Arc185
 70
    0
 62
    7
  6
CONTINUOUS
  0
LAYER
  5
DF4
330
C9B
100
AcDbSymbolTableRecord
100
AcDbLayerTableRecord
  2
Arc186
 70
    0
 62
    7
  6
CONTINUOUS
  0
LAYER
  5
DF5
330
C9B
100
AcDbSymbolTableRecord
100
AcDbLayerTableRecord
  2
Line271
 70
    0
 62
    7
  6
CONTINUOUS
  0
LAYER
  5
DF6
330
C9B
100
AcDbSymbolTableRecord
100
AcDbLayerTableRecord
  2
Arc187
 70
    0
 62
    7
  6
CONTINUOUS
  0
LAYER
  5
DF7
330
C9B
100
AcDbSymbolTableRecord
100
AcDbLayerTableRecord
  2
Line273
 70
    0
 62
    7
  6
CONTINUOUS
  0
LAYER
  5
DF8
330
C9B
100
AcDbSymbolTableRecord
100
AcDbLayerTableRecord
  2
Line274
 70
    0
 62
    7
  6
CONTINUOUS
  0
LAYER
  5
DF9
330
C9B
100
AcDbSymbolTableRecord
100
AcDbLayerTableRecord
  2
Arc188
 70
    0
 62
    7
  6
CONTINUOUS
  0
LAYER
  5
DFA
330
C9B
100
AcDbSymbolTableRecord
100
AcDbLayerTableRecord
  2
Arc189
 70
    0
 62
    7
  6
CONTINUOUS
  0
LAYER
  5
DFB
330
C9B
100
AcDbSymbolTableRecord
100
AcDbLayerTableRecord
  2
Line277
 70
    0
 62
    7
  6
CONTINUOUS
  0
LAYER
  5
DFC
330
C9B
100
AcDbSymbolTableRecord
100
AcDbLayerTableRecord
  2
Arc190
 70
    0
 62
    7
  6
CONTINUOUS
  0
LAYER
  5
DFD
330
C9B
100
AcDbSymbolTableRecord
100
AcDbLayerTableRecord
  2
Line278
 70
    0
 62
    7
  6
CONTINUOUS
  0
LAYER
  5
DFE
330
C9B
100
AcDbSymbolTableRecord
100
AcDbLayerTableRecord
  2
Arc191
 70
    0
 62
    7
  6
CONTINUOUS
  0
LAYER
  5
DFF
330
C9B
100
AcDbSymbolTableRecord
100
AcDbLayerTableRecord
  2
Line279
 70
    0
 62
    7
  6
CONTINUOUS
  0
LAYER
  5
E00
330
C9B
100
AcDbSymbolTableRecord
100
AcDbLayerTableRecord
  2
Line280
 70
    0
 62
    7
  6
CONTINUOUS
  0
LAYER
  5
E01
330
C9B
100
AcDbSymbolTableRecord
100
AcDbLayerTableRecord
  2
Arc192
 70
    0
 62
    7
  6
CONTINUOUS
  0
LAYER
  5
E02
330
C9B
100
AcDbSymbolTableRecord
100
AcDbLayerTableRecord
  2
Line281
 70
    0
 62
    7
  6
CONTINUOUS
  0
LAYER
  5
E03
330
C9B
100
AcDbSymbolTableRecord
100
AcDbLayerTableRecord
  2
Line282
 70
    0
 62
    7
  6
CONTINUOUS
  0
LAYER
  5
E04
330
C9B
100
AcDbSymbolTableRecord
100
AcDbLayerTableRecord
  2
Arc193
 70
    0
 62
    7
  6
CONTINUOUS
  0
LAYER
  5
E05
330
C9B
100
AcDbSymbolTableRecord
100
AcDbLayerTableRecord
  2
Arc194
 70
    0
 62
    7
  6
CONTINUOUS
  0
LAYER
  5
E06
330
C9B
100
AcDbSymbolTableRecord
100
AcDbLayerTableRecord
  2
Arc195
 70
    0
 62
    7
  6
CONTINUOUS
  0
LAYER
  5
E07
330
C9B
100
AcDbSymbolTableRecord
100
AcDbLayerTableRecord
  2
Arc196
 70
    0
 62
    7
  6
CONTINUOUS
  0
LAYER
  5
E08
330
C9B
100
AcDbSymbolTableRecord
100
AcDbLayerTableRecord
  2
Line286
 70
    0
 62
    7
  6
CONTINUOUS
  0
LAYER
  5
E09
330
C9B
100
AcDbSymbolTableRecord
100
AcDbLayerTableRecord
  2
Arc197
 70
    0
 62
    7
  6
CONTINUOUS
  0
LAYER
  5
E0A
330
C9B
100
AcDbSymbolTableRecord
100
AcDbLayerTableRecord
  2
Line287
 70
    0
 62
    7
  6
CONTINUOUS
  0
LAYER
  5
E0B
330
C9B
100
AcDbSymbolTableRecord
100
AcDbLayerTableRecord
  2
Line288
 70
    0
 62
    7
  6
CONTINUOUS
  0
LAYER
  5
E0C
330
C9B
100
AcDbSymbolTableRecord
100
AcDbLayerTableRecord
  2
Arc198
 70
    0
 62
    7
  6
CONTINUOUS
  0
LAYER
  5
E0D
330
C9B
100
AcDbSymbolTableRecord
100
AcDbLayerTableRecord
  2
Line290
 70
    0
 62
    7
  6
CONTINUOUS
  0
LAYER
  5
E0E
330
C9B
100
AcDbSymbolTableRecord
100
AcDbLayerTableRecord
  2
Arc199
 70
    0
 62
    7
  6
CONTINUOUS
  0
LAYER
  5
E0F
330
C9B
100
AcDbSymbolTableRecord
100
AcDbLayerTableRecord
  2
Arc200
 70
    0
 62
    7
  6
CONTINUOUS
  0
LAYER
  5
E10
330
C9B
100
AcDbSymbolTableRecord
100
AcDbLayerTableRecord
  2
Line291
 70
    0
 62
    7
  6
CONTINUOUS
  0
LAYER
  5
E11
330
C9B
100
AcDbSymbolTableRecord
100
AcDbLayerTableRecord
  2
Arc201
 70
    0
 62
    7
  6
CONTINUOUS
  0
LAYER
  5
E12
330
C9B
100
AcDbSymbolTableRecord
100
AcDbLayerTableRecord
  2
Line292
 70
    0
 62
    7
  6
CONTINUOUS
  0
LAYER
  5
E13
330
C9B
100
AcDbSymbolTableRecord
100
AcDbLayerTableRecord
  2
Arc202
 70
    0
 62
    7
  6
CONTINUOUS
  0
LAYER
  5
E14
330
C9B
100
AcDbSymbolTableRecord
100
AcDbLayerTableRecord
  2
Line294
 70
    0
 62
    7
  6
CONTINUOUS
  0
LAYER
  5
E15
330
C9B
100
AcDbSymbolTableRecord
100
AcDbLayerTableRecord
  2
Arc203
 70
    0
 62
    7
  6
CONTINUOUS
  0
LAYER
  5
E16
330
C9B
100
AcDbSymbolTableRecord
100
AcDbLayerTableRecord
  2
Line295
 70
    0
 62
    7
  6
CONTINUOUS
  0
LAYER
  5
E17
330
C9B
100
AcDbSymbolTableRecord
100
AcDbLayerTableRecord
  2
Arc216
 70
    0
 62
    7
  6
CONTINUOUS
  0
LAYER
  5
E18
330
C9B
100
AcDbSymbolTableRecord
100
AcDbLayerTableRecord
  2
Line316
 70
    0
 62
    7
  6
CONTINUOUS
  0
LAYER
  5
E19
330
C9B
100
AcDbSymbolTableRecord
100
AcDbLayerTableRecord
  2
Arc217
 70
    0
 62
    7
  6
CONTINUOUS
  0
LAYER
  5
E1A
330
C9B
100
AcDbSymbolTableRecord
100
AcDbLayerTableRecord
  2
Line317
 70
    0
 62
    7
  6
CONTINUOUS
  0
LAYER
  5
E1B
330
C9B
100
AcDbSymbolTableRecord
100
AcDbLayerTableRecord
  2
Arc218
 70
    0
 62
    7
  6
CONTINUOUS
  0
LAYER
  5
E1C
330
C9B
100
AcDbSymbolTableRecord
100
AcDbLayerTableRecord
  2
Arc219
 70
    0
 62
    7
  6
CONTINUOUS
  0
LAYER
  5
E1D
330
C9B
100
AcDbSymbolTableRecord
100
AcDbLayerTableRecord
  2
Line318
 70
    0
 62
    7
  6
CONTINUOUS
  0
LAYER
  5
E1E
330
C9B
100
AcDbSymbolTableRecord
100
AcDbLayerTableRecord
  2
Line320
 70
    0
 62
    7
  6
CONTINUOUS
  0
LAYER
  5
E1F
330
C9B
100
AcDbSymbolTableRecord
100
AcDbLayerTableRecord
  2
Arc232
 70
    0
 62
    7
  6
CONTINUOUS
  0
LAYER
  5
E20
330
C9B
100
AcDbSymbolTableRecord
100
AcDbLayerTableRecord
  2
Line337
 70
    0
 62
    7
  6
CONTINUOUS
  0
LAYER
  5
E21
330
C9B
100
AcDbSymbolTableRecord
100
AcDbLayerTableRecord
  2
Arc233
 70
    0
 62
    7
  6
CONTINUOUS
  0
LAYER
  5
E22
330
C9B
100
AcDbSymbolTableRecord
100
AcDbLayerTableRecord
  2
Line338
 70
    0
 62
    7
  6
CONTINUOUS
  0
LAYER
  5
E23
330
C9B
100
AcDbSymbolTableRecord
100
AcDbLayerTableRecord
  2
Arc234
 70
    0
 62
    7
  6
CONTINUOUS
  0
LAYER
  5
E24
330
C9B
100
AcDbSymbolTableRecord
100
AcDbLayerTableRecord
  2
Arc235
 70
    0
 62
    7
  6
CONTINUOUS
  0
LAYER
  5
E25
330
C9B
100
AcDbSymbolTableRecord
100
AcDbLayerTableRecord
  2
Line339
 70
    0
 62
    7
  6
CONTINUOUS
  0
LAYER
  5
E26
330
C9B
100
AcDbSymbolTableRecord
100
AcDbLayerTableRecord
  2
Line340
 70
    0
 62
    7
  6
CONTINUOUS
  0
LAYER
  5
E27
330
C9B
100
AcDbSymbolTableRecord
100
AcDbLayerTableRecord
  2
Line341
 70
    0
 62
    7
  6
CONTINUOUS
  0
LAYER
  5
E28
330
C9B
100
AcDbSymbolTableRecord
100
AcDbLayerTableRecord
  2
Line342
 70
    0
 62
    7
  6
CONTINUOUS
  0
LAYER
  5
E29
330
C9B
100
AcDbSymbolTableRecord
100
AcDbLayerTableRecord
  2
Arc236
 70
    0
 62
    7
  6
CONTINUOUS
  0
LAYER
  5
E2A
330
C9B
100
AcDbSymbolTableRecord
100
AcDbLayerTableRecord
  2
Arc237
 70
    0
 62
    7
  6
CONTINUOUS
  0
LAYER
  5
E2B
330
C9B
100
AcDbSymbolTableRecord
100
AcDbLayerTableRecord
  2
Line344
 70
    0
 62
    7
  6
CONTINUOUS
  0
LAYER
  5
E2C
330
C9B
100
AcDbSymbolTableRecord
100
AcDbLayerTableRecord
  2
Line345
 70
    0
 62
    7
  6
CONTINUOUS
  0
LAYER
  5
E2D
330
C9B
100
AcDbSymbolTableRecord
100
AcDbLayerTableRecord
  2
Arc238
 70
    0
 62
    7
  6
CONTINUOUS
  0
LAYER
  5
E2E
330
C9B
100
AcDbSymbolTableRecord
100
AcDbLayerTableRecord
  2
Arc239
 70
    0
 62
    7
  6
CONTINUOUS
  0
LAYER
  5
E2F
330
C9B
100
AcDbSymbolTableRecord
100
AcDbLayerTableRecord
  2
Line347
 70
    0
 62
    7
  6
CONTINUOUS
  0
LAYER
  5
E30
330
C9B
100
AcDbSymbolTableRecord
100
AcDbLayerTableRecord
  2
Line348
 70
    0
 62
    7
  6
CONTINUOUS
  0
LAYER
  5
E31
330
C9B
100
AcDbSymbolTableRecord
100
AcDbLayerTableRecord
  2
Arc240
 70
    0
 62
    7
  6
CONTINUOUS
  0
LAYER
  5
E32
330
C9B
100
AcDbSymbolTableRecord
100
AcDbLayerTableRecord
  2
Arc241
 70
    0
 62
    7
  6
CONTINUOUS
  0
LAYER
  5
E33
330
C9B
100
AcDbSymbolTableRecord
100
AcDbLayerTableRecord
  2
Line350
 70
    0
 62
    7
  6
CONTINUOUS
  0
LAYER
  5
E34
330
C9B
100
AcDbSymbolTableRecord
100
AcDbLayerTableRecord
  2
Line351
 70
    0
 62
    7
  6
CONTINUOUS
  0
LAYER
  5
E35
330
C9B
100
AcDbSymbolTableRecord
100
AcDbLayerTableRecord
  2
Arc242
 70
    0
 62
    7
  6
CONTINUOUS
  0
LAYER
  5
E36
330
C9B
100
AcDbSymbolTableRecord
100
AcDbLayerTableRecord
  2
Arc243
 70
    0
 62
    7
  6
CONTINUOUS
  0
LAYER
  5
E37
330
C9B
100
AcDbSymbolTableRecord
100
AcDbLayerTableRecord
  2
Line353
 70
    0
 62
    7
  6
CONTINUOUS
  0
LAYER
  5
E38
330
C9B
100
AcDbSymbolTableRecord
100
AcDbLayerTableRecord
  2
Line354
 70
    0
 62
    7
  6
CONTINUOUS
  0
LAYER
  5
E39
330
C9B
100
AcDbSymbolTableRecord
100
AcDbLayerTableRecord
  2
Line357
 70
    0
 62
    7
  6
CONTINUOUS
  0
LAYER
  5
E3A
330
C9B
100
AcDbSymbolTableRecord
100
AcDbLayerTableRecord
  2
Arc244
 70
    0
 62
    7
  6
CONTINUOUS
  0
LAYER
  5
E3B
330
C9B
100
AcDbSymbolTableRecord
100
AcDbLayerTableRecord
  2
Arc245
 70
    0
 62
    7
  6
CONTINUOUS
  0
LAYER
  5
E3C
330
C9B
100
AcDbSymbolTableRecord
100
AcDbLayerTableRecord
  2
Arc246
 70
    0
 62
    7
  6
CONTINUOUS
  0
LAYER
  5
E3D
330
C9B
100
AcDbSymbolTableRecord
100
AcDbLayerTableRecord
  2
Arc247
 70
    0
 62
    7
  6
CONTINUOUS
  0
LAYER
  5
E3E
330
C9B
100
AcDbSymbolTableRecord
100
AcDbLayerTableRecord
  2
Line358
 70
    0
 62
    7
  6
CONTINUOUS
  0
LAYER
  5
E3F
330
C9B
100
AcDbSymbolTableRecord
100
AcDbLayerTableRecord
  2
Line360
 70
    0
 62
    7
  6
CONTINUOUS
  0
LAYER
  5
E40
330
C9B
100
AcDbSymbolTableRecord
100
AcDbLayerTableRecord
  2
Arc248
 70
    0
 62
    7
  6
CONTINUOUS
  0
LAYER
  5
E41
330
C9B
100
AcDbSymbolTableRecord
100
AcDbLayerTableRecord
  2
Arc249
 70
    0
 62
    7
  6
CONTINUOUS
  0
LAYER
  5
E42
330
C9B
100
AcDbSymbolTableRecord
100
AcDbLayerTableRecord
  2
Arc250
 70
    0
 62
    7
  6
CONTINUOUS
  0
LAYER
  5
E43
330
C9B
100
AcDbSymbolTableRecord
100
AcDbLayerTableRecord
  2
Line362
 70
    0
 62
    7
  6
CONTINUOUS
  0
LAYER
  5
E44
330
C9B
100
AcDbSymbolTableRecord
100
AcDbLayerTableRecord
  2
Line363
 70
    0
 62
    7
  6
CONTINUOUS
  0
LAYER
  5
E45
330
C9B
100
AcDbSymbolTableRecord
100
AcDbLayerTableRecord
  2
Line364
 70
    0
 62
    7
  6
CONTINUOUS
  0
LAYER
  5
E46
330
C9B
100
AcDbSymbolTableRecord
100
AcDbLayerTableRecord
  2
Arc251
 70
    0
 62
    7
  6
CONTINUOUS
  0
LAYER
  5
E47
330
C9B
100
AcDbSymbolTableRecord
100
AcDbLayerTableRecord
  2
Arc252
 70
    0
 62
    7
  6
CONTINUOUS
  0
LAYER
  5
E48
330
C9B
100
AcDbSymbolTableRecord
100
AcDbLayerTableRecord
  2
Line365
 70
    0
 62
    7
  6
CONTINUOUS
  0
LAYER
  5
E49
330
C9B
100
AcDbSymbolTableRecord
100
AcDbLayerTableRecord
  2
Arc253
 70
    0
 62
    7
  6
CONTINUOUS
  0
LAYER
  5
E4A
330
C9B
100
AcDbSymbolTableRecord
100
AcDbLayerTableRecord
  2
Line366
 70
    0
 62
    7
  6
CONTINUOUS
  0
LAYER
  5
E4B
330
C9B
100
AcDbSymbolTableRecord
100
AcDbLayerTableRecord
  2
Arc254
 70
    0
 62
    7
  6
CONTINUOUS
  0
LAYER
  5
E4C
330
C9B
100
AcDbSymbolTableRecord
100
AcDbLayerTableRecord
  2
Arc255
 70
    0
 62
    7
  6
CONTINUOUS
  0
LAYER
  5
E4D
330
C9B
100
AcDbSymbolTableRecord
100
AcDbLayerTableRecord
  2
Line368
 70
    0
 62
    7
  6
CONTINUOUS
  0
LAYER
  5
E4E
330
C9B
100
AcDbSymbolTableRecord
100
AcDbLayerTableRecord
  2
Line370
 70
    0
 62
    7
  6
CONTINUOUS
  0
LAYER
  5
E4F
330
C9B
100
AcDbSymbolTableRecord
100
AcDbLayerTableRecord
  2
Arc256
 70
    0
 62
    7
  6
CONTINUOUS
  0
LAYER
  5
E50
330
C9B
100
AcDbSymbolTableRecord
100
AcDbLayerTableRecord
  2
Arc257
 70
    0
 62
    7
  6
CONTINUOUS
  0
LAYER
  5
E51
330
C9B
100
AcDbSymbolTableRecord
100
AcDbLayerTableRecord
  2
Arc258
 70
    0
 62
    7
  6
CONTINUOUS
  0
LAYER
  5
E52
330
C9B
100
AcDbSymbolTableRecord
100
AcDbLayerTableRecord
  2
Arc259
 70
    0
 62
    7
  6
CONTINUOUS
  0
LAYER
  5
E53
330
C9B
100
AcDbSymbolTableRecord
100
AcDbLayerTableRecord
  2
Line372
 70
    0
 62
    7
  6
CONTINUOUS
  0
LAYER
  5
E54
330
C9B
100
AcDbSymbolTableRecord
100
AcDbLayerTableRecord
  2
Line373
 70
    0
 62
    7
  6
CONTINUOUS
  0
LAYER
  5
E55
330
C9B
100
AcDbSymbolTableRecord
100
AcDbLayerTableRecord
  2
Line374
 70
    0
 62
    7
  6
CONTINUOUS
  0
LAYER
  5
E56
330
C9B
100
AcDbSymbolTableRecord
100
AcDbLayerTableRecord
  2
Line376
 70
    0
 62
    7
  6
CONTINUOUS
  0
LAYER
  5
E57
330
C9B
100
AcDbSymbolTableRecord
100
AcDbLayerTableRecord
  2
Arc260
 70
    0
 62
    7
  6
CONTINUOUS
  0
LAYER
  5
E58
330
C9B
100
AcDbSymbolTableRecord
100
AcDbLayerTableRecord
  2
Line377
 70
    0
 62
    7
  6
CONTINUOUS
  0
LAYER
  5
E59
330
C9B
100
AcDbSymbolTableRecord
100
AcDbLayerTableRecord
  2
Line378
 70
    0
 62
    7
  6
CONTINUOUS
  0
LAYER
  5
E5A
330
C9B
100
AcDbSymbolTableRecord
100
AcDbLayerTableRecord
  2
Arc261
 70
    0
 62
    7
  6
CONTINUOUS
  0
LAYER
  5
E5B
330
C9B
100
AcDbSymbolTableRecord
100
AcDbLayerTableRecord
  2
Arc262
 70
    0
 62
    7
  6
CONTINUOUS
  0
LAYER
  5
E5C
330
C9B
100
AcDbSymbolTableRecord
100
AcDbLayerTableRecord
  2
Line381
 70
    0
 62
    7
  6
CONTINUOUS
  0
LAYER
  5
E5D
330
C9B
100
AcDbSymbolTableRecord
100
AcDbLayerTableRecord
  2
Arc263
 70
    0
 62
    7
  6
CONTINUOUS
  0
LAYER
  5
E5E
330
C9B
100
AcDbSymbolTableRecord
100
AcDbLayerTableRecord
  2
Line382
 70
    0
 62
    7
  6
CONTINUOUS
  0
LAYER
  5
E5F
330
C9B
100
AcDbSymbolTableRecord
100
AcDbLayerTableRecord
  2
Arc264
 70
    0
 62
    7
  6
CONTINUOUS
  0
LAYER
  5
E60
330
C9B
100
AcDbSymbolTableRecord
100
AcDbLayerTableRecord
  2
Line383
 70
    0
 62
    7
  6
CONTINUOUS
  0
LAYER
  5
E61
330
C9B
100
AcDbSymbolTableRecord
100
AcDbLayerTableRecord
  2
Arc265
 70
    0
 62
    7
  6
CONTINUOUS
  0
LAYER
  5
E62
330
C9B
100
AcDbSymbolTableRecord
100
AcDbLayerTableRecord
  2
Line386
 70
    0
 62
    7
  6
CONTINUOUS
  0
LAYER
  5
E63
330
C9B
100
AcDbSymbolTableRecord
100
AcDbLayerTableRecord
  2
Line387
 70
    0
 62
    7
  6
CONTINUOUS
  0
LAYER
  5
E64
330
C9B
100
AcDbSymbolTableRecord
100
AcDbLayerTableRecord
  2
Arc266
 70
    0
 62
    7
  6
CONTINUOUS
  0
LAYER
  5
E65
330
C9B
100
AcDbSymbolTableRecord
100
AcDbLayerTableRecord
  2
Arc267
 70
    0
 62
    7
  6
CONTINUOUS
  0
LAYER
  5
E66
330
C9B
100
AcDbSymbolTableRecord
100
AcDbLayerTableRecord
  2
Line388
 70
    0
 62
    7
  6
CONTINUOUS
  0
LAYER
  5
E67
330
C9B
100
AcDbSymbolTableRecord
100
AcDbLayerTableRecord
  2
Arc268
 70
    0
 62
    7
  6
CONTINUOUS
  0
LAYER
  5
E68
330
C9B
100
AcDbSymbolTableRecord
100
AcDbLayerTableRecord
  2
Line391
 70
    0
 62
    7
  6
CONTINUOUS
  0
LAYER
  5
E69
330
C9B
100
AcDbSymbolTableRecord
100
AcDbLayerTableRecord
  2
Arc269
 70
    0
 62
    7
  6
CONTINUOUS
  0
LAYER
  5
E6A
330
C9B
100
AcDbSymbolTableRecord
100
AcDbLayerTableRecord
  2
Line392
 70
    0
 62
    7
  6
CONTINUOUS
  0
LAYER
  5
E6B
330
C9B
100
AcDbSymbolTableRecord
100
AcDbLayerTableRecord
  2
Line393
 70
    0
 62
    7
  6
CONTINUOUS
  0
LAYER
  5
E6C
330
C9B
100
AcDbSymbolTableRecord
100
AcDbLayerTableRecord
  2
Arc270
 70
    0
 62
    7
  6
CONTINUOUS
  0
LAYER
  5
E6D
330
C9B
100
AcDbSymbolTableRecord
100
AcDbLayerTableRecord
  2
Line394
 70
    0
 62
    7
  6
CONTINUOUS
  0
LAYER
  5
E6E
330
C9B
100
AcDbSymbolTableRecord
100
AcDbLayerTableRecord
  2
Arc271
 70
    0
 62
    7
  6
CONTINUOUS
  0
LAYER
  5
E6F
330
C9B
100
AcDbSymbolTableRecord
100
AcDbLayerTableRecord
  2
Arc272
 70
    0
 62
    7
  6
CONTINUOUS
  0
LAYER
  5
E70
330
C9B
100
AcDbSymbolTableRecord
100
AcDbLayerTableRecord
  2
Line397
 70
    0
 62
    7
  6
CONTINUOUS
  0
LAYER
  5
E71
330
C9B
100
AcDbSymbolTableRecord
100
AcDbLayerTableRecord
  2
Arc273
 70
    0
 62
    7
  6
CONTINUOUS
  0
LAYER
  5
E72
330
C9B
100
AcDbSymbolTableRecord
100
AcDbLayerTableRecord
  2
Line398
 70
    0
 62
    7
  6
CONTINUOUS
  0
LAYER
  5
E73
330
C9B
100
AcDbSymbolTableRecord
100
AcDbLayerTableRecord
  2
Line399
 70
    0
 62
    7
  6
CONTINUOUS
  0
LAYER
  5
E74
330
C9B
100
AcDbSymbolTableRecord
100
AcDbLayerTableRecord
  2
Arc274
 70
    0
 62
    7
  6
CONTINUOUS
  0
LAYER
  5
E75
330
C9B
100
AcDbSymbolTableRecord
100
AcDbLayerTableRecord
  2
Line400
 70
    0
 62
    7
  6
CONTINUOUS
  0
LAYER
  5
E76
330
C9B
100
AcDbSymbolTableRecord
100
AcDbLayerTableRecord
  2
Arc275
 70
    0
 62
    7
  6
CONTINUOUS
  0
LAYER
  5
E77
330
C9B
100
AcDbSymbolTableRecord
100
AcDbLayerTableRecord
  2
Arc276
 70
    0
 62
    7
  6
CONTINUOUS
  0
LAYER
  5
E78
330
C9B
100
AcDbSymbolTableRecord
100
AcDbLayerTableRecord
  2
Line403
 70
    0
 62
    7
  6
CONTINUOUS
  0
LAYER
  5
E79
330
C9B
100
AcDbSymbolTableRecord
100
AcDbLayerTableRecord
  2
Arc277
 70
    0
 62
    7
  6
CONTINUOUS
  0
LAYER
  5
E7A
330
C9B
100
AcDbSymbolTableRecord
100
AcDbLayerTableRecord
  2
Line404
 70
    0
 62
    7
  6
CONTINUOUS
  0
LAYER
  5
E7B
330
C9B
100
AcDbSymbolTableRecord
100
AcDbLayerTableRecord
  2
Arc278
 70
    0
 62
    7
  6
CONTINUOUS
  0
LAYER
  5
E7C
330
C9B
100
AcDbSymbolTableRecord
100
AcDbLayerTableRecord
  2
Arc279
 70
    0
 62
    7
  6
CONTINUOUS
  0
LAYER
  5
E7D
330
C9B
100
AcDbSymbolTableRecord
100
AcDbLayerTableRecord
  2
Line405
 70
    0
 62
    7
  6
CONTINUOUS
  0
LAYER
  5
E7E
330
C9B
100
AcDbSymbolTableRecord
100
AcDbLayerTableRecord
  2
Line406
 70
    0
 62
    7
  6
CONTINUOUS
  0
LAYER
  5
E7F
330
C9B
100
AcDbSymbolTableRecord
100
AcDbLayerTableRecord
  2
Line408
 70
    0
 62
    7
  6
CONTINUOUS
  0
LAYER
  5
E80
330
C9B
100
AcDbSymbolTableRecord
100
AcDbLayerTableRecord
  2
Arc280
 70
    0
 62
    7
  6
CONTINUOUS
  0
LAYER
  5
E81
330
C9B
100
AcDbSymbolTableRecord
100
AcDbLayerTableRecord
  2
Arc281
 70
    0
 62
    7
  6
CONTINUOUS
  0
LAYER
  5
E82
330
C9B
100
AcDbSymbolTableRecord
100
AcDbLayerTableRecord
  2
Line409
 70
    0
 62
    7
  6
CONTINUOUS
  0
LAYER
  5
E83
330
C9B
100
AcDbSymbolTableRecord
100
AcDbLayerTableRecord
  2
Arc282
 70
    0
 62
    7
  6
CONTINUOUS
  0
LAYER
  5
E84
330
C9B
100
AcDbSymbolTableRecord
100
AcDbLayerTableRecord
  2
Line410
 70
    0
 62
    7
  6
CONTINUOUS
  0
LAYER
  5
E85
330
C9B
100
AcDbSymbolTableRecord
100
AcDbLayerTableRecord
  2
Line411
 70
    0
 62
    7
  6
CONTINUOUS
  0
LAYER
  5
E86
330
C9B
100
AcDbSymbolTableRecord
100
AcDbLayerTableRecord
  2
Arc283
 70
    0
 62
    7
  6
CONTINUOUS
  0
LAYER
  5
E87
330
C9B
100
AcDbSymbolTableRecord
100
AcDbLayerTableRecord
  2
Line462
 70
    0
 62
    7
  6
CONTINUOUS
  0
LAYER
  5
E88
330
C9B
100
AcDbSymbolTableRecord
100
AcDbLayerTableRecord
  2
Arc316
 70
    0
 62
    7
  6
CONTINUOUS
  0
LAYER
  5
E89
330
C9B
100
AcDbSymbolTableRecord
100
AcDbLayerTableRecord
  2
Arc317
 70
    0
 62
    7
  6
CONTINUOUS
  0
LAYER
  5
E8A
330
C9B
100
AcDbSymbolTableRecord
100
AcDbLayerTableRecord
  2
Line463
 70
    0
 62
    7
  6
CONTINUOUS
  0
LAYER
  5
E8B
330
C9B
100
AcDbSymbolTableRecord
100
AcDbLayerTableRecord
  2
Line464
 70
    0
 62
    7
  6
CONTINUOUS
  0
LAYER
  5
E8C
330
C9B
100
AcDbSymbolTableRecord
100
AcDbLayerTableRecord
  2
Arc318
 70
    0
 62
    7
  6
CONTINUOUS
  0
LAYER
  5
E8D
330
C9B
100
AcDbSymbolTableRecord
100
AcDbLayerTableRecord
  2
Line467
 70
    0
 62
    7
  6
CONTINUOUS
  0
LAYER
  5
E8E
330
C9B
100
AcDbSymbolTableRecord
100
AcDbLayerTableRecord
  2
Arc319
 70
    0
 62
    7
  6
CONTINUOUS
  0
LAYER
  5
E8F
330
C9B
100
AcDbSymbolTableRecord
100
AcDbLayerTableRecord
  2
Line468
 70
    0
 62
    7
  6
CONTINUOUS
  0
LAYER
  5
E90
330
C9B
100
AcDbSymbolTableRecord
100
AcDbLayerTableRecord
  2
Arc320
 70
    0
 62
    7
  6
CONTINUOUS
  0
LAYER
  5
E91
330
C9B
100
AcDbSymbolTableRecord
100
AcDbLayerTableRecord
  2
Arc321
 70
    0
 62
    7
  6
CONTINUOUS
  0
LAYER
  5
E92
330
C9B
100
AcDbSymbolTableRecord
100
AcDbLayerTableRecord
  2
Line469
 70
    0
 62
    7
  6
CONTINUOUS
  0
LAYER
  5
E93
330
C9B
100
AcDbSymbolTableRecord
100
AcDbLayerTableRecord
  2
Line470
 70
    0
 62
    7
  6
CONTINUOUS
  0
LAYER
  5
E94
330
C9B
100
AcDbSymbolTableRecord
100
AcDbLayerTableRecord
  2
Arc322
 70
    0
 62
    7
  6
CONTINUOUS
  0
LAYER
  5
E95
330
C9B
100
AcDbSymbolTableRecord
100
AcDbLayerTableRecord
  2
Line472
 70
    0
 62
    7
  6
CONTINUOUS
  0
LAYER
  5
E96
330
C9B
100
AcDbSymbolTableRecord
100
AcDbLayerTableRecord
  2
Arc323
 70
    0
 62
    7
  6
CONTINUOUS
  0
LAYER
  5
E97
330
C9B
100
AcDbSymbolTableRecord
100
AcDbLayerTableRecord
  2
Arc324
 70
    0
 62
    7
  6
CONTINUOUS
  0
LAYER
  5
E98
330
C9B
100
AcDbSymbolTableRecord
100
AcDbLayerTableRecord
  2
Line474
 70
    0
 62
    7
  6
CONTINUOUS
  0
LAYER
  5
E99
330
C9B
100
AcDbSymbolTableRecord
100
AcDbLayerTableRecord
  2
Line475
 70
    0
 62
    7
  6
CONTINUOUS
  0
LAYER
  5
E9A
330
C9B
100
AcDbSymbolTableRecord
100
AcDbLayerTableRecord
  2
Arc325
 70
    0
 62
    7
  6
CONTINUOUS
  0
LAYER
  5
E9B
330
C9B
100
AcDbSymbolTableRecord
100
AcDbLayerTableRecord
  2
Line476
 70
    0
 62
    7
  6
CONTINUOUS
  0
LAYER
  5
E9C
330
C9B
100
AcDbSymbolTableRecord
100
AcDbLayerTableRecord
  2
Arc326
 70
    0
 62
    7
  6
CONTINUOUS
  0
LAYER
  5
E9D
330
C9B
100
AcDbSymbolTableRecord
100
AcDbLayerTableRecord
  2
Arc327
 70
    0
 62
    7
  6
CONTINUOUS
  0
LAYER
  5
E9E
330
C9B
100
AcDbSymbolTableRecord
100
AcDbLayerTableRecord
  2
Line478
 70
    0
 62
    7
  6
CONTINUOUS
  0
LAYER
  5
E9F
330
C9B
100
AcDbSymbolTableRecord
100
AcDbLayerTableRecord
  2
Arc356
 70
    0
 62
    7
  6
CONTINUOUS
  0
LAYER
  5
EA0
330
C9B
100
AcDbSymbolTableRecord
100
AcDbLayerTableRecord
  2
Line520
 70
    0
 62
    7
  6
CONTINUOUS
  0
LAYER
  5
EA1
330
C9B
100
AcDbSymbolTableRecord
100
AcDbLayerTableRecord
  2
Line521
 70
    0
 62
    7
  6
CONTINUOUS
  0
LAYER
  5
EA2
330
C9B
100
AcDbSymbolTableRecord
100
AcDbLayerTableRecord
  2
Arc357
 70
    0
 62
    7
  6
CONTINUOUS
  0
LAYER
  5
EA3
330
C9B
100
AcDbSymbolTableRecord
100
AcDbLayerTableRecord
  2
Arc358
 70
    0
 62
    7
  6
CONTINUOUS
  0
LAYER
  5
EA4
330
C9B
100
AcDbSymbolTableRecord
100
AcDbLayerTableRecord
  2
Line522
 70
    0
 62
    7
  6
CONTINUOUS
  0
LAYER
  5
EA5
330
C9B
100
AcDbSymbolTableRecord
100
AcDbLayerTableRecord
  2
Arc359
 70
    0
 62
    7
  6
CONTINUOUS
  0
LAYER
  5
EA6
330
C9B
100
AcDbSymbolTableRecord
100
AcDbLayerTableRecord
  2
Line524
 70
    0
 62
    7
  6
CONTINUOUS
  0
LAYER
  5
EA7
330
C9B
100
AcDbSymbolTableRecord
100
AcDbLayerTableRecord
  2
Arc360
 70
    0
 62
    7
  6
CONTINUOUS
  0
LAYER
  5
EA8
330
C9B
100
AcDbSymbolTableRecord
100
AcDbLayerTableRecord
  2
Line527
 70
    0
 62
    7
  6
CONTINUOUS
  0
LAYER
  5
EA9
330
C9B
100
AcDbSymbolTableRecord
100
AcDbLayerTableRecord
  2
Arc361
 70
    0
 62
    7
  6
CONTINUOUS
  0
LAYER
  5
EAA
330
C9B
100
AcDbSymbolTableRecord
100
AcDbLayerTableRecord
  2
Line528
 70
    0
 62
    7
  6
CONTINUOUS
  0
LAYER
  5
EAB
330
C9B
100
AcDbSymbolTableRecord
100
AcDbLayerTableRecord
  2
Arc362
 70
    0
 62
    7
  6
CONTINUOUS
  0
LAYER
  5
EAC
330
C9B
100
AcDbSymbolTableRecord
100
AcDbLayerTableRecord
  2
Arc363
 70
    0
 62
    7
  6
CONTINUOUS
  0
LAYER
  5
EAD
330
C9B
100
AcDbSymbolTableRecord
100
AcDbLayerTableRecord
  2
Line529
 70
    0
 62
    7
  6
CONTINUOUS
  0
LAYER
  5
EAE
330
C9B
100
AcDbSymbolTableRecord
100
AcDbLayerTableRecord
  2
Line530
 70
    0
 62
    7
  6
CONTINUOUS
  0
LAYER
  5
EAF
330
C9B
100
AcDbSymbolTableRecord
100
AcDbLayerTableRecord
  2
Arc364
 70
    0
 62
    7
  6
CONTINUOUS
  0
LAYER
  5
EB0
330
C9B
100
AcDbSymbolTableRecord
100
AcDbLayerTableRecord
  2
Line533
 70
    0
 62
    7
  6
CONTINUOUS
  0
LAYER
  5
EB1
330
C9B
100
AcDbSymbolTableRecord
100
AcDbLayerTableRecord
  2
Arc365
 70
    0
 62
    7
  6
CONTINUOUS
  0
LAYER
  5
EB2
330
C9B
100
AcDbSymbolTableRecord
100
AcDbLayerTableRecord
  2
Line534
 70
    0
 62
    7
  6
CONTINUOUS
  0
LAYER
  5
EB3
330
C9B
100
AcDbSymbolTableRecord
100
AcDbLayerTableRecord
  2
Arc366
 70
    0
 62
    7
  6
CONTINUOUS
  0
LAYER
  5
EB4
330
C9B
100
AcDbSymbolTableRecord
100
AcDbLayerTableRecord
  2
Arc367
 70
    0
 62
    7
  6
CONTINUOUS
  0
LAYER
  5
EB5
330
C9B
100
AcDbSymbolTableRecord
100
AcDbLayerTableRecord
  2
Line535
 70
    0
 62
    7
  6
CONTINUOUS
  0
LAYER
  5
EB6
330
C9B
100
AcDbSymbolTableRecord
100
AcDbLayerTableRecord
  2
Line536
 70
    0
 62
    7
  6
CONTINUOUS
  0
LAYER
  5
EB7
330
C9B
100
AcDbSymbolTableRecord
100
AcDbLayerTableRecord
  2
Arc368
 70
    0
 62
    7
  6
CONTINUOUS
  0
LAYER
  5
EB8
330
C9B
100
AcDbSymbolTableRecord
100
AcDbLayerTableRecord
  2
Arc369
 70
    0
 62
    7
  6
CONTINUOUS
  0
LAYER
  5
EB9
330
C9B
100
AcDbSymbolTableRecord
100
AcDbLayerTableRecord
  2
Line537
 70
    0
 62
    7
  6
CONTINUOUS
  0
LAYER
  5
EBA
330
C9B
100
AcDbSymbolTableRecord
100
AcDbLayerTableRecord
  2
Line538
 70
    0
 62
    7
  6
CONTINUOUS
  0
LAYER
  5
EBB
330
C9B
100
AcDbSymbolTableRecord
100
AcDbLayerTableRecord
  2
Arc370
 70
    0
 62
    7
  6
CONTINUOUS
  0
LAYER
  5
EBC
330
C9B
100
AcDbSymbolTableRecord
100
AcDbLayerTableRecord
  2
Arc371
 70
    0
 62
    7
  6
CONTINUOUS
  0
LAYER
  5
EBD
330
C9B
100
AcDbSymbolTableRecord
100
AcDbLayerTableRecord
  2
Arc372
 70
    0
 62
    7
  6
CONTINUOUS
  0
LAYER
  5
EBE
330
C9B
100
AcDbSymbolTableRecord
100
AcDbLayerTableRecord
  2
Line541
 70
    0
 62
    7
  6
CONTINUOUS
  0
LAYER
  5
EBF
330
C9B
100
AcDbSymbolTableRecord
100
AcDbLayerTableRecord
  2
Arc373
 70
    0
 62
    7
  6
CONTINUOUS
  0
LAYER
  5
EC0
330
C9B
100
AcDbSymbolTableRecord
100
AcDbLayerTableRecord
  2
Arc374
 70
    0
 62
    7
  6
CONTINUOUS
  0
LAYER
  5
EC1
330
C9B
100
AcDbSymbolTableRecord
100
AcDbLayerTableRecord
  2
Line542
 70
    0
 62
    7
  6
CONTINUOUS
  0
LAYER
  5
EC2
330
C9B
100
AcDbSymbolTableRecord
100
AcDbLayerTableRecord
  2
Line543
 70
    0
 62
    7
  6
CONTINUOUS
  0
LAYER
  5
EC3
330
C9B
100
AcDbSymbolTableRecord
100
AcDbLayerTableRecord
  2
Arc375
 70
    0
 62
    7
  6
CONTINUOUS
  0
LAYER
  5
EC4
330
C9B
100
AcDbSymbolTableRecord
100
AcDbLayerTableRecord
  2
Arc376
 70
    0
 62
    7
  6
CONTINUOUS
  0
LAYER
  5
EC5
330
C9B
100
AcDbSymbolTableRecord
100
AcDbLayerTableRecord
  2
Arc377
 70
    0
 62
    7
  6
CONTINUOUS
  0
LAYER
  5
EC6
330
C9B
100
AcDbSymbolTableRecord
100
AcDbLayerTableRecord
  2
Arc378
 70
    0
 62
    7
  6
CONTINUOUS
  0
LAYER
  5
EC7
330
C9B
100
AcDbSymbolTableRecord
100
AcDbLayerTableRecord
  2
Line544
 70
    0
 62
    7
  6
CONTINUOUS
  0
LAYER
  5
EC8
330
C9B
100
AcDbSymbolTableRecord
100
AcDbLayerTableRecord
  2
Line545
 70
    0
 62
    7
  6
CONTINUOUS
  0
LAYER
  5
EC9
330
C9B
100
AcDbSymbolTableRecord
100
AcDbLayerTableRecord
  2
Line546
 70
    0
 62
    7
  6
CONTINUOUS
  0
LAYER
  5
ECA
330
C9B
100
AcDbSymbolTableRecord
100
AcDbLayerTableRecord
  2
Arc379
 70
    0
 62
    7
  6
CONTINUOUS
  0
LAYER
  5
ECB
330
C9B
100
AcDbSymbolTableRecord
100
AcDbLayerTableRecord
  2
Line547
 70
    0
 62
    7
  6
CONTINUOUS
  0
LAYER
  5
ECC
330
C9B
100
AcDbSymbolTableRecord
100
AcDbLayerTableRecord
  2
Line548
 70
    0
 62
    7
  6
CONTINUOUS
  0
LAYER
  5
ECD
330
C9B
100
AcDbSymbolTableRecord
100
AcDbLayerTableRecord
  2
Line549
 70
    0
 62
    7
  6
CONTINUOUS
  0
LAYER
  5
ECE
330
C9B
100
AcDbSymbolTableRecord
100
AcDbLayerTableRecord
  2
Line550
 70
    0
 62
    7
  6
CONTINUOUS
  0
LAYER
  5
ECF
330
C9B
100
AcDbSymbolTableRecord
100
AcDbLayerTableRecord
  2
Line553
 70
    0
 62
    7
  6
CONTINUOUS
  0
LAYER
  5
ED0
330
C9B
100
AcDbSymbolTableRecord
100
AcDbLayerTableRecord
  2
Line554
 70
    0
 62
    7
  6
CONTINUOUS
  0
LAYER
  5
ED1
330
C9B
100
AcDbSymbolTableRecord
100
AcDbLayerTableRecord
  2
Line555
 70
    0
 62
    7
  6
CONTINUOUS
  0
LAYER
  5
ED2
330
C9B
100
AcDbSymbolTableRecord
100
AcDbLayerTableRecord
  2
Line556
 70
    0
 62
    7
  6
CONTINUOUS
  0
LAYER
  5
ED3
330
C9B
100
AcDbSymbolTableRecord
100
AcDbLayerTableRecord
  2
Line557
 70
    0
 62
    7
  6
CONTINUOUS
  0
LAYER
  5
ED4
330
C9B
100
AcDbSymbolTableRecord
100
AcDbLayerTableRecord
  2
Line558
 70
    0
 62
    7
  6
CONTINUOUS
  0
LAYER
  5
ED5
330
C9B
100
AcDbSymbolTableRecord
100
AcDbLayerTableRecord
  2
Line559
 70
    0
 62
    7
  6
CONTINUOUS
  0
LAYER
  5
ED6
330
C9B
100
AcDbSymbolTableRecord
100
AcDbLayerTableRecord
  2
Line560
 70
    0
 62
    7
  6
CONTINUOUS
  0
LAYER
  5
ED7
330
C9B
100
AcDbSymbolTableRecord
100
AcDbLayerTableRecord
  2
Arc380
 70
    0
 62
    7
  6
CONTINUOUS
  0
LAYER
  5
ED8
330
C9B
100
AcDbSymbolTableRecord
100
AcDbLayerTableRecord
  2
Arc382
 70
    0
 62
    7
  6
CONTINUOUS
  0
LAYER
  5
ED9
330
C9B
100
AcDbSymbolTableRecord
100
AcDbLayerTableRecord
  2
Line564
 70
    0
 62
    7
  6
CONTINUOUS
  0
LAYER
  5
EDA
330
C9B
100
AcDbSymbolTableRecord
100
AcDbLayerTableRecord
  2
Line565
 70
    0
 62
    7
  6
CONTINUOUS
  0
LAYER
  5
EDB
330
C9B
100
AcDbSymbolTableRecord
100
AcDbLayerTableRecord
  2
Line566
 70
    0
 62
    7
  6
CONTINUOUS
  0
LAYER
  5
EDC
330
C9B
100
AcDbSymbolTableRecord
100
AcDbLayerTableRecord
  2
Line692
 70
    0
 62
    7
  6
CONTINUOUS
  0
LAYER
  5
EDD
330
C9B
100
AcDbSymbolTableRecord
100
AcDbLayerTableRecord
  2
Arc488
 70
    0
 62
    7
  6
CONTINUOUS
  0
LAYER
  5
EDE
330
C9B
100
AcDbSymbolTableRecord
100
AcDbLayerTableRecord
  2
Arc490
 70
    0
 62
    7
  6
CONTINUOUS
  0
LAYER
  5
EDF
330
C9B
100
AcDbSymbolTableRecord
100
AcDbLayerTableRecord
  2
Line696
 70
    0
 62
    7
  6
CONTINUOUS
  0
LAYER
  5
EE0
330
C9B
100
AcDbSymbolTableRecord
100
AcDbLayerTableRecord
  2
Arc493
 70
    0
 62
    7
  6
CONTINUOUS
  0
LAYER
  5
EE1
330
C9B
100
AcDbSymbolTableRecord
100
AcDbLayerTableRecord
  2
Line698
 70
    0
 62
    7
  6
CONTINUOUS
  0
LAYER
  5
EE2
330
C9B
100
AcDbSymbolTableRecord
100
AcDbLayerTableRecord
  2
Arc503
 70
    0
 62
    7
  6
CONTINUOUS
  0
LAYER
  5
EE3
330
C9B
100
AcDbSymbolTableRecord
100
AcDbLayerTableRecord
  2
Line708
 70
    0
 62
    7
  6
CONTINUOUS
  0
LAYER
  5
EE4
330
C9B
100
AcDbSymbolTableRecord
100
AcDbLayerTableRecord
  2
Line715
 70
    0
 62
    7
  6
CONTINUOUS
  0
LAYER
  5
EE5
330
C9B
100
AcDbSymbolTableRecord
100
AcDbLayerTableRecord
  2
Arc508
 70
    0
 62
    7
  6
CONTINUOUS
  0
LAYER
  5
EE6
330
C9B
100
AcDbSymbolTableRecord
100
AcDbLayerTableRecord
  2
Arc509
 70
    0
 62
    7
  6
CONTINUOUS
  0
LAYER
  5
EE7
330
C9B
100
AcDbSymbolTableRecord
100
AcDbLayerTableRecord
  2
Arc511
 70
    0
 62
    7
  6
CONTINUOUS
  0
LAYER
  5
EE8
330
C9B
100
AcDbSymbolTableRecord
100
AcDbLayerTableRecord
  2
Arc512
 70
    0
 62
    7
  6
CONTINUOUS
  0
LAYER
  5
EE9
330
C9B
100
AcDbSymbolTableRecord
100
AcDbLayerTableRecord
  2
Arc513
 70
    0
 62
    7
  6
CONTINUOUS
  0
LAYER
  5
EEA
330
C9B
100
AcDbSymbolTableRecord
100
AcDbLayerTableRecord
  2
Line722
 70
    0
 62
    7
  6
CONTINUOUS
  0
LAYER
  5
EEB
330
C9B
100
AcDbSymbolTableRecord
100
AcDbLayerTableRecord
  2
Arc515
 70
    0
 62
    7
  6
CONTINUOUS
  0
LAYER
  5
EEC
330
C9B
100
AcDbSymbolTableRecord
100
AcDbLayerTableRecord
  2
Arc516
 70
    0
 62
    7
  6
CONTINUOUS
  0
LAYER
  5
EED
330
C9B
100
AcDbSymbolTableRecord
100
AcDbLayerTableRecord
  2
Line724
 70
    0
 62
    7
  6
CONTINUOUS
  0
LAYER
  5
EEE
330
C9B
100
AcDbSymbolTableRecord
100
AcDbLayerTableRecord
  2
Arc519
 70
    0
 62
    7
  6
CONTINUOUS
  0
LAYER
  5
EEF
330
C9B
100
AcDbSymbolTableRecord
100
AcDbLayerTableRecord
  2
Arc521
 70
    0
 62
    7
  6
CONTINUOUS
  0
LAYER
  5
EF0
330
C9B
100
AcDbSymbolTableRecord
100
AcDbLayerTableRecord
  2
Arc522
 70
    0
 62
    7
  6
CONTINUOUS
  0
LAYER
  5
EF1
330
C9B
100
AcDbSymbolTableRecord
100
AcDbLayerTableRecord
  2
Arc523
 70
    0
 62
    7
  6
CONTINUOUS
  0
LAYER
  5
EF2
330
C9B
100
AcDbSymbolTableRecord
100
AcDbLayerTableRecord
  2
Line732
 70
    0
 62
    7
  6
CONTINUOUS
  0
LAYER
  5
EF3
330
C9B
100
AcDbSymbolTableRecord
100
AcDbLayerTableRecord
  2
Arc524
 70
    0
 62
    7
  6
CONTINUOUS
  0
LAYER
  5
EF4
330
C9B
100
AcDbSymbolTableRecord
100
AcDbLayerTableRecord
  2
Arc526
 70
    0
 62
    7
  6
CONTINUOUS
  0
LAYER
  5
EF5
330
C9B
100
AcDbSymbolTableRecord
100
AcDbLayerTableRecord
  2
Arc527
 70
    0
 62
    7
  6
CONTINUOUS
  0
LAYER
  5
EF6
330
C9B
100
AcDbSymbolTableRecord
100
AcDbLayerTableRecord
  2
Arc531
 70
    0
 62
    7
  6
CONTINUOUS
  0
LAYER
  5
EF7
330
C9B
100
AcDbSymbolTableRecord
100
AcDbLayerTableRecord
  2
Line743
 70
    0
 62
    7
  6
CONTINUOUS
  0
LAYER
  5
EF8
330
C9B
100
AcDbSymbolTableRecord
100
AcDbLayerTableRecord
  2
Line745
 70
    0
 62
    7
  6
CONTINUOUS
  0
LAYER
  5
EF9
330
C9B
100
AcDbSymbolTableRecord
100
AcDbLayerTableRecord
  2
Arc537
 70
    0
 62
    7
  6
CONTINUOUS
  0
LAYER
  5
EFA
330
C9B
100
AcDbSymbolTableRecord
100
AcDbLayerTableRecord
  2
Arc538
 70
    0
 62
    7
  6
CONTINUOUS
  0
LAYER
  5
EFB
330
C9B
100
AcDbSymbolTableRecord
100
AcDbLayerTableRecord
  2
Line746
 70
    0
 62
    7
  6
CONTINUOUS
  0
LAYER
  5
EFC
330
C9B
100
AcDbSymbolTableRecord
100
AcDbLayerTableRecord
  2
Line748
 70
    0
 62
    7
  6
CONTINUOUS
  0
LAYER
  5
EFD
330
C9B
100
AcDbSymbolTableRecord
100
AcDbLayerTableRecord
  2
Arc539
 70
    0
 62
    7
  6
CONTINUOUS
  0
LAYER
  5
EFE
330
C9B
100
AcDbSymbolTableRecord
100
AcDbLayerTableRecord
  2
Arc540
 70
    0
 62
    7
  6
CONTINUOUS
  0
LAYER
  5
EFF
330
C9B
100
AcDbSymbolTableRecord
100
AcDbLayerTableRecord
  2
Line751
 70
    0
 62
    7
  6
CONTINUOUS
  0
LAYER
  5
F00
330
C9B
100
AcDbSymbolTableRecord
100
AcDbLayerTableRecord
  2
Arc543
 70
    0
 62
    7
  6
CONTINUOUS
  0
LAYER
  5
F01
330
C9B
100
AcDbSymbolTableRecord
100
AcDbLayerTableRecord
  2
Arc544
 70
    0
 62
    7
  6
CONTINUOUS
  0
LAYER
  5
F02
330
C9B
100
AcDbSymbolTableRecord
100
AcDbLayerTableRecord
  2
Arc545
 70
    0
 62
    7
  6
CONTINUOUS
  0
LAYER
  5
F03
330
C9B
100
AcDbSymbolTableRecord
100
AcDbLayerTableRecord
  2
Arc547
 70
    0
 62
    7
  6
CONTINUOUS
  0
LAYER
  5
F04
330
C9B
100
AcDbSymbolTableRecord
100
AcDbLayerTableRecord
  2
Line756
 70
    0
 62
    7
  6
CONTINUOUS
  0
LAYER
  5
F05
330
C9B
100
AcDbSymbolTableRecord
100
AcDbLayerTableRecord
  2
Arc552
 70
    0
 62
    7
  6
CONTINUOUS
  0
LAYER
  5
F06
330
C9B
100
AcDbSymbolTableRecord
100
AcDbLayerTableRecord
  2
Line757
 70
    0
 62
    7
  6
CONTINUOUS
  0
LAYER
  5
F07
330
C9B
100
AcDbSymbolTableRecord
100
AcDbLayerTableRecord
  2
Arc554
 70
    0
 62
    7
  6
CONTINUOUS
  0
LAYER
  5
F08
330
C9B
100
AcDbSymbolTableRecord
100
AcDbLayerTableRecord
  2
Line762
 70
    0
 62
    7
  6
CONTINUOUS
  0
LAYER
  5
F09
330
C9B
100
AcDbSymbolTableRecord
100
AcDbLayerTableRecord
  2
Arc556
 70
    0
 62
    7
  6
CONTINUOUS
  0
LAYER
  5
F0A
330
C9B
100
AcDbSymbolTableRecord
100
AcDbLayerTableRecord
  2
Arc557
 70
    0
 62
    7
  6
CONTINUOUS
  0
LAYER
  5
F0B
330
C9B
100
AcDbSymbolTableRecord
100
AcDbLayerTableRecord
  2
Arc558
 70
    0
 62
    7
  6
CONTINUOUS
  0
LAYER
  5
F0C
330
C9B
100
AcDbSymbolTableRecord
100
AcDbLayerTableRecord
  2
Line765
 70
    0
 62
    7
  6
CONTINUOUS
  0
LAYER
  5
F0D
330
C9B
100
AcDbSymbolTableRecord
100
AcDbLayerTableRecord
  2
Arc559
 70
    0
 62
    7
  6
CONTINUOUS
  0
LAYER
  5
F0E
330
C9B
100
AcDbSymbolTableRecord
100
AcDbLayerTableRecord
  2
Line767
 70
    0
 62
    7
  6
CONTINUOUS
  0
LAYER
  5
F0F
330
C9B
100
AcDbSymbolTableRecord
100
AcDbLayerTableRecord
  2
Arc561
 70
    0
 62
    7
  6
CONTINUOUS
  0
LAYER
  5
F10
330
C9B
100
AcDbSymbolTableRecord
100
AcDbLayerTableRecord
  2
Arc562
 70
    0
 62
    7
  6
CONTINUOUS
  0
LAYER
  5
F11
330
C9B
100
AcDbSymbolTableRecord
100
AcDbLayerTableRecord
  2
Line768
 70
    0
 62
    7
  6
CONTINUOUS
  0
LAYER
  5
F12
330
C9B
100
AcDbSymbolTableRecord
100
AcDbLayerTableRecord
  2
Arc565
 70
    0
 62
    7
  6
CONTINUOUS
  0
LAYER
  5
F13
330
C9B
100
AcDbSymbolTableRecord
100
AcDbLayerTableRecord
  2
Arc566
 70
    0
 62
    7
  6
CONTINUOUS
  0
LAYER
  5
F14
330
C9B
100
AcDbSymbolTableRecord
100
AcDbLayerTableRecord
  2
Arc567
 70
    0
 62
    7
  6
CONTINUOUS
  0
LAYER
  5
F15
330
C9B
100
AcDbSymbolTableRecord
100
AcDbLayerTableRecord
  2
Line774
 70
    0
 62
    7
  6
CONTINUOUS
  0
LAYER
  5
F16
330
C9B
100
AcDbSymbolTableRecord
100
AcDbLayerTableRecord
  2
Line775
 70
    0
 62
    7
  6
CONTINUOUS
  0
LAYER
  5
F17
330
C9B
100
AcDbSymbolTableRecord
100
AcDbLayerTableRecord
  2
Arc569
 70
    0
 62
    7
  6
CONTINUOUS
  0
LAYER
  5
F18
330
C9B
100
AcDbSymbolTableRecord
100
AcDbLayerTableRecord
  2
Arc570
 70
    0
 62
    7
  6
CONTINUOUS
  0
LAYER
  5
F19
330
C9B
100
AcDbSymbolTableRecord
100
AcDbLayerTableRecord
  2
Arc571
 70
    0
 62
    7
  6
CONTINUOUS
  0
LAYER
  5
F1A
330
C9B
100
AcDbSymbolTableRecord
100
AcDbLayerTableRecord
  2
Line777
 70
    0
 62
    7
  6
CONTINUOUS
  0
LAYER
  5
F1B
330
C9B
100
AcDbSymbolTableRecord
100
AcDbLayerTableRecord
  2
Arc573
 70
    0
 62
    7
  6
CONTINUOUS
  0
LAYER
  5
F1C
330
C9B
100
AcDbSymbolTableRecord
100
AcDbLayerTableRecord
  2
Line778
 70
    0
 62
    7
  6
CONTINUOUS
  0
LAYER
  5
F1D
330
C9B
100
AcDbSymbolTableRecord
100
AcDbLayerTableRecord
  2
Line779
 70
    0
 62
    7
  6
CONTINUOUS
  0
LAYER
  5
F1E
330
C9B
100
AcDbSymbolTableRecord
100
AcDbLayerTableRecord
  2
Line780
 70
    0
 62
    7
  6
CONTINUOUS
  0
LAYER
  5
F1F
330
C9B
100
AcDbSymbolTableRecord
100
AcDbLayerTableRecord
  2
Line781
 70
    0
 62
    7
  6
CONTINUOUS
  0
LAYER
  5
F20
330
C9B
100
AcDbSymbolTableRecord
100
AcDbLayerTableRecord
  2
Line782
 70
    0
 62
    7
  6
CONTINUOUS
  0
LAYER
  5
F21
330
C9B
100
AcDbSymbolTableRecord
100
AcDbLayerTableRecord
  2
Line783
 70
    0
 62
    7
  6
CONTINUOUS
  0
LAYER
  5
F22
330
C9B
100
AcDbSymbolTableRecord
100
AcDbLayerTableRecord
  2
Line784
 70
    0
 62
    7
  6
CONTINUOUS
  0
LAYER
  5
F23
330
C9B
100
AcDbSymbolTableRecord
100
AcDbLayerTableRecord
  2
Line785
 70
    0
 62
    7
  6
CONTINUOUS
  0
LAYER
  5
F24
330
C9B
100
AcDbSymbolTableRecord
100
AcDbLayerTableRecord
  2
Line786
 70
    0
 62
    7
  6
CONTINUOUS
  0
LAYER
  5
F25
330
C9B
100
AcDbSymbolTableRecord
100
AcDbLayerTableRecord
  2
Line787
 70
    0
 62
    7
  6
CONTINUOUS
  0
LAYER
  5
F26
330
C9B
100
AcDbSymbolTableRecord
100
AcDbLayerTableRecord
  2
Line788
 70
    0
 62
    7
  6
CONTINUOUS
  0
LAYER
  5
F27
330
C9B
100
AcDbSymbolTableRecord
100
AcDbLayerTableRecord
  2
Line789
 70
    0
 62
    7
  6
CONTINUOUS
  0
LAYER
  5
F28
330
C9B
100
AcDbSymbolTableRecord
100
AcDbLayerTableRecord
  2
Line790
 70
    0
 62
    7
  6
CONTINUOUS
  0
LAYER
  5
F29
330
C9B
100
AcDbSymbolTableRecord
100
AcDbLayerTableRecord
  2
Line791
 70
    0
 62
    7
  6
CONTINUOUS
  0
LAYER
  5
F2A
330
C9B
100
AcDbSymbolTableRecord
100
AcDbLayerTableRecord
  2
Line792
 70
    0
 62
    7
  6
CONTINUOUS
  0
LAYER
  5
F2B
330
C9B
100
AcDbSymbolTableRecord
100
AcDbLayerTableRecord
  2
Line793
 70
    0
 62
    7
  6
CONTINUOUS
  0
LAYER
  5
F2C
330
C9B
100
AcDbSymbolTableRecord
100
AcDbLayerTableRecord
  2
Line794
 70
    0
 62
    7
  6
CONTINUOUS
  0
LAYER
  5
F2D
330
C9B
100
AcDbSymbolTableRecord
100
AcDbLayerTableRecord
  2
Line795
 70
    0
 62
    7
  6
CONTINUOUS
  0
LAYER
  5
F2E
330
C9B
100
AcDbSymbolTableRecord
100
AcDbLayerTableRecord
  2
Arc560
 70
    0
 62
    7
  6
CONTINUOUS
  0
LAYER
  5
F2F
330
C9B
100
AcDbSymbolTableRecord
100
AcDbLayerTableRecord
  2
Line796
 70
    0
 62
    7
  6
CONTINUOUS
  0
LAYER
  5
F30
330
C9B
100
AcDbSymbolTableRecord
100
AcDbLayerTableRecord
  2
Line797
 70
    0
 62
    7
  6
CONTINUOUS
  0
ENDTAB
  0
TABLE
  2
STYLE
  5
70
330
0
100
AcDbSymbolTable
 70
     2
  0
STYLE
  5
71
330
70
100
AcDbSymbolTableRecord
100
AcDbTextStyleTableRecord
  2
STANDARD
 70
     0
 40
0.0
 41
1.0
 50
0.0
 71
     0
 42
2.5
  3
arial.ttf
  4

  0
STYLE
  5
72
330
70
100
AcDbSymbolTableRecord
100
AcDbTextStyleTableRecord
  2
ANNOTATIVE
 70
     0
 40
0.0
 41
1.0
 50
0.0
 71
     0
 42
2.5
  3
arial.ttf
  4

  0
ENDTAB
  0
TABLE
  2
VIEW
  5
73
330
0
100
AcDbSymbolTable
 70
     0
  0
ENDTAB
  0
TABLE
  2
UCS
  5
74
330
0
100
AcDbSymbolTable
 70
     0
  0
ENDTAB
  0
TABLE
  2
APPID
  5
75
330
0
100
AcDbSymbolTable
 70
     2
  0
APPID
  5
76
330
75
100
AcDbSymbolTableRecord
100
AcDbRegAppTableRecord
  2
ACAD
 70
     0
  0
APPID
  5
77
330
75
100
AcDbSymbolTableRecord
100
AcDbRegAppTableRecord
  2
ACADANNOTATIVE
 70
     0
  0
ENDTAB
  0
TABLE
  2
DIMSTYLE
  5
78
330
0
100
AcDbSymbolTable
 70
     2
  0
DIMSTYLE
105
79
330
78
100
AcDbSymbolTableRecord
100
AcDbDimStyleTableRecord
  2
STANDARD
 70
     0
  3

  4

  5

  6

  7

 40
0.0
 41
2.5
 42
0.625
 43
3.75
 44
1.25
 45
0.0
 46
0.0
 47
0.0
 48
0.0
140
2.5
141
2.5
142
0.0
143
0.03937007874016
144
1.0
145
0.0
146
1.0
147
0.625
 71
     0
 72
     0
 73
     0
 74
     0
 75
     0
 76
     0
 77
     1
 78
     8
170
     0
171
     3
172
     1
173
     0
174
     0
175
     0
176
     0
177
     0
178
     0
270
     2
271
     2
272
     2
273
     2
274
     3
340
71
275
     0
280
     0
281
     0
282
     0
283
     0
284
     8
285
     0
286
     0
287
     3
288
     0
  0
ENDTAB
  0
TABLE
  2
BLOCK_RECORD
  5
A01
330
0
100
AcDbSymbolTable
  70
5
  0
BLOCK_RECORD
  5
A02
330
A01
100
AcDbSymbolTableRecord
100
AcDbBlockTableRecord
  2
*MODEL_SPACE
  0
BLOCK_RECORD
  5
A03
330
A01
100
AcDbSymbolTableRecord
100
AcDbBlockTableRecord
  2
*PAPER_SPACE
  0
ENDTAB
  0
ENDSEC
  0
SECTION
  2
BLOCKS
  0
BLOCK
  5
A04
330
A02
100
AcDbEntity
  8
0
100
AcDbBlockBegin
  2
*MODEL_SPACE
 70
   0
 10
0
 20
0
 30
0
  3
*MODEL_SPACE
  1
 
  0
ENDBLK
  5
A05
330
A02
100
AcDbEntity
  8
0
100
AcDbBlockEnd
  0
BLOCK
  5
A06
330
A03
100
AcDbEntity
 67
1
  8
0
100
AcDbBlockBegin
  2
*PAPER_SPACE
 70
   0
 10
0
 20
0
 30
0
  3
*PAPER_SPACE
  1
 
  0
ENDBLK
  5
A07
330
A03
100
AcDbEntity
 67
    1
  8
0
100
AcDbBlockEnd
  0
ENDSEC
  0
SECTION
  2
ENTITIES
  0
CIRCLE
  5
A08
330
A02
100
AcDbEntity
  8
Circle
100
AcDbCircle
 10
280.275
 20
-98.275
 40
1.65
  0
CIRCLE
  5
A09
330
A02
100
AcDbEntity
  8
Circle001
100
AcDbCircle
 10
24.575
 20
-98.275
 40
1.65
  0
CIRCLE
  5
A0A
330
A02
100
AcDbEntity
  8
Circle002
100
AcDbCircle
 10
152.425
 20
-98.275
 40
1.65
  0
CIRCLE
  5
A0B
330
A02
100
AcDbEntity
  8
Circle003
100
AcDbCircle
 10
152.525
 20
5.275
 40
1.65
  0
CIRCLE
  5
A0C
330
A02
100
AcDbEntity
  8
Circle004
100
AcDbCircle
 10
263.025
 20
5.275
 40
1.65
  0
CIRCLE
  5
A0D
330
A02
100
AcDbEntity
  8
Circle005
100
AcDbCircle
 10
274.325
 20
5.775
 40
1.65
  0
CIRCLE
  5
A0E
330
A02
100
AcDbEntity
  8
Circle006
100
AcDbCircle
 10
42.025
 20
5.275
 40
1.65
  0
CIRCLE
  5
A0F
330
A02
100
AcDbEntity
  8
Circle007
100
AcDbCircle
 10
30.525
 20
5.775
 40
1.65
  0
ARC
  5
A10
330
A02
100
AcDbEntity
  8
Arc
100
AcDbCircle
 10
2.475
 20
6.025
 30
0
 40
2.5
100
AcDbArc
 50
90
 51
180
  0
LINE
  5
A11
330
A02
100
AcDbEntity
  8
Line
100
AcDbLine
 10
2.475
 20
8.525
 30
0
 11
12.475
 21
8.525
 31
0
  0
LINE
  5
A12
330
A02
100
AcDbEntity
  8
Line001
100
AcDbLine
 10
12.475
 20
8.525
 30
0
 11
12.475
 21
0.225
 31
0
  0
ARC
  5
A13
330
A02
100
AcDbEntity
  8
Arc001
100
AcDbCircle
 10
13.475
 20
0.225
 30
0
 40
1
100
AcDbArc
 50
180
 51
-90
  0
LINE
  5
A14
330
A02
100
AcDbEntity
  8
Line002
100
AcDbLine
 10
13.475
 20
-0.775
 30
0
 11
24.525
 21
-0.775
 31
0
  0
ARC
  5
A15
330
A02
100
AcDbEntity
  8
Arc002
100
AcDbCircle
 10
24.525
 20
0.225
 30
0
 40
1
100
AcDbArc
 50
-90
 51
-1.43125e-14
  0
LINE
  5
A16
330
A02
100
AcDbEntity
  8
Line003
100
AcDbLine
 10
25.525
 20
8.525
 30
0
 11
25.525
 21
0.225
 31
0
  0
LINE
  5
A17
330
A02
100
AcDbEntity
  8
Line004
100
AcDbLine
 10
25.525
 20
8.525
 30
0
 11
277.925
 21
8.525
 31
0
  0
ARC
  5
A18
330
A02
100
AcDbEntity
  8
Arc003
100
AcDbCircle
 10
277.925
 20
6.025
 30
0
 40
2.5
100
AcDbArc
 50
0
 51
90
  0
LINE
  5
A19
330
A02
100
AcDbEntity
  8
Line005
100
AcDbLine
 10
280.425
 20
6.025
 30
0
 11
280.425
 21
4.475
 31
0
  0
ARC
  5
A1A
330
A02
100
AcDbEntity
  8
Arc004
100
AcDbCircle
 10
282.925
 20
4.475
 30
0
 40
2.5
100
AcDbArc
 50
180
 51
-90
  0
LINE
  5
A1B
330
A02
100
AcDbEntity
  8
Line006
100
AcDbLine
 10
282.925
 20
1.975
 30
0
 11
302.325
 21
1.975
 31
0
  0
ARC
  5
A1C
330
A02
100
AcDbEntity
  8
Arc005
100
AcDbCircle
 10
302.325
 20
-0.525
 30
0
 40
2.5
100
AcDbArc
 50
0
 51
90
  0
LINE
  5
A1D
330
A02
100
AcDbEntity
  8
Line007
100
AcDbLine
 10
304.825
 20
-0.525
 30
0
 11
304.825
 21
-92.775
 31
0
  0
ARC
  5
A1E
330
A02
100
AcDbEntity
  8
Arc006
100
AcDbCircle
 10
302.325
 20
-92.775
 30
0
 40
2.5
100
AcDbArc
 50
-90
 51
0
  0
LINE
  5
A1F
330
A02
100
AcDbEntity
  8
Line008
100
AcDbLine
 10
302.325
 20
-95.275
 30
0
 11
287.775
 21
-95.275
 31
0
  0
ARC
  5
A20
330
A02
100
AcDbEntity
  8
Arc007
100
AcDbCircle
 10
287.775
 20
-97.775
 30
0
 40
2.5
100
AcDbArc
 50
90
 51
180
  0
LINE
  5
A21
330
A02
100
AcDbEntity
  8
Line009
100
AcDbLine
 10
285.275
 20
-97.775
 30
0
 11
285.275
 21
-98.775
 31
0
  0
ARC
  5
A22
330
A02
100
AcDbEntity
  8
Arc008
100
AcDbCircle
 10
282.775
 20
-98.775
 30
0
 40
2.5
100
AcDbArc
 50
-90
 51
0
  0
LINE
  5
A23
330
A02
100
AcDbEntity
  8
Line010
100
AcDbLine
 10
277.775
 20
-101.275
 30
0
 11
282.775
 21
-101.275
 31
0
  0
ARC
  5
A24
330
A02
100
AcDbEntity
  8
Arc009
100
AcDbCircle
 10
277.775
 20
-98.775
 30
0
 40
2.5
100
AcDbArc
 50
180
 51
-90
  0
LINE
  5
A25
330
A02
100
AcDbEntity
  8
Line011
100
AcDbLine
 10
275.275
 20
-98.775
 30
0
 11
275.275
 21
-97.775
 31
0
  0
ARC
  5
A26
330
A02
100
AcDbEntity
  8
Arc010
100
AcDbCircle
 10
272.775
 20
-97.775
 30
0
 40
2.5
100
AcDbArc
 50
0
 51
90
  0
LINE
  5
A27
330
A02
100
AcDbEntity
  8
Line012
100
AcDbLine
 10
272.775
 20
-95.275
 30
0
 11
159.925
 21
-95.275
 31
0
  0
LINE
  5
A28
330
A02
100
AcDbEntity
  8
Line013
100
AcDbLine
 10
149.925
 20
-101.275
 30
0
 11
154.925
 21
-101.275
 31
0
  0
ARC
  5
A29
330
A02
100
AcDbEntity
  8
Arc011
100
AcDbCircle
 10
154.925
 20
-98.775
 30
0
 40
2.5
100
AcDbArc
 50
-90
 51
0
  0
LINE
  5
A2A
330
A02
100
AcDbEntity
  8
Line014
100
AcDbLine
 10
157.425
 20
-97.775
 30
0
 11
157.425
 21
-98.775
 31
0
  0
ARC
  5
A2B
330
A02
100
AcDbEntity
  8
Arc012
100
AcDbCircle
 10
144.925
 20
-97.775
 30
0
 40
2.5
100
AcDbArc
 50
0
 51
90
  0
ARC
  5
A2C
330
A02
100
AcDbEntity
  8
Arc013
100
AcDbCircle
 10
159.925
 20
-97.775
 30
0
 40
2.5
100
AcDbArc
 50
90
 51
180
  0
LINE
  5
A2D
330
A02
100
AcDbEntity
  8
Line015
100
AcDbLine
 10
147.425
 20
-98.775
 30
0
 11
147.425
 21
-97.775
 31
0
  0
ARC
  5
A2E
330
A02
100
AcDbEntity
  8
Arc014
100
AcDbCircle
 10
149.925
 20
-98.775
 30
0
 40
2.5
100
AcDbArc
 50
180
 51
-90
  0
LINE
  5
A2F
330
A02
100
AcDbEntity
  8
Line016
100
AcDbLine
 10
144.925
 20
-95.275
 30
0
 11
32.075
 21
-95.275
 31
0
  0
ARC
  5
A30
330
A02
100
AcDbEntity
  8
Arc015
100
AcDbCircle
 10
27.075
 20
-98.775
 30
0
 40
2.5
100
AcDbArc
 50
-90
 51
0
  0
ARC
  5
A31
330
A02
100
AcDbEntity
  8
Arc016
100
AcDbCircle
 10
17.075
 20
-97.775
 30
0
 40
2.5
100
AcDbArc
 50
0
 51
90
  0
ARC
  5
A32
330
A02
100
AcDbEntity
  8
Arc017
100
AcDbCircle
 10
22.075
 20
-98.775
 30
0
 40
2.5
100
AcDbArc
 50
180
 51
-90
  0
LINE
  5
A33
330
A02
100
AcDbEntity
  8
Line017
100
AcDbLine
 10
19.575
 20
-98.775
 30
0
 11
19.575
 21
-97.775
 31
0
  0
LINE
  5
A34
330
A02
100
AcDbEntity
  8
Line018
100
AcDbLine
 10
29.575
 20
-97.775
 30
0
 11
29.575
 21
-98.775
 31
0
  0
ARC
  5
A35
330
A02
100
AcDbEntity
  8
Arc018
100
AcDbCircle
 10
32.075
 20
-97.775
 30
0
 40
2.5
100
AcDbArc
 50
90
 51
180
  0
LINE
  5
A36
330
A02
100
AcDbEntity
  8
Line019
100
AcDbLine
 10
22.075
 20
-101.275
 30
0
 11
27.075
 21
-101.275
 31
0
  0
LINE
  5
A37
330
A02
100
AcDbEntity
  8
Line020
100
AcDbLine
 10
17.075
 20
-95.275
 30
0
 11
2.475
 21
-95.275
 31
0
  0
ARC
  5
A38
330
A02
100
AcDbEntity
  8
Arc019
100
AcDbCircle
 10
2.475
 20
-92.775
 30
0
 40
2.5
100
AcDbArc
 50
180
 51
-90
  0
LINE
  5
A39
330
A02
100
AcDbEntity
  8
Line021
100
AcDbLine
 10
-0.025
 20
-92.775
 30
0
 11
-0.025
 21
6.025
 31
0
  0
ARC
  5
A3A
330
A02
100
AcDbEntity
  8
Arc020
100
AcDbCircle
 10
3.275
 20
-3.275
 30
0
 40
0.75
100
AcDbArc
 50
90
 51
180
  0
ARC
  5
A3B
330
A02
100
AcDbEntity
  8
Arc021
100
AcDbCircle
 10
15.775
 20
-3.275
 30
0
 40
0.75
100
AcDbArc
 50
3.39259e-14
 51
90
  0
ARC
  5
A3C
330
A02
100
AcDbEntity
  8
Arc022
100
AcDbCircle
 10
3.275
 20
-15.775
 30
0
 40
0.75
100
AcDbArc
 50
180
 51
-90
  0
ARC
  5
A3D
330
A02
100
AcDbEntity
  8
Arc023
100
AcDbCircle
 10
15.775
 20
-15.775
 30
0
 40
0.75
100
AcDbArc
 50
-90
 51
0
  0
LINE
  5
A3E
330
A02
100
AcDbEntity
  8
Line026
100
AcDbLine
 10
15.775
 20
-2.525
 30
0
 11
3.275
 21
-2.525
 31
0
  0
LINE
  5
A3F
330
A02
100
AcDbEntity
  8
Line027
100
AcDbLine
 10
2.525
 20
-3.275
 30
0
 11
2.525
 21
-15.775
 31
0
  0
LINE
  5
A40
330
A02
100
AcDbEntity
  8
Line028
100
AcDbLine
 10
3.275
 20
-16.525
 30
0
 11
15.775
 21
-16.525
 31
0
  0
LINE
  5
A41
330
A02
100
AcDbEntity
  8
Line029
100
AcDbLine
 10
16.525
 20
-15.775
 30
0
 11
16.525
 21
-3.275
 31
0
  0
ARC
  5
A42
330
A02
100
AcDbEntity
  8
Arc024
100
AcDbCircle
 10
34.825
 20
-15.775
 30
0
 40
0.75
100
AcDbArc
 50
-90
 51
0
  0
LINE
  5
A43
330
A02
100
AcDbEntity
  8
Line032
100
AcDbLine
 10
21.575
 20
-3.275
 30
0
 11
21.575
 21
-15.775
 31
0
  0
ARC
  5
A44
330
A02
100
AcDbEntity
  8
Arc025
100
AcDbCircle
 10
22.325
 20
-3.275
 30
0
 40
0.75
100
AcDbArc
 50
90
 51
180
  0
LINE
  5
A45
330
A02
100
AcDbEntity
  8
Line033
100
AcDbLine
 10
22.325
 20
-16.525
 30
0
 11
34.825
 21
-16.525
 31
0
  0
ARC
  5
A46
330
A02
100
AcDbEntity
  8
Arc026
100
AcDbCircle
 10
34.825
 20
-3.275
 30
0
 40
0.75
100
AcDbArc
 50
3.39259e-14
 51
90
  0
ARC
  5
A47
330
A02
100
AcDbEntity
  8
Arc027
100
AcDbCircle
 10
22.325
 20
-15.775
 30
0
 40
0.75
100
AcDbArc
 50
180
 51
-90
  0
LINE
  5
A48
330
A02
100
AcDbEntity
  8
Line034
100
AcDbLine
 10
35.575
 20
-15.775
 30
0
 11
35.575
 21
-3.275
 31
0
  0
LINE
  5
A49
330
A02
100
AcDbEntity
  8
Line035
100
AcDbLine
 10
34.825
 20
-2.525
 30
0
 11
22.325
 21
-2.525
 31
0
  0
LINE
  5
A4A
330
A02
100
AcDbEntity
  8
Line036
100
AcDbLine
 10
40.625
 20
-3.275
 30
0
 11
40.625
 21
-15.775
 31
0
  0
ARC
  5
A4B
330
A02
100
AcDbEntity
  8
Arc028
100
AcDbCircle
 10
53.875
 20
-15.775
 30
0
 40
0.75
100
AcDbArc
 50
-90
 51
0
  0
LINE
  5
A4C
330
A02
100
AcDbEntity
  8
Line037
100
AcDbLine
 10
54.625
 20
-15.775
 30
0
 11
54.625
 21
-3.275
 31
0
  0
LINE
  5
A4D
330
A02
100
AcDbEntity
  8
Line038
100
AcDbLine
 10
41.375
 20
-16.525
 30
0
 11
53.875
 21
-16.525
 31
0
  0
ARC
  5
A4E
330
A02
100
AcDbEntity
  8
Arc029
100
AcDbCircle
 10
41.375
 20
-3.275
 30
0
 40
0.75
100
AcDbArc
 50
90
 51
180
  0
ARC
  5
A4F
330
A02
100
AcDbEntity
  8
Arc030
100
AcDbCircle
 10
53.875
 20
-3.275
 30
0
 40
0.75
100
AcDbArc
 50
3.39259e-14
 51
90
  0
ARC
  5
A50
330
A02
100
AcDbEntity
  8
Arc031
100
AcDbCircle
 10
41.375
 20
-15.775
 30
0
 40
0.75
100
AcDbArc
 50
180
 51
-90
  0
LINE
  5
A51
330
A02
100
AcDbEntity
  8
Line041
100
AcDbLine
 10
53.875
 20
-2.525
 30
0
 11
41.375
 21
-2.525
 31
0
  0
LINE
  5
A52
330
A02
100
AcDbEntity
  8
Line042
100
AcDbLine
 10
59.675
 20
-3.275
 30
0
 11
59.675
 21
-15.775
 31
0
  0
ARC
  5
A53
330
A02
100
AcDbEntity
  8
Arc032
100
AcDbCircle
 10
72.925
 20
-3.275
 30
0
 40
0.75
100
AcDbArc
 50
3.39259e-14
 51
90
  0
LINE
  5
A54
330
A02
100
AcDbEntity
  8
Line044
100
AcDbLine
 10
72.925
 20
-2.525
 30
0
 11
60.425
 21
-2.525
 31
0
  0
ARC
  5
A55
330
A02
100
AcDbEntity
  8
Arc033
100
AcDbCircle
 10
72.925
 20
-15.775
 30
0
 40
0.75
100
AcDbArc
 50
-90
 51
0
  0
LINE
  5
A56
330
A02
100
AcDbEntity
  8
Line045
100
AcDbLine
 10
73.675
 20
-15.775
 30
0
 11
73.675
 21
-3.275
 31
0
  0
LINE
  5
A57
330
A02
100
AcDbEntity
  8
Line046
100
AcDbLine
 10
60.425
 20
-16.525
 30
0
 11
72.925
 21
-16.525
 31
0
  0
ARC
  5
A58
330
A02
100
AcDbEntity
  8
Arc034
100
AcDbCircle
 10
60.425
 20
-3.275
 30
0
 40
0.75
100
AcDbArc
 50
90
 51
180
  0
ARC
  5
A59
330
A02
100
AcDbEntity
  8
Arc035
100
AcDbCircle
 10
60.425
 20
-15.775
 30
0
 40
0.75
100
AcDbArc
 50
180
 51
-90
  0
ARC
  5
A5A
330
A02
100
AcDbEntity
  8
Arc036
100
AcDbCircle
 10
91.975
 20
-3.275
 30
0
 40
0.75
100
AcDbArc
 50
3.39259e-14
 51
90
  0
LINE
  5
A5B
330
A02
100
AcDbEntity
  8
Line050
100
AcDbLine
 10
91.975
 20
-2.525
 30
0
 11
79.475
 21
-2.525
 31
0
  0
ARC
  5
A5C
330
A02
100
AcDbEntity
  8
Arc037
100
AcDbCircle
 10
79.475
 20
-3.275
 30
0
 40
0.75
100
AcDbArc
 50
90
 51
180
  0
LINE
  5
A5D
330
A02
100
AcDbEntity
  8
Line051
100
AcDbLine
 10
78.725
 20
-3.275
 30
0
 11
78.725
 21
-15.775
 31
0
  0
ARC
  5
A5E
330
A02
100
AcDbEntity
  8
Arc038
100
AcDbCircle
 10
79.475
 20
-15.775
 30
0
 40
0.75
100
AcDbArc
 50
180
 51
-90
  0
LINE
  5
A5F
330
A02
100
AcDbEntity
  8
Line052
100
AcDbLine
 10
79.475
 20
-16.525
 30
0
 11
91.975
 21
-16.525
 31
0
  0
LINE
  5
A60
330
A02
100
AcDbEntity
  8
Line053
100
AcDbLine
 10
92.725
 20
-15.775
 30
0
 11
92.725
 21
-3.275
 31
0
  0
ARC
  5
A61
330
A02
100
AcDbEntity
  8
Arc039
100
AcDbCircle
 10
91.975
 20
-15.775
 30
0
 40
0.75
100
AcDbArc
 50
-90
 51
0
  0
ARC
  5
A62
330
A02
100
AcDbEntity
  8
Arc040
100
AcDbCircle
 10
98.525
 20
-15.775
 30
0
 40
0.75
100
AcDbArc
 50
180
 51
-90
  0
ARC
  5
A63
330
A02
100
AcDbEntity
  8
Arc041
100
AcDbCircle
 10
111.025
 20
-15.775
 30
0
 40
0.75
100
AcDbArc
 50
-90
 51
0
  0
ARC
  5
A64
330
A02
100
AcDbEntity
  8
Arc042
100
AcDbCircle
 10
111.025
 20
-3.275
 30
0
 40
0.75
100
AcDbArc
 50
3.39259e-14
 51
90
  0
LINE
  5
A65
330
A02
100
AcDbEntity
  8
Line055
100
AcDbLine
 10
98.525
 20
-16.525
 30
0
 11
111.025
 21
-16.525
 31
0
  0
LINE
  5
A66
330
A02
100
AcDbEntity
  8
Line056
100
AcDbLine
 10
111.025
 20
-2.525
 30
0
 11
98.525
 21
-2.525
 31
0
  0
LINE
  5
A67
330
A02
100
AcDbEntity
  8
Line057
100
AcDbLine
 10
111.775
 20
-15.775
 30
0
 11
111.775
 21
-3.275
 31
0
  0
LINE
  5
A68
330
A02
100
AcDbEntity
  8
Line059
100
AcDbLine
 10
97.775
 20
-3.275
 30
0
 11
97.775
 21
-15.775
 31
0
  0
ARC
  5
A69
330
A02
100
AcDbEntity
  8
Arc043
100
AcDbCircle
 10
98.525
 20
-3.275
 30
0
 40
0.75
100
AcDbArc
 50
90
 51
180
  0
ARC
  5
A6A
330
A02
100
AcDbEntity
  8
Arc044
100
AcDbCircle
 10
130.075
 20
-3.275
 30
0
 40
0.75
100
AcDbArc
 50
3.39259e-14
 51
90
  0
LINE
  5
A6B
330
A02
100
AcDbEntity
  8
Line060
100
AcDbLine
 10
130.825
 20
-15.775
 30
0
 11
130.825
 21
-3.275
 31
0
  0
LINE
  5
A6C
330
A02
100
AcDbEntity
  8
Line062
100
AcDbLine
 10
117.575
 20
-16.525
 30
0
 11
130.075
 21
-16.525
 31
0
  0
ARC
  5
A6D
330
A02
100
AcDbEntity
  8
Arc045
100
AcDbCircle
 10
117.575
 20
-15.775
 30
0
 40
0.75
100
AcDbArc
 50
180
 51
-90
  0
ARC
  5
A6E
330
A02
100
AcDbEntity
  8
Arc046
100
AcDbCircle
 10
117.575
 20
-3.275
 30
0
 40
0.75
100
AcDbArc
 50
90
 51
180
  0
LINE
  5
A6F
330
A02
100
AcDbEntity
  8
Line063
100
AcDbLine
 10
116.825
 20
-3.275
 30
0
 11
116.825
 21
-15.775
 31
0
  0
ARC
  5
A70
330
A02
100
AcDbEntity
  8
Arc047
100
AcDbCircle
 10
130.075
 20
-15.775
 30
0
 40
0.75
100
AcDbArc
 50
-90
 51
0
  0
LINE
  5
A71
330
A02
100
AcDbEntity
  8
Line064
100
AcDbLine
 10
130.075
 20
-2.525
 30
0
 11
117.575
 21
-2.525
 31
0
  0
LINE
  5
A72
330
A02
100
AcDbEntity
  8
Line066
100
AcDbLine
 10
149.875
 20
-15.775
 30
0
 11
149.875
 21
-3.275
 31
0
  0
LINE
  5
A73
330
A02
100
AcDbEntity
  8
Line067
100
AcDbLine
 10
135.875
 20
-3.275
 30
0
 11
135.875
 21
-15.775
 31
0
  0
ARC
  5
A74
330
A02
100
AcDbEntity
  8
Arc048
100
AcDbCircle
 10
149.125
 20
-3.275
 30
0
 40
0.75
100
AcDbArc
 50
3.39259e-14
 51
90
  0
LINE
  5
A75
330
A02
100
AcDbEntity
  8
Line068
100
AcDbLine
 10
136.625
 20
-16.525
 30
0
 11
149.125
 21
-16.525
 31
0
  0
ARC
  5
A76
330
A02
100
AcDbEntity
  8
Arc049
100
AcDbCircle
 10
136.625
 20
-3.275
 30
0
 40
0.75
100
AcDbArc
 50
90
 51
180
  0
ARC
  5
A77
330
A02
100
AcDbEntity
  8
Arc050
100
AcDbCircle
 10
136.625
 20
-15.775
 30
0
 40
0.75
100
AcDbArc
 50
180
 51
-90
  0
ARC
  5
A78
330
A02
100
AcDbEntity
  8
Arc051
100
AcDbCircle
 10
149.125
 20
-15.775
 30
0
 40
0.75
100
AcDbArc
 50
-90
 51
0
  0
LINE
  5
A79
330
A02
100
AcDbEntity
  8
Line070
100
AcDbLine
 10
149.125
 20
-2.525
 30
0
 11
136.625
 21
-2.525
 31
0
  0
ARC
  5
A7A
330
A02
100
AcDbEntity
  8
Arc052
100
AcDbCircle
 10
155.675
 20
-15.775
 30
0
 40
0.75
100
AcDbArc
 50
180
 51
-90
  0
LINE
  5
A7B
330
A02
100
AcDbEntity
  8
Line073
100
AcDbLine
 10
154.925
 20
-3.275
 30
0
 11
154.925
 21
-15.775
 31
0
  0
ARC
  5
A7C
330
A02
100
AcDbEntity
  8
Arc053
100
AcDbCircle
 10
168.175
 20
-3.275
 30
0
 40
0.75
100
AcDbArc
 50
3.39259e-14
 51
90
  0
LINE
  5
A7D
330
A02
100
AcDbEntity
  8
Line074
100
AcDbLine
 10
155.675
 20
-16.525
 30
0
 11
168.175
 21
-16.525
 31
0
  0
LINE
  5
A7E
330
A02
100
AcDbEntity
  8
Line075
100
AcDbLine
 10
168.925
 20
-15.775
 30
0
 11
168.925
 21
-3.275
 31
0
  0
ARC
  5
A7F
330
A02
100
AcDbEntity
  8
Arc054
100
AcDbCircle
 10
155.675
 20
-3.275
 30
0
 40
0.75
100
AcDbArc
 50
90
 51
180
  0
ARC
  5
A80
330
A02
100
AcDbEntity
  8
Arc055
100
AcDbCircle
 10
168.175
 20
-15.775
 30
0
 40
0.75
100
AcDbArc
 50
-90
 51
0
  0
LINE
  5
A81
330
A02
100
AcDbEntity
  8
Line077
100
AcDbLine
 10
168.175
 20
-2.525
 30
0
 11
155.675
 21
-2.525
 31
0
  0
LINE
  5
A82
330
A02
100
AcDbEntity
  8
Line078
100
AcDbLine
 10
187.975
 20
-15.775
 30
0
 11
187.975
 21
-3.275
 31
0
  0
ARC
  5
A83
330
A02
100
AcDbEntity
  8
Arc056
100
AcDbCircle
 10
174.725
 20
-15.775
 30
0
 40
0.75
100
AcDbArc
 50
180
 51
-90
  0
LINE
  5
A84
330
A02
100
AcDbEntity
  8
Line079
100
AcDbLine
 10
174.725
 20
-16.525
 30
0
 11
187.225
 21
-16.525
 31
0
  0
ARC
  5
A85
330
A02
100
AcDbEntity
  8
Arc057
100
AcDbCircle
 10
187.225
 20
-3.275
 30
0
 40
0.75
100
AcDbArc
 50
3.39259e-14
 51
90
  0
LINE
  5
A86
330
A02
100
AcDbEntity
  8
Line082
100
AcDbLine
 10
173.975
 20
-3.275
 30
0
 11
173.975
 21
-15.775
 31
0
  0
ARC
  5
A87
330
A02
100
AcDbEntity
  8
Arc058
100
AcDbCircle
 10
174.725
 20
-3.275
 30
0
 40
0.75
100
AcDbArc
 50
90
 51
180
  0
ARC
  5
A88
330
A02
100
AcDbEntity
  8
Arc059
100
AcDbCircle
 10
187.225
 20
-15.775
 30
0
 40
0.75
100
AcDbArc
 50
-90
 51
0
  0
LINE
  5
A89
330
A02
100
AcDbEntity
  8
Line083
100
AcDbLine
 10
187.225
 20
-2.525
 30
0
 11
174.725
 21
-2.525
 31
0
  0
ARC
  5
A8A
330
A02
100
AcDbEntity
  8
Arc060
100
AcDbCircle
 10
193.775
 20
-15.775
 30
0
 40
0.75
100
AcDbArc
 50
180
 51
-90
  0
LINE
  5
A8B
330
A02
100
AcDbEntity
  8
Line085
100
AcDbLine
 10
207.025
 20
-15.775
 30
0
 11
207.025
 21
-3.275
 31
0
  0
LINE
  5
A8C
330
A02
100
AcDbEntity
  8
Line086
100
AcDbLine
 10
193.775
 20
-16.525
 30
0
 11
206.275
 21
-16.525
 31
0
  0
ARC
  5
A8D
330
A02
100
AcDbEntity
  8
Arc061
100
AcDbCircle
 10
206.275
 20
-3.275
 30
0
 40
0.75
100
AcDbArc
 50
3.39259e-14
 51
90
  0
LINE
  5
A8E
330
A02
100
AcDbEntity
  8
Line088
100
AcDbLine
 10
193.025
 20
-3.275
 30
0
 11
193.025
 21
-15.775
 31
0
  0
ARC
  5
A8F
330
A02
100
AcDbEntity
  8
Arc062
100
AcDbCircle
 10
193.775
 20
-3.275
 30
0
 40
0.75
100
AcDbArc
 50
90
 51
180
  0
ARC
  5
A90
330
A02
100
AcDbEntity
  8
Arc063
100
AcDbCircle
 10
206.275
 20
-15.775
 30
0
 40
0.75
100
AcDbArc
 50
-90
 51
0
  0
LINE
  5
A91
330
A02
100
AcDbEntity
  8
Line089
100
AcDbLine
 10
206.275
 20
-2.525
 30
0
 11
193.775
 21
-2.525
 31
0
  0
ARC
  5
A92
330
A02
100
AcDbEntity
  8
Arc064
100
AcDbCircle
 10
212.825
 20
-15.775
 30
0
 40
0.75
100
AcDbArc
 50
180
 51
-90
  0
LINE
  5
A93
330
A02
100
AcDbEntity
  8
Line090
100
AcDbLine
 10
212.825
 20
-16.525
 30
0
 11
225.325
 21
-16.525
 31
0
  0
LINE
  5
A94
330
A02
100
AcDbEntity
  8
Line091
100
AcDbLine
 10
226.075
 20
-15.775
 30
0
 11
226.075
 21
-3.275
 31
0
  0
ARC
  5
A95
330
A02
100
AcDbEntity
  8
Arc065
100
AcDbCircle
 10
225.325
 20
-3.275
 30
0
 40
0.75
100
AcDbArc
 50
3.39259e-14
 51
90
  0
LINE
  5
A96
330
A02
100
AcDbEntity
  8
Line094
100
AcDbLine
 10
212.075
 20
-3.275
 30
0
 11
212.075
 21
-15.775
 31
0
  0
ARC
  5
A97
330
A02
100
AcDbEntity
  8
Arc066
100
AcDbCircle
 10
225.325
 20
-15.775
 30
0
 40
0.75
100
AcDbArc
 50
-90
 51
0
  0
ARC
  5
A98
330
A02
100
AcDbEntity
  8
Arc067
100
AcDbCircle
 10
212.825
 20
-3.275
 30
0
 40
0.75
100
AcDbArc
 50
90
 51
180
  0
LINE
  5
A99
330
A02
100
AcDbEntity
  8
Line095
100
AcDbLine
 10
225.325
 20
-2.525
 30
0
 11
212.825
 21
-2.525
 31
0
  0
ARC
  5
A9A
330
A02
100
AcDbEntity
  8
Arc068
100
AcDbCircle
 10
244.375
 20
-3.275
 30
0
 40
0.75
100
AcDbArc
 50
3.39259e-14
 51
90
  0
ARC
  5
A9B
330
A02
100
AcDbEntity
  8
Arc069
100
AcDbCircle
 10
231.875
 20
-15.775
 30
0
 40
0.75
100
AcDbArc
 50
180
 51
-90
  0
ARC
  5
A9C
330
A02
100
AcDbEntity
  8
Arc070
100
AcDbCircle
 10
231.875
 20
-3.275
 30
0
 40
0.75
100
AcDbArc
 50
90
 51
180
  0
LINE
  5
A9D
330
A02
100
AcDbEntity
  8
Line096
100
AcDbLine
 10
244.375
 20
-2.525
 30
0
 11
231.875
 21
-2.525
 31
0
  0
ARC
  5
A9E
330
A02
100
AcDbEntity
  8
Arc071
100
AcDbCircle
 10
244.375
 20
-15.775
 30
0
 40
0.75
100
AcDbArc
 50
-90
 51
0
  0
LINE
  5
A9F
330
A02
100
AcDbEntity
  8
Line097
100
AcDbLine
 10
245.125
 20
-15.775
 30
0
 11
245.125
 21
-3.275
 31
0
  0
LINE
  5
AA0
330
A02
100
AcDbEntity
  8
Line098
100
AcDbLine
 10
231.125
 20
-3.275
 30
0
 11
231.125
 21
-15.775
 31
0
  0
LINE
  5
AA1
330
A02
100
AcDbEntity
  8
Line099
100
AcDbLine
 10
231.875
 20
-16.525
 30
0
 11
244.375
 21
-16.525
 31
0
  0
ARC
  5
AA2
330
A02
100
AcDbEntity
  8
Arc078
100
AcDbCircle
 10
257.512
 20
-17.275
 30
0
 40
0.75
100
AcDbArc
 50
-90
 51
0
  0
ARC
  5
AA3
330
A02
100
AcDbEntity
  8
Arc079
100
AcDbCircle
 10
252.012
 20
-17.275
 30
0
 40
0.75
100
AcDbArc
 50
180
 51
-90
  0
LINE
  5
AA4
330
A02
100
AcDbEntity
  8
Line111
100
AcDbLine
 10
252.012
 20
-18.025
 30
0
 11
257.512
 21
-18.025
 31
0
  0
ARC
  5
AA5
330
A02
100
AcDbEntity
  8
Arc080
100
AcDbCircle
 10
281.388
 20
-17.275
 30
0
 40
0.75
100
AcDbArc
 50
-90
 51
0
  0
ARC
  5
AA6
330
A02
100
AcDbEntity
  8
Arc082
100
AcDbCircle
 10
275.888
 20
-17.275
 30
0
 40
0.75
100
AcDbArc
 50
180
 51
-90
  0
LINE
  5
AA7
330
A02
100
AcDbEntity
  8
Line115
100
AcDbLine
 10
275.888
 20
-18.025
 30
0
 11
281.388
 21
-18.025
 31
0
  0
LINE
  5
AA8
330
A02
100
AcDbEntity
  8
Line117
100
AcDbLine
 10
250.175
 20
-3.275
 30
0
 11
250.175
 21
-15.775
 31
0
  0
ARC
  5
AA9
330
A02
100
AcDbEntity
  8
Arc085
100
AcDbCircle
 10
250.925
 20
-3.275
 30
0
 40
0.75
100
AcDbArc
 50
90
 51
180
  0
ARC
  5
AAA
330
A02
100
AcDbEntity
  8
Arc086
100
AcDbCircle
 10
250.925
 20
-15.775
 30
0
 40
0.75
100
AcDbArc
 50
180
 51
-90
  0
ARC
  5
AAB
330
A02
100
AcDbEntity
  8
Arc088
100
AcDbCircle
 10
282.475
 20
-3.275
 30
0
 40
0.75
100
AcDbArc
 50
3.39259e-14
 51
90
  0
ARC
  5
AAC
330
A02
100
AcDbEntity
  8
Arc091
100
AcDbCircle
 10
282.475
 20
-15.775
 30
0
 40
0.75
100
AcDbArc
 50
-90
 51
0
  0
LINE
  5
AAD
330
A02
100
AcDbEntity
  8
Line127
100
AcDbLine
 10
283.225
 20
-15.775
 30
0
 11
283.225
 21
-3.275
 31
0
  0
ARC
  5
AAE
330
A02
100
AcDbEntity
  8
Arc092
100
AcDbCircle
 10
301.525
 20
-3.275
 30
0
 40
0.75
100
AcDbArc
 50
3.39259e-14
 51
90
  0
LINE
  5
AAF
330
A02
100
AcDbEntity
  8
Line129
100
AcDbLine
 10
288.275
 20
-3.275
 30
0
 11
288.275
 21
-15.775
 31
0
  0
ARC
  5
AB0
330
A02
100
AcDbEntity
  8
Arc093
100
AcDbCircle
 10
289.025
 20
-3.275
 30
0
 40
0.75
100
AcDbArc
 50
90
 51
180
  0
LINE
  5
AB1
330
A02
100
AcDbEntity
  8
Line130
100
AcDbLine
 10
301.525
 20
-2.525
 30
0
 11
289.025
 21
-2.525
 31
0
  0
ARC
  5
AB2
330
A02
100
AcDbEntity
  8
Arc094
100
AcDbCircle
 10
289.025
 20
-15.775
 30
0
 40
0.75
100
AcDbArc
 50
180
 51
-90
  0
ARC
  5
AB3
330
A02
100
AcDbEntity
  8
Arc095
100
AcDbCircle
 10
301.525
 20
-15.775
 30
0
 40
0.75
100
AcDbArc
 50
-90
 51
0
  0
LINE
  5
AB4
330
A02
100
AcDbEntity
  8
Line133
100
AcDbLine
 10
302.275
 20
-15.775
 30
0
 11
302.275
 21
-3.275
 31
0
  0
LINE
  5
AB5
330
A02
100
AcDbEntity
  8
Line134
100
AcDbLine
 10
289.025
 20
-16.525
 30
0
 11
301.525
 21
-16.525
 31
0
  0
ARC
  5
AB6
330
A02
100
AcDbEntity
  8
Arc096
100
AcDbCircle
 10
8.0375
 20
-22.325
 30
0
 40
0.75
100
AcDbArc
 50
90
 51
180
  0
ARC
  5
AB7
330
A02
100
AcDbEntity
  8
Arc097
100
AcDbCircle
 10
20.5375
 20
-22.325
 30
0
 40
0.75
100
AcDbArc
 50
0
 51
90
  0
ARC
  5
AB8
330
A02
100
AcDbEntity
  8
Arc098
100
AcDbCircle
 10
8.0375
 20
-34.825
 30
0
 40
0.75
100
AcDbArc
 50
180
 51
-90
  0
ARC
  5
AB9
330
A02
100
AcDbEntity
  8
Arc099
100
AcDbCircle
 10
20.5375
 20
-34.825
 30
0
 40
0.75
100
AcDbArc
 50
-90
 51
0
  0
LINE
  5
ABA
330
A02
100
AcDbEntity
  8
Line137
100
AcDbLine
 10
20.5375
 20
-21.575
 30
0
 11
8.0375
 21
-21.575
 31
0
  0
LINE
  5
ABB
330
A02
100
AcDbEntity
  8
Line138
100
AcDbLine
 10
7.2875
 20
-22.325
 30
0
 11
7.2875
 21
-34.825
 31
0
  0
LINE
  5
ABC
330
A02
100
AcDbEntity
  8
Line139
100
AcDbLine
 10
8.0375
 20
-35.575
 30
0
 11
20.5375
 21
-35.575
 31
0
  0
LINE
  5
ABD
330
A02
100
AcDbEntity
  8
Line140
100
AcDbLine
 10
21.2875
 20
-34.825
 30
0
 11
21.2875
 21
-22.325
 31
0
  0
ARC
  5
ABE
330
A02
100
AcDbEntity
  8
Arc100
100
AcDbCircle
 10
44.35
 20
-34.825
 30
0
 40
0.75
100
AcDbArc
 50
-90
 51
0
  0
LINE
  5
ABF
330
A02
100
AcDbEntity
  8
Line143
100
AcDbLine
 10
31.1
 20
-22.325
 30
0
 11
31.1
 21
-34.825
 31
0
  0
ARC
  5
AC0
330
A02
100
AcDbEntity
  8
Arc101
100
AcDbCircle
 10
31.85
 20
-22.325
 30
0
 40
0.75
100
AcDbArc
 50
90
 51
180
  0
LINE
  5
AC1
330
A02
100
AcDbEntity
  8
Line144
100
AcDbLine
 10
31.85
 20
-35.575
 30
0
 11
44.35
 21
-35.575
 31
0
  0
ARC
  5
AC2
330
A02
100
AcDbEntity
  8
Arc102
100
AcDbCircle
 10
44.35
 20
-22.325
 30
0
 40
0.75
100
AcDbArc
 50
0
 51
90
  0
ARC
  5
AC3
330
A02
100
AcDbEntity
  8
Arc103
100
AcDbCircle
 10
31.85
 20
-34.825
 30
0
 40
0.75
100
AcDbArc
 50
180
 51
-90
  0
LINE
  5
AC4
330
A02
100
AcDbEntity
  8
Line145
100
AcDbLine
 10
45.1
 20
-34.825
 30
0
 11
45.1
 21
-22.325
 31
0
  0
LINE
  5
AC5
330
A02
100
AcDbEntity
  8
Line146
100
AcDbLine
 10
44.35
 20
-21.575
 30
0
 11
31.85
 21
-21.575
 31
0
  0
LINE
  5
AC6
330
A02
100
AcDbEntity
  8
Line148
100
AcDbLine
 10
50.9
 20
-35.575
 30
0
 11
63.4
 21
-35.575
 31
0
  0
LINE
  5
AC7
330
A02
100
AcDbEntity
  8
Line149
100
AcDbLine
 10
63.4
 20
-21.575
 30
0
 11
50.9
 21
-21.575
 31
0
  0
ARC
  5
AC8
330
A02
100
AcDbEntity
  8
Arc104
100
AcDbCircle
 10
50.9
 20
-22.325
 30
0
 40
0.75
100
AcDbArc
 50
90
 51
180
  0
ARC
  5
AC9
330
A02
100
AcDbEntity
  8
Arc105
100
AcDbCircle
 10
50.9
 20
-34.825
 30
0
 40
0.75
100
AcDbArc
 50
180
 51
-90
  0
LINE
  5
ACA
330
A02
100
AcDbEntity
  8
Line150
100
AcDbLine
 10
50.15
 20
-22.325
 30
0
 11
50.15
 21
-34.825
 31
0
  0
ARC
  5
ACB
330
A02
100
AcDbEntity
  8
Arc106
100
AcDbCircle
 10
63.4
 20
-34.825
 30
0
 40
0.75
100
AcDbArc
 50
-90
 51
0
  0
LINE
  5
ACC
330
A02
100
AcDbEntity
  8
Line152
100
AcDbLine
 10
64.15
 20
-34.825
 30
0
 11
64.15
 21
-22.325
 31
0
  0
ARC
  5
ACD
330
A02
100
AcDbEntity
  8
Arc107
100
AcDbCircle
 10
63.4
 20
-22.325
 30
0
 40
0.75
100
AcDbArc
 50
0
 51
90
  0
ARC
  5
ACE
330
A02
100
AcDbEntity
  8
Arc108
100
AcDbCircle
 10
82.45
 20
-34.825
 30
0
 40
0.75
100
AcDbArc
 50
-90
 51
0
  0
LINE
  5
ACF
330
A02
100
AcDbEntity
  8
Line153
100
AcDbLine
 10
83.2
 20
-34.825
 30
0
 11
83.2
 21
-22.325
 31
0
  0
ARC
  5
AD0
330
A02
100
AcDbEntity
  8
Arc109
100
AcDbCircle
 10
82.45
 20
-22.325
 30
0
 40
0.75
100
AcDbArc
 50
0
 51
90
  0
LINE
  5
AD1
330
A02
100
AcDbEntity
  8
Line155
100
AcDbLine
 10
69.95
 20
-35.575
 30
0
 11
82.45
 21
-35.575
 31
0
  0
LINE
  5
AD2
330
A02
100
AcDbEntity
  8
Line156
100
AcDbLine
 10
82.45
 20
-21.575
 30
0
 11
69.95
 21
-21.575
 31
0
  0
ARC
  5
AD3
330
A02
100
AcDbEntity
  8
Arc110
100
AcDbCircle
 10
69.95
 20
-34.825
 30
0
 40
0.75
100
AcDbArc
 50
180
 51
-90
  0
ARC
  5
AD4
330
A02
100
AcDbEntity
  8
Arc111
100
AcDbCircle
 10
69.95
 20
-22.325
 30
0
 40
0.75
100
AcDbArc
 50
90
 51
180
  0
LINE
  5
AD5
330
A02
100
AcDbEntity
  8
Line157
100
AcDbLine
 10
69.2
 20
-22.325
 30
0
 11
69.2
 21
-34.825
 31
0
  0
LINE
  5
AD6
330
A02
100
AcDbEntity
  8
Line159
100
AcDbLine
 10
89
 20
-35.575
 30
0
 11
101.5
 21
-35.575
 31
0
  0
LINE
  5
AD7
330
A02
100
AcDbEntity
  8
Line161
100
AcDbLine
 10
88.25
 20
-22.325
 30
0
 11
88.25
 21
-34.825
 31
0
  0
ARC
  5
AD8
330
A02
100
AcDbEntity
  8
Arc112
100
AcDbCircle
 10
89
 20
-22.325
 30
0
 40
0.75
100
AcDbArc
 50
90
 51
180
  0
LINE
  5
AD9
330
A02
100
AcDbEntity
  8
Line162
100
AcDbLine
 10
102.25
 20
-34.825
 30
0
 11
102.25
 21
-22.325
 31
0
  0
ARC
  5
ADA
330
A02
100
AcDbEntity
  8
Arc113
100
AcDbCircle
 10
101.5
 20
-34.825
 30
0
 40
0.75
100
AcDbArc
 50
-90
 51
0
  0
ARC
  5
ADB
330
A02
100
AcDbEntity
  8
Arc114
100
AcDbCircle
 10
101.5
 20
-22.325
 30
0
 40
0.75
100
AcDbArc
 50
0
 51
90
  0
LINE
  5
ADC
330
A02
100
AcDbEntity
  8
Line164
100
AcDbLine
 10
101.5
 20
-21.575
 30
0
 11
89
 21
-21.575
 31
0
  0
ARC
  5
ADD
330
A02
100
AcDbEntity
  8
Arc115
100
AcDbCircle
 10
89
 20
-34.825
 30
0
 40
0.75
100
AcDbArc
 50
180
 51
-90
  0
LINE
  5
ADE
330
A02
100
AcDbEntity
  8
Line165
100
AcDbLine
 10
107.3
 20
-22.325
 30
0
 11
107.3
 21
-34.825
 31
0
  0
ARC
  5
ADF
330
A02
100
AcDbEntity
  8
Arc116
100
AcDbCircle
 10
120.55
 20
-22.325
 30
0
 40
0.75
100
AcDbArc
 50
0
 51
90
  0
LINE
  5
AE0
330
A02
100
AcDbEntity
  8
Line166
100
AcDbLine
 10
108.05
 20
-35.575
 30
0
 11
120.55
 21
-35.575
 31
0
  0
ARC
  5
AE1
330
A02
100
AcDbEntity
  8
Arc117
100
AcDbCircle
 10
108.05
 20
-22.325
 30
0
 40
0.75
100
AcDbArc
 50
90
 51
180
  0
ARC
  5
AE2
330
A02
100
AcDbEntity
  8
Arc118
100
AcDbCircle
 10
120.55
 20
-34.825
 30
0
 40
0.75
100
AcDbArc
 50
-90
 51
0
  0
LINE
  5
AE3
330
A02
100
AcDbEntity
  8
Line168
100
AcDbLine
 10
121.3
 20
-34.825
 30
0
 11
121.3
 21
-22.325
 31
0
  0
LINE
  5
AE4
330
A02
100
AcDbEntity
  8
Line170
100
AcDbLine
 10
120.55
 20
-21.575
 30
0
 11
108.05
 21
-21.575
 31
0
  0
ARC
  5
AE5
330
A02
100
AcDbEntity
  8
Arc119
100
AcDbCircle
 10
108.05
 20
-34.825
 30
0
 40
0.75
100
AcDbArc
 50
180
 51
-90
  0
ARC
  5
AE6
330
A02
100
AcDbEntity
  8
Arc120
100
AcDbCircle
 10
139.6
 20
-22.325
 30
0
 40
0.75
100
AcDbArc
 50
0
 51
90
  0
LINE
  5
AE7
330
A02
100
AcDbEntity
  8
Line171
100
AcDbLine
 10
127.1
 20
-35.575
 30
0
 11
139.6
 21
-35.575
 31
0
  0
ARC
  5
AE8
330
A02
100
AcDbEntity
  8
Arc121
100
AcDbCircle
 10
127.1
 20
-22.325
 30
0
 40
0.75
100
AcDbArc
 50
90
 51
180
  0
LINE
  5
AE9
330
A02
100
AcDbEntity
  8
Line173
100
AcDbLine
 10
126.35
 20
-22.325
 30
0
 11
126.35
 21
-34.825
 31
0
  0
LINE
  5
AEA
330
A02
100
AcDbEntity
  8
Line174
100
AcDbLine
 10
140.35
 20
-34.825
 30
0
 11
140.35
 21
-22.325
 31
0
  0
ARC
  5
AEB
330
A02
100
AcDbEntity
  8
Arc122
100
AcDbCircle
 10
127.1
 20
-34.825
 30
0
 40
0.75
100
AcDbArc
 50
180
 51
-90
  0
LINE
  5
AEC
330
A02
100
AcDbEntity
  8
Line175
100
AcDbLine
 10
139.6
 20
-21.575
 30
0
 11
127.1
 21
-21.575
 31
0
  0
ARC
  5
AED
330
A02
100
AcDbEntity
  8
Arc123
100
AcDbCircle
 10
139.6
 20
-34.825
 30
0
 40
0.75
100
AcDbArc
 50
-90
 51
0
  0
LINE
  5
AEE
330
A02
100
AcDbEntity
  8
Line177
100
AcDbLine
 10
158.65
 20
-21.575
 30
0
 11
146.15
 21
-21.575
 31
0
  0
LINE
  5
AEF
330
A02
100
AcDbEntity
  8
Line178
100
AcDbLine
 10
159.4
 20
-34.825
 30
0
 11
159.4
 21
-22.325
 31
0
  0
ARC
  5
AF0
330
A02
100
AcDbEntity
  8
Arc124
100
AcDbCircle
 10
146.15
 20
-34.825
 30
0
 40
0.75
100
AcDbArc
 50
180
 51
-90
  0
ARC
  5
AF1
330
A02
100
AcDbEntity
  8
Arc125
100
AcDbCircle
 10
158.65
 20
-22.325
 30
0
 40
0.75
100
AcDbArc
 50
0
 51
90
  0
LINE
  5
AF2
330
A02
100
AcDbEntity
  8
Line180
100
AcDbLine
 10
146.15
 20
-35.575
 30
0
 11
158.65
 21
-35.575
 31
0
  0
ARC
  5
AF3
330
A02
100
AcDbEntity
  8
Arc126
100
AcDbCircle
 10
146.15
 20
-22.325
 30
0
 40
0.75
100
AcDbArc
 50
90
 51
180
  0
LINE
  5
AF4
330
A02
100
AcDbEntity
  8
Line181
100
AcDbLine
 10
145.4
 20
-22.325
 30
0
 11
145.4
 21
-34.825
 31
0
  0
ARC
  5
AF5
330
A02
100
AcDbEntity
  8
Arc127
100
AcDbCircle
 10
158.65
 20
-34.825
 30
0
 40
0.75
100
AcDbArc
 50
-90
 51
0
  0
LINE
  5
AF6
330
A02
100
AcDbEntity
  8
Line184
100
AcDbLine
 10
165.2
 20
-35.575
 30
0
 11
177.7
 21
-35.575
 31
0
  0
LINE
  5
AF7
330
A02
100
AcDbEntity
  8
Line186
100
AcDbLine
 10
178.45
 20
-34.825
 30
0
 11
178.45
 21
-22.325
 31
0
  0
LINE
  5
AF8
330
A02
100
AcDbEntity
  8
Line187
100
AcDbLine
 10
164.45
 20
-22.325
 30
0
 11
164.45
 21
-34.825
 31
0
  0
ARC
  5
AF9
330
A02
100
AcDbEntity
  8
Arc128
100
AcDbCircle
 10
165.2
 20
-22.325
 30
0
 40
0.75
100
AcDbArc
 50
90
 51
180
  0
ARC
  5
AFA
330
A02
100
AcDbEntity
  8
Arc129
100
AcDbCircle
 10
165.2
 20
-34.825
 30
0
 40
0.75
100
AcDbArc
 50
180
 51
-90
  0
LINE
  5
AFB
330
A02
100
AcDbEntity
  8
Line188
100
AcDbLine
 10
177.7
 20
-21.575
 30
0
 11
165.2
 21
-21.575
 31
0
  0
ARC
  5
AFC
330
A02
100
AcDbEntity
  8
Arc130
100
AcDbCircle
 10
177.7
 20
-34.825
 30
0
 40
0.75
100
AcDbArc
 50
-90
 51
0
  0
ARC
  5
AFD
330
A02
100
AcDbEntity
  8
Arc131
100
AcDbCircle
 10
177.7
 20
-22.325
 30
0
 40
0.75
100
AcDbArc
 50
0
 51
90
  0
LINE
  5
AFE
330
A02
100
AcDbEntity
  8
Line190
100
AcDbLine
 10
184.25
 20
-35.575
 30
0
 11
196.75
 21
-35.575
 31
0
  0
LINE
  5
AFF
330
A02
100
AcDbEntity
  8
Line192
100
AcDbLine
 10
197.5
 20
-34.825
 30
0
 11
197.5
 21
-22.325
 31
0
  0
LINE
  5
B00
330
A02
100
AcDbEntity
  8
Line193
100
AcDbLine
 10
183.5
 20
-22.325
 30
0
 11
183.5
 21
-34.825
 31
0
  0
ARC
  5
B01
330
A02
100
AcDbEntity
  8
Arc132
100
AcDbCircle
 10
184.25
 20
-22.325
 30
0
 40
0.75
100
AcDbArc
 50
90
 51
180
  0
ARC
  5
B02
330
A02
100
AcDbEntity
  8
Arc133
100
AcDbCircle
 10
184.25
 20
-34.825
 30
0
 40
0.75
100
AcDbArc
 50
180
 51
-90
  0
ARC
  5
B03
330
A02
100
AcDbEntity
  8
Arc134
100
AcDbCircle
 10
196.75
 20
-34.825
 30
0
 40
0.75
100
AcDbArc
 50
-90
 51
0
  0
ARC
  5
B04
330
A02
100
AcDbEntity
  8
Arc135
100
AcDbCircle
 10
196.75
 20
-22.325
 30
0
 40
0.75
100
AcDbArc
 50
0
 51
90
  0
LINE
  5
B05
330
A02
100
AcDbEntity
  8
Line194
100
AcDbLine
 10
196.75
 20
-21.575
 30
0
 11
184.25
 21
-21.575
 31
0
  0
ARC
  5
B06
330
A02
100
AcDbEntity
  8
Arc136
100
AcDbCircle
 10
203.3
 20
-22.325
 30
0
 40
0.75
100
AcDbArc
 50
90
 51
180
  0
LINE
  5
B07
330
A02
100
AcDbEntity
  8
Line196
100
AcDbLine
 10
203.3
 20
-35.575
 30
0
 11
215.8
 21
-35.575
 31
0
  0
LINE
  5
B08
330
A02
100
AcDbEntity
  8
Line198
100
AcDbLine
 10
216.55
 20
-34.825
 30
0
 11
216.55
 21
-22.325
 31
0
  0
LINE
  5
B09
330
A02
100
AcDbEntity
  8
Line199
100
AcDbLine
 10
202.55
 20
-22.325
 30
0
 11
202.55
 21
-34.825
 31
0
  0
ARC
  5
B0A
330
A02
100
AcDbEntity
  8
Arc137
100
AcDbCircle
 10
215.8
 20
-34.825
 30
0
 40
0.75
100
AcDbArc
 50
-90
 51
0
  0
LINE
  5
B0B
330
A02
100
AcDbEntity
  8
Line200
100
AcDbLine
 10
215.8
 20
-21.575
 30
0
 11
203.3
 21
-21.575
 31
0
  0
ARC
  5
B0C
330
A02
100
AcDbEntity
  8
Arc138
100
AcDbCircle
 10
203.3
 20
-34.825
 30
0
 40
0.75
100
AcDbArc
 50
180
 51
-90
  0
ARC
  5
B0D
330
A02
100
AcDbEntity
  8
Arc139
100
AcDbCircle
 10
215.8
 20
-22.325
 30
0
 40
0.75
100
AcDbArc
 50
0
 51
90
  0
LINE
  5
B0E
330
A02
100
AcDbEntity
  8
Line201
100
AcDbLine
 10
221.6
 20
-22.325
 30
0
 11
221.6
 21
-34.825
 31
0
  0
LINE
  5
B0F
330
A02
100
AcDbEntity
  8
Line202
100
AcDbLine
 10
235.6
 20
-34.825
 30
0
 11
235.6
 21
-22.325
 31
0
  0
ARC
  5
B10
330
A02
100
AcDbEntity
  8
Arc140
100
AcDbCircle
 10
222.35
 20
-34.825
 30
0
 40
0.75
100
AcDbArc
 50
180
 51
-90
  0
ARC
  5
B11
330
A02
100
AcDbEntity
  8
Arc141
100
AcDbCircle
 10
234.85
 20
-34.825
 30
0
 40
0.75
100
AcDbArc
 50
-90
 51
0
  0
ARC
  5
B12
330
A02
100
AcDbEntity
  8
Arc142
100
AcDbCircle
 10
222.35
 20
-22.325
 30
0
 40
0.75
100
AcDbArc
 50
90
 51
180
  0
LINE
  5
B13
330
A02
100
AcDbEntity
  8
Line204
100
AcDbLine
 10
222.35
 20
-35.575
 30
0
 11
234.85
 21
-35.575
 31
0
  0
LINE
  5
B14
330
A02
100
AcDbEntity
  8
Line205
100
AcDbLine
 10
234.85
 20
-21.575
 30
0
 11
222.35
 21
-21.575
 31
0
  0
ARC
  5
B15
330
A02
100
AcDbEntity
  8
Arc143
100
AcDbCircle
 10
234.85
 20
-22.325
 30
0
 40
0.75
100
AcDbArc
 50
0
 51
90
  0
LINE
  5
B16
330
A02
100
AcDbEntity
  8
Line207
100
AcDbLine
 10
241.4
 20
-35.575
 30
0
 11
253.9
 21
-35.575
 31
0
  0
ARC
  5
B17
330
A02
100
AcDbEntity
  8
Arc144
100
AcDbCircle
 10
241.4
 20
-22.325
 30
0
 40
0.75
100
AcDbArc
 50
90
 51
180
  0
ARC
  5
B18
330
A02
100
AcDbEntity
  8
Arc145
100
AcDbCircle
 10
253.9
 20
-22.325
 30
0
 40
0.75
100
AcDbArc
 50
0
 51
90
  0
LINE
  5
B19
330
A02
100
AcDbEntity
  8
Line208
100
AcDbLine
 10
254.65
 20
-34.825
 30
0
 11
254.65
 21
-22.325
 31
0
  0
LINE
  5
B1A
330
A02
100
AcDbEntity
  8
Line209
100
AcDbLine
 10
240.65
 20
-22.325
 30
0
 11
240.65
 21
-34.825
 31
0
  0
ARC
  5
B1B
330
A02
100
AcDbEntity
  8
Arc146
100
AcDbCircle
 10
253.9
 20
-34.825
 30
0
 40
0.75
100
AcDbArc
 50
-90
 51
0
  0
ARC
  5
B1C
330
A02
100
AcDbEntity
  8
Arc147
100
AcDbCircle
 10
241.4
 20
-34.825
 30
0
 40
0.75
100
AcDbArc
 50
180
 51
-90
  0
LINE
  5
B1D
330
A02
100
AcDbEntity
  8
Line211
100
AcDbLine
 10
253.9
 20
-21.575
 30
0
 11
241.4
 21
-21.575
 31
0
  0
LINE
  5
B1E
330
A02
100
AcDbEntity
  8
Line219
100
AcDbLine
 10
289.025
 20
-35.575
 30
0
 11
301.525
 21
-35.575
 31
0
  0
LINE
  5
B1F
330
A02
100
AcDbEntity
  8
Line220
100
AcDbLine
 10
302.275
 20
-34.825
 30
0
 11
302.275
 21
-22.325
 31
0
  0
LINE
  5
B20
330
A02
100
AcDbEntity
  8
Line222
100
AcDbLine
 10
301.525
 20
-21.575
 30
0
 11
289.025
 21
-21.575
 31
0
  0
ARC
  5
B21
330
A02
100
AcDbEntity
  8
Arc152
100
AcDbCircle
 10
301.525
 20
-22.325
 30
0
 40
0.75
100
AcDbArc
 50
0
 51
90
  0
ARC
  5
B22
330
A02
100
AcDbEntity
  8
Arc153
100
AcDbCircle
 10
301.525
 20
-34.825
 30
0
 40
0.75
100
AcDbArc
 50
-90
 51
0
  0
ARC
  5
B23
330
A02
100
AcDbEntity
  8
Arc154
100
AcDbCircle
 10
289.025
 20
-22.325
 30
0
 40
0.75
100
AcDbArc
 50
90
 51
180
  0
LINE
  5
B24
330
A02
100
AcDbEntity
  8
Line223
100
AcDbLine
 10
288.275
 20
-22.325
 30
0
 11
288.275
 21
-34.825
 31
0
  0
ARC
  5
B25
330
A02
100
AcDbEntity
  8
Arc155
100
AcDbCircle
 10
289.025
 20
-34.825
 30
0
 40
0.75
100
AcDbArc
 50
180
 51
-90
  0
ARC
  5
B26
330
A02
100
AcDbEntity
  8
Arc157
100
AcDbCircle
 10
22.9188
 20
-41.375
 30
0
 40
0.75
100
AcDbArc
 50
0
 51
90
  0
ARC
  5
B27
330
A02
100
AcDbEntity
  8
Arc159
100
AcDbCircle
 10
22.9188
 20
-53.875
 30
0
 40
0.75
100
AcDbArc
 50
-90
 51
0
  0
LINE
  5
B28
330
A02
100
AcDbEntity
  8
Line230
100
AcDbLine
 10
23.6688
 20
-53.875
 30
0
 11
23.6688
 21
-41.375
 31
0
  0
ARC
  5
B29
330
A02
100
AcDbEntity
  8
Arc160
100
AcDbCircle
 10
49.1125
 20
-53.875
 30
0
 40
0.75
100
AcDbArc
 50
-90
 51
0
  0
LINE
  5
B2A
330
A02
100
AcDbEntity
  8
Line233
100
AcDbLine
 10
35.8625
 20
-41.375
 30
0
 11
35.8625
 21
-53.875
 31
0
  0
ARC
  5
B2B
330
A02
100
AcDbEntity
  8
Arc161
100
AcDbCircle
 10
36.6125
 20
-41.375
 30
0
 40
0.75
100
AcDbArc
 50
90
 51
180
  0
LINE
  5
B2C
330
A02
100
AcDbEntity
  8
Line234
100
AcDbLine
 10
36.6125
 20
-54.625
 30
0
 11
49.1125
 21
-54.625
 31
0
  0
ARC
  5
B2D
330
A02
100
AcDbEntity
  8
Arc162
100
AcDbCircle
 10
49.1125
 20
-41.375
 30
0
 40
0.75
100
AcDbArc
 50
0
 51
90
  0
ARC
  5
B2E
330
A02
100
AcDbEntity
  8
Arc163
100
AcDbCircle
 10
36.6125
 20
-53.875
 30
0
 40
0.75
100
AcDbArc
 50
180
 51
-90
  0
LINE
  5
B2F
330
A02
100
AcDbEntity
  8
Line235
100
AcDbLine
 10
49.8625
 20
-53.875
 30
0
 11
49.8625
 21
-41.375
 31
0
  0
LINE
  5
B30
330
A02
100
AcDbEntity
  8
Line236
100
AcDbLine
 10
49.1125
 20
-40.625
 30
0
 11
36.6125
 21
-40.625
 31
0
  0
ARC
  5
B31
330
A02
100
AcDbEntity
  8
Arc164
100
AcDbCircle
 10
68.1625
 20
-41.375
 30
0
 40
0.75
100
AcDbArc
 50
0
 51
90
  0
LINE
  5
B32
330
A02
100
AcDbEntity
  8
Line239
100
AcDbLine
 10
55.6625
 20
-54.625
 30
0
 11
68.1625
 21
-54.625
 31
0
  0
LINE
  5
B33
330
A02
100
AcDbEntity
  8
Line240
100
AcDbLine
 10
68.1625
 20
-40.625
 30
0
 11
55.6625
 21
-40.625
 31
0
  0
LINE
  5
B34
330
A02
100
AcDbEntity
  8
Line241
100
AcDbLine
 10
54.9125
 20
-41.375
 30
0
 11
54.9125
 21
-53.875
 31
0
  0
ARC
  5
B35
330
A02
100
AcDbEntity
  8
Arc165
100
AcDbCircle
 10
55.6625
 20
-41.375
 30
0
 40
0.75
100
AcDbArc
 50
90
 51
180
  0
ARC
  5
B36
330
A02
100
AcDbEntity
  8
Arc166
100
AcDbCircle
 10
55.6625
 20
-53.875
 30
0
 40
0.75
100
AcDbArc
 50
180
 51
-90
  0
ARC
  5
B37
330
A02
100
AcDbEntity
  8
Arc167
100
AcDbCircle
 10
68.1625
 20
-53.875
 30
0
 40
0.75
100
AcDbArc
 50
-90
 51
0
  0
LINE
  5
B38
330
A02
100
AcDbEntity
  8
Line242
100
AcDbLine
 10
68.9125
 20
-53.875
 30
0
 11
68.9125
 21
-41.375
 31
0
  0
ARC
  5
B39
330
A02
100
AcDbEntity
  8
Arc168
100
AcDbCircle
 10
87.2125
 20
-53.875
 30
0
 40
0.75
100
AcDbArc
 50
-90
 51
0
  0
ARC
  5
B3A
330
A02
100
AcDbEntity
  8
Arc169
100
AcDbCircle
 10
74.7125
 20
-41.375
 30
0
 40
0.75
100
AcDbArc
 50
90
 51
180
  0
ARC
  5
B3B
330
A02
100
AcDbEntity
  8
Arc170
100
AcDbCircle
 10
87.2125
 20
-41.375
 30
0
 40
0.75
100
AcDbArc
 50
0
 51
90
  0
LINE
  5
B3C
330
A02
100
AcDbEntity
  8
Line244
100
AcDbLine
 10
87.2125
 20
-40.625
 30
0
 11
74.7125
 21
-40.625
 31
0
  0
LINE
  5
B3D
330
A02
100
AcDbEntity
  8
Line245
100
AcDbLine
 10
74.7125
 20
-54.625
 30
0
 11
87.2125
 21
-54.625
 31
0
  0
LINE
  5
B3E
330
A02
100
AcDbEntity
  8
Line246
100
AcDbLine
 10
73.9625
 20
-41.375
 30
0
 11
73.9625
 21
-53.875
 31
0
  0
LINE
  5
B3F
330
A02
100
AcDbEntity
  8
Line248
100
AcDbLine
 10
87.9625
 20
-53.875
 30
0
 11
87.9625
 21
-41.375
 31
0
  0
ARC
  5
B40
330
A02
100
AcDbEntity
  8
Arc171
100
AcDbCircle
 10
74.7125
 20
-53.875
 30
0
 40
0.75
100
AcDbArc
 50
180
 51
-90
  0
LINE
  5
B41
330
A02
100
AcDbEntity
  8
Line250
100
AcDbLine
 10
93.7625
 20
-54.625
 30
0
 11
106.262
 21
-54.625
 31
0
  0
ARC
  5
B42
330
A02
100
AcDbEntity
  8
Arc172
100
AcDbCircle
 10
106.263
 20
-53.875
 30
0
 40
0.75
100
AcDbArc
 50
-90
 51
0
  0
ARC
  5
B43
330
A02
100
AcDbEntity
  8
Arc173
100
AcDbCircle
 10
93.7625
 20
-41.375
 30
0
 40
0.75
100
AcDbArc
 50
90
 51
180
  0
ARC
  5
B44
330
A02
100
AcDbEntity
  8
Arc174
100
AcDbCircle
 10
106.262
 20
-41.375
 30
0
 40
0.75
100
AcDbArc
 50
0
 51
90
  0
LINE
  5
B45
330
A02
100
AcDbEntity
  8
Line251
100
AcDbLine
 10
106.262
 20
-40.625
 30
0
 11
93.7625
 21
-40.625
 31
0
  0
LINE
  5
B46
330
A02
100
AcDbEntity
  8
Line252
100
AcDbLine
 10
107.013
 20
-53.875
 30
0
 11
107.013
 21
-41.375
 31
0
  0
ARC
  5
B47
330
A02
100
AcDbEntity
  8
Arc175
100
AcDbCircle
 10
93.7625
 20
-53.875
 30
0
 40
0.75
100
AcDbArc
 50
180
 51
-90
  0
LINE
  5
B48
330
A02
100
AcDbEntity
  8
Line254
100
AcDbLine
 10
93.0125
 20
-41.375
 30
0
 11
93.0125
 21
-53.875
 31
0
  0
LINE
  5
B49
330
A02
100
AcDbEntity
  8
Line255
100
AcDbLine
 10
112.812
 20
-54.625
 30
0
 11
125.312
 21
-54.625
 31
0
  0
LINE
  5
B4A
330
A02
100
AcDbEntity
  8
Line256
100
AcDbLine
 10
126.062
 20
-53.875
 30
0
 11
126.062
 21
-41.375
 31
0
  0
LINE
  5
B4B
330
A02
100
AcDbEntity
  8
Line257
100
AcDbLine
 10
125.312
 20
-40.625
 30
0
 11
112.812
 21
-40.625
 31
0
  0
LINE
  5
B4C
330
A02
100
AcDbEntity
  8
Line258
100
AcDbLine
 10
112.062
 20
-41.375
 30
0
 11
112.062
 21
-53.875
 31
0
  0
ARC
  5
B4D
330
A02
100
AcDbEntity
  8
Arc176
100
AcDbCircle
 10
112.812
 20
-41.375
 30
0
 40
0.75
100
AcDbArc
 50
90
 51
180
  0
ARC
  5
B4E
330
A02
100
AcDbEntity
  8
Arc177
100
AcDbCircle
 10
125.312
 20
-41.375
 30
0
 40
0.75
100
AcDbArc
 50
0
 51
90
  0
ARC
  5
B4F
330
A02
100
AcDbEntity
  8
Arc178
100
AcDbCircle
 10
125.312
 20
-53.875
 30
0
 40
0.75
100
AcDbArc
 50
-90
 51
0
  0
ARC
  5
B50
330
A02
100
AcDbEntity
  8
Arc179
100
AcDbCircle
 10
112.812
 20
-53.875
 30
0
 40
0.75
100
AcDbArc
 50
180
 51
-90
  0
ARC
  5
B51
330
A02
100
AcDbEntity
  8
Arc180
100
AcDbCircle
 10
144.362
 20
-41.375
 30
0
 40
0.75
100
AcDbArc
 50
0
 51
90
  0
LINE
  5
B52
330
A02
100
AcDbEntity
  8
Line262
100
AcDbLine
 10
144.362
 20
-40.625
 30
0
 11
131.862
 21
-40.625
 31
0
  0
ARC
  5
B53
330
A02
100
AcDbEntity
  8
Arc181
100
AcDbCircle
 10
144.363
 20
-53.875
 30
0
 40
0.75
100
AcDbArc
 50
-90
 51
0
  0
ARC
  5
B54
330
A02
100
AcDbEntity
  8
Arc182
100
AcDbCircle
 10
131.863
 20
-53.875
 30
0
 40
0.75
100
AcDbArc
 50
180
 51
-90
  0
LINE
  5
B55
330
A02
100
AcDbEntity
  8
Line263
100
AcDbLine
 10
145.113
 20
-53.875
 30
0
 11
145.113
 21
-41.375
 31
0
  0
LINE
  5
B56
330
A02
100
AcDbEntity
  8
Line264
100
AcDbLine
 10
131.113
 20
-41.375
 30
0
 11
131.113
 21
-53.875
 31
0
  0
LINE
  5
B57
330
A02
100
AcDbEntity
  8
Line265
100
AcDbLine
 10
131.863
 20
-54.625
 30
0
 11
144.363
 21
-54.625
 31
0
  0
ARC
  5
B58
330
A02
100
AcDbEntity
  8
Arc183
100
AcDbCircle
 10
131.863
 20
-41.375
 30
0
 40
0.75
100
AcDbArc
 50
90
 51
180
  0
LINE
  5
B59
330
A02
100
AcDbEntity
  8
Line267
100
AcDbLine
 10
150.913
 20
-54.625
 30
0
 11
163.413
 21
-54.625
 31
0
  0
ARC
  5
B5A
330
A02
100
AcDbEntity
  8
Arc184
100
AcDbCircle
 10
163.412
 20
-41.375
 30
0
 40
0.75
100
AcDbArc
 50
0
 51
90
  0
LINE
  5
B5B
330
A02
100
AcDbEntity
  8
Line269
100
AcDbLine
 10
150.163
 20
-41.375
 30
0
 11
150.163
 21
-53.875
 31
0
  0
LINE
  5
B5C
330
A02
100
AcDbEntity
  8
Line270
100
AcDbLine
 10
163.412
 20
-40.625
 30
0
 11
150.912
 21
-40.625
 31
0
  0
ARC
  5
B5D
330
A02
100
AcDbEntity
  8
Arc185
100
AcDbCircle
 10
163.413
 20
-53.875
 30
0
 40
0.75
100
AcDbArc
 50
-90
 51
0
  0
ARC
  5
B5E
330
A02
100
AcDbEntity
  8
Arc186
100
AcDbCircle
 10
150.913
 20
-53.875
 30
0
 40
0.75
100
AcDbArc
 50
180
 51
-90
  0
LINE
  5
B5F
330
A02
100
AcDbEntity
  8
Line271
100
AcDbLine
 10
164.163
 20
-53.875
 30
0
 11
164.163
 21
-41.375
 31
0
  0
ARC
  5
B60
330
A02
100
AcDbEntity
  8
Arc187
100
AcDbCircle
 10
150.913
 20
-41.375
 30
0
 40
0.75
100
AcDbArc
 50
90
 51
180
  0
LINE
  5
B61
330
A02
100
AcDbEntity
  8
Line273
100
AcDbLine
 10
169.963
 20
-54.625
 30
0
 11
182.463
 21
-54.625
 31
0
  0
LINE
  5
B62
330
A02
100
AcDbEntity
  8
Line274
100
AcDbLine
 10
169.213
 20
-41.375
 30
0
 11
169.213
 21
-53.875
 31
0
  0
ARC
  5
B63
330
A02
100
AcDbEntity
  8
Arc188
100
AcDbCircle
 10
169.963
 20
-53.875
 30
0
 40
0.75
100
AcDbArc
 50
180
 51
-90
  0
ARC
  5
B64
330
A02
100
AcDbEntity
  8
Arc189
100
AcDbCircle
 10
182.462
 20
-41.375
 30
0
 40
0.75
100
AcDbArc
 50
0
 51
90
  0
LINE
  5
B65
330
A02
100
AcDbEntity
  8
Line277
100
AcDbLine
 10
182.462
 20
-40.625
 30
0
 11
169.962
 21
-40.625
 31
0
  0
ARC
  5
B66
330
A02
100
AcDbEntity
  8
Arc190
100
AcDbCircle
 10
182.463
 20
-53.875
 30
0
 40
0.75
100
AcDbArc
 50
-90
 51
0
  0
LINE
  5
B67
330
A02
100
AcDbEntity
  8
Line278
100
AcDbLine
 10
183.213
 20
-53.875
 30
0
 11
183.213
 21
-41.375
 31
0
  0
ARC
  5
B68
330
A02
100
AcDbEntity
  8
Arc191
100
AcDbCircle
 10
169.963
 20
-41.375
 30
0
 40
0.75
100
AcDbArc
 50
90
 51
180
  0
LINE
  5
B69
330
A02
100
AcDbEntity
  8
Line279
100
AcDbLine
 10
188.263
 20
-41.375
 30
0
 11
188.263
 21
-53.875
 31
0
  0
LINE
  5
B6A
330
A02
100
AcDbEntity
  8
Line280
100
AcDbLine
 10
189.013
 20
-54.625
 30
0
 11
201.513
 21
-54.625
 31
0
  0
ARC
  5
B6B
330
A02
100
AcDbEntity
  8
Arc192
100
AcDbCircle
 10
201.512
 20
-41.375
 30
0
 40
0.75
100
AcDbArc
 50
0
 51
90
  0
LINE
  5
B6C
330
A02
100
AcDbEntity
  8
Line281
100
AcDbLine
 10
201.512
 20
-40.625
 30
0
 11
189.012
 21
-40.625
 31
0
  0
LINE
  5
B6D
330
A02
100
AcDbEntity
  8
Line282
100
AcDbLine
 10
202.263
 20
-53.875
 30
0
 11
202.263
 21
-41.375
 31
0
  0
ARC
  5
B6E
330
A02
100
AcDbEntity
  8
Arc193
100
AcDbCircle
 10
189.013
 20
-53.875
 30
0
 40
0.75
100
AcDbArc
 50
180
 51
-90
  0
ARC
  5
B6F
330
A02
100
AcDbEntity
  8
Arc194
100
AcDbCircle
 10
201.513
 20
-53.875
 30
0
 40
0.75
100
AcDbArc
 50
-90
 51
0
  0
ARC
  5
B70
330
A02
100
AcDbEntity
  8
Arc195
100
AcDbCircle
 10
189.013
 20
-41.375
 30
0
 40
0.75
100
AcDbArc
 50
90
 51
180
  0
ARC
  5
B71
330
A02
100
AcDbEntity
  8
Arc196
100
AcDbCircle
 10
208.063
 20
-53.875
 30
0
 40
0.75
100
AcDbArc
 50
180
 51
-90
  0
LINE
  5
B72
330
A02
100
AcDbEntity
  8
Line286
100
AcDbLine
 10
220.562
 20
-40.625
 30
0
 11
208.062
 21
-40.625
 31
0
  0
ARC
  5
B73
330
A02
100
AcDbEntity
  8
Arc197
100
AcDbCircle
 10
220.562
 20
-41.375
 30
0
 40
0.75
100
AcDbArc
 50
0
 51
90
  0
LINE
  5
B74
330
A02
100
AcDbEntity
  8
Line287
100
AcDbLine
 10
208.063
 20
-54.625
 30
0
 11
220.563
 21
-54.625
 31
0
  0
LINE
  5
B75
330
A02
100
AcDbEntity
  8
Line288
100
AcDbLine
 10
221.313
 20
-53.875
 30
0
 11
221.313
 21
-41.375
 31
0
  0
ARC
  5
B76
330
A02
100
AcDbEntity
  8
Arc198
100
AcDbCircle
 10
220.563
 20
-53.875
 30
0
 40
0.75
100
AcDbArc
 50
-90
 51
0
  0
LINE
  5
B77
330
A02
100
AcDbEntity
  8
Line290
100
AcDbLine
 10
207.313
 20
-41.375
 30
0
 11
207.313
 21
-53.875
 31
0
  0
ARC
  5
B78
330
A02
100
AcDbEntity
  8
Arc199
100
AcDbCircle
 10
208.063
 20
-41.375
 30
0
 40
0.75
100
AcDbArc
 50
90
 51
180
  0
ARC
  5
B79
330
A02
100
AcDbEntity
  8
Arc200
100
AcDbCircle
 10
239.613
 20
-53.875
 30
0
 40
0.75
100
AcDbArc
 50
-90
 51
0
  0
LINE
  5
B7A
330
A02
100
AcDbEntity
  8
Line291
100
AcDbLine
 10
226.363
 20
-41.375
 30
0
 11
226.363
 21
-53.875
 31
0
  0
ARC
  5
B7B
330
A02
100
AcDbEntity
  8
Arc201
100
AcDbCircle
 10
227.113
 20
-41.375
 30
0
 40
0.75
100
AcDbArc
 50
90
 51
180
  0
LINE
  5
B7C
330
A02
100
AcDbEntity
  8
Line292
100
AcDbLine
 10
240.363
 20
-53.875
 30
0
 11
240.363
 21
-41.375
 31
0
  0
ARC
  5
B7D
330
A02
100
AcDbEntity
  8
Arc202
100
AcDbCircle
 10
227.113
 20
-53.875
 30
0
 40
0.75
100
AcDbArc
 50
180
 51
-90
  0
LINE
  5
B7E
330
A02
100
AcDbEntity
  8
Line294
100
AcDbLine
 10
239.613
 20
-40.625
 30
0
 11
227.113
 21
-40.625
 31
0
  0
ARC
  5
B7F
330
A02
100
AcDbEntity
  8
Arc203
100
AcDbCircle
 10
239.613
 20
-41.375
 30
0
 40
0.75
100
AcDbArc
 50
0
 51
90
  0
LINE
  5
B80
330
A02
100
AcDbEntity
  8
Line295
100
AcDbLine
 10
227.113
 20
-54.625
 30
0
 11
239.613
 21
-54.625
 31
0
  0
ARC
  5
B81
330
A02
100
AcDbEntity
  8
Arc216
100
AcDbCircle
 10
301.525
 20
-41.375
 30
0
 40
0.75
100
AcDbArc
 50
0
 51
90
  0
LINE
  5
B82
330
A02
100
AcDbEntity
  8
Line316
100
AcDbLine
 10
301.525
 20
-40.625
 30
0
 11
289.025
 21
-40.625
 31
0
  0
ARC
  5
B83
330
A02
100
AcDbEntity
  8
Arc217
100
AcDbCircle
 10
289.025
 20
-53.875
 30
0
 40
0.75
100
AcDbArc
 50
180
 51
-90
  0
LINE
  5
B84
330
A02
100
AcDbEntity
  8
Line317
100
AcDbLine
 10
289.025
 20
-54.625
 30
0
 11
301.525
 21
-54.625
 31
0
  0
ARC
  5
B85
330
A02
100
AcDbEntity
  8
Arc218
100
AcDbCircle
 10
289.025
 20
-41.375
 30
0
 40
0.75
100
AcDbArc
 50
90
 51
180
  0
ARC
  5
B86
330
A02
100
AcDbEntity
  8
Arc219
100
AcDbCircle
 10
301.525
 20
-53.875
 30
0
 40
0.75
100
AcDbArc
 50
-90
 51
0
  0
LINE
  5
B87
330
A02
100
AcDbEntity
  8
Line318
100
AcDbLine
 10
288.275
 20
-41.375
 30
0
 11
288.275
 21
-53.875
 31
0
  0
LINE
  5
B88
330
A02
100
AcDbEntity
  8
Line320
100
AcDbLine
 10
302.275
 20
-53.875
 30
0
 11
302.275
 21
-41.375
 31
0
  0
ARC
  5
B89
330
A02
100
AcDbEntity
  8
Arc232
100
AcDbCircle
 10
58.6375
 20
-72.925
 30
0
 40
0.75
100
AcDbArc
 50
-90
 51
0
  0
LINE
  5
B8A
330
A02
100
AcDbEntity
  8
Line337
100
AcDbLine
 10
45.3875
 20
-60.425
 30
0
 11
45.3875
 21
-72.925
 31
0
  0
ARC
  5
B8B
330
A02
100
AcDbEntity
  8
Arc233
100
AcDbCircle
 10
46.1375
 20
-60.425
 30
0
 40
0.75
100
AcDbArc
 50
90
 51
180
  0
LINE
  5
B8C
330
A02
100
AcDbEntity
  8
Line338
100
AcDbLine
 10
46.1375
 20
-73.675
 30
0
 11
58.6375
 21
-73.675
 31
0
  0
ARC
  5
B8D
330
A02
100
AcDbEntity
  8
Arc234
100
AcDbCircle
 10
58.6375
 20
-60.425
 30
0
 40
0.75
100
AcDbArc
 50
0
 51
90
  0
ARC
  5
B8E
330
A02
100
AcDbEntity
  8
Arc235
100
AcDbCircle
 10
46.1375
 20
-72.925
 30
0
 40
0.75
100
AcDbArc
 50
180
 51
-90
  0
LINE
  5
B8F
330
A02
100
AcDbEntity
  8
Line339
100
AcDbLine
 10
59.3875
 20
-72.925
 30
0
 11
59.3875
 21
-60.425
 31
0
  0
LINE
  5
B90
330
A02
100
AcDbEntity
  8
Line340
100
AcDbLine
 10
58.6375
 20
-59.675
 30
0
 11
46.1375
 21
-59.675
 31
0
  0
LINE
  5
B91
330
A02
100
AcDbEntity
  8
Line341
100
AcDbLine
 10
77.6875
 20
-59.675
 30
0
 11
65.1875
 21
-59.675
 31
0
  0
LINE
  5
B92
330
A02
100
AcDbEntity
  8
Line342
100
AcDbLine
 10
65.1875
 20
-73.675
 30
0
 11
77.6875
 21
-73.675
 31
0
  0
ARC
  5
B93
330
A02
100
AcDbEntity
  8
Arc236
100
AcDbCircle
 10
77.6875
 20
-72.925
 30
0
 40
0.75
100
AcDbArc
 50
-90
 51
0
  0
ARC
  5
B94
330
A02
100
AcDbEntity
  8
Arc237
100
AcDbCircle
 10
65.1875
 20
-60.425
 30
0
 40
0.75
100
AcDbArc
 50
90
 51
180
  0
LINE
  5
B95
330
A02
100
AcDbEntity
  8
Line344
100
AcDbLine
 10
78.4375
 20
-72.925
 30
0
 11
78.4375
 21
-60.425
 31
0
  0
LINE
  5
B96
330
A02
100
AcDbEntity
  8
Line345
100
AcDbLine
 10
64.4375
 20
-60.425
 30
0
 11
64.4375
 21
-72.925
 31
0
  0
ARC
  5
B97
330
A02
100
AcDbEntity
  8
Arc238
100
AcDbCircle
 10
65.1875
 20
-72.925
 30
0
 40
0.75
100
AcDbArc
 50
180
 51
-90
  0
ARC
  5
B98
330
A02
100
AcDbEntity
  8
Arc239
100
AcDbCircle
 10
77.6875
 20
-60.425
 30
0
 40
0.75
100
AcDbArc
 50
0
 51
90
  0
LINE
  5
B99
330
A02
100
AcDbEntity
  8
Line347
100
AcDbLine
 10
83.4875
 20
-60.425
 30
0
 11
83.4875
 21
-72.925
 31
0
  0
LINE
  5
B9A
330
A02
100
AcDbEntity
  8
Line348
100
AcDbLine
 10
84.2375
 20
-73.675
 30
0
 11
96.7375
 21
-73.675
 31
0
  0
ARC
  5
B9B
330
A02
100
AcDbEntity
  8
Arc240
100
AcDbCircle
 10
96.7375
 20
-72.925
 30
0
 40
0.75
100
AcDbArc
 50
-90
 51
0
  0
ARC
  5
B9C
330
A02
100
AcDbEntity
  8
Arc241
100
AcDbCircle
 10
84.2375
 20
-60.425
 30
0
 40
0.75
100
AcDbArc
 50
90
 51
180
  0
LINE
  5
B9D
330
A02
100
AcDbEntity
  8
Line350
100
AcDbLine
 10
97.4875
 20
-72.925
 30
0
 11
97.4875
 21
-60.425
 31
0
  0
LINE
  5
B9E
330
A02
100
AcDbEntity
  8
Line351
100
AcDbLine
 10
96.7375
 20
-59.675
 30
0
 11
84.2375
 21
-59.675
 31
0
  0
ARC
  5
B9F
330
A02
100
AcDbEntity
  8
Arc242
100
AcDbCircle
 10
84.2375
 20
-72.925
 30
0
 40
0.75
100
AcDbArc
 50
180
 51
-90
  0
ARC
  5
BA0
330
A02
100
AcDbEntity
  8
Arc243
100
AcDbCircle
 10
96.7375
 20
-60.425
 30
0
 40
0.75
100
AcDbArc
 50
0
 51
90
  0
LINE
  5
BA1
330
A02
100
AcDbEntity
  8
Line353
100
AcDbLine
 10
102.537
 20
-60.425
 30
0
 11
102.537
 21
-72.925
 31
0
  0
LINE
  5
BA2
330
A02
100
AcDbEntity
  8
Line354
100
AcDbLine
 10
103.287
 20
-73.675
 30
0
 11
115.787
 21
-73.675
 31
0
  0
LINE
  5
BA3
330
A02
100
AcDbEntity
  8
Line357
100
AcDbLine
 10
115.787
 20
-59.675
 30
0
 11
103.287
 21
-59.675
 31
0
  0
ARC
  5
BA4
330
A02
100
AcDbEntity
  8
Arc244
100
AcDbCircle
 10
115.787
 20
-72.925
 30
0
 40
0.75
100
AcDbArc
 50
-90
 51
0
  0
ARC
  5
BA5
330
A02
100
AcDbEntity
  8
Arc245
100
AcDbCircle
 10
115.787
 20
-60.425
 30
0
 40
0.75
100
AcDbArc
 50
0
 51
90
  0
ARC
  5
BA6
330
A02
100
AcDbEntity
  8
Arc246
100
AcDbCircle
 10
103.287
 20
-60.425
 30
0
 40
0.75
100
AcDbArc
 50
90
 51
180
  0
ARC
  5
BA7
330
A02
100
AcDbEntity
  8
Arc247
100
AcDbCircle
 10
103.287
 20
-72.925
 30
0
 40
0.75
100
AcDbArc
 50
180
 51
-90
  0
LINE
  5
BA8
330
A02
100
AcDbEntity
  8
Line358
100
AcDbLine
 10
116.537
 20
-72.925
 30
0
 11
116.537
 21
-60.425
 31
0
  0
LINE
  5
BA9
330
A02
100
AcDbEntity
  8
Line360
100
AcDbLine
 10
121.587
 20
-60.425
 30
0
 11
121.587
 21
-72.925
 31
0
  0
ARC
  5
BAA
330
A02
100
AcDbEntity
  8
Arc248
100
AcDbCircle
 10
122.337
 20
-72.925
 30
0
 40
0.75
100
AcDbArc
 50
180
 51
-90
  0
ARC
  5
BAB
330
A02
100
AcDbEntity
  8
Arc249
100
AcDbCircle
 10
122.337
 20
-60.425
 30
0
 40
0.75
100
AcDbArc
 50
90
 51
180
  0
ARC
  5
BAC
330
A02
100
AcDbEntity
  8
Arc250
100
AcDbCircle
 10
134.837
 20
-72.925
 30
0
 40
0.75
100
AcDbArc
 50
-90
 51
0
  0
LINE
  5
BAD
330
A02
100
AcDbEntity
  8
Line362
100
AcDbLine
 10
135.587
 20
-72.925
 30
0
 11
135.587
 21
-60.425
 31
0
  0
LINE
  5
BAE
330
A02
100
AcDbEntity
  8
Line363
100
AcDbLine
 10
134.837
 20
-59.675
 30
0
 11
122.337
 21
-59.675
 31
0
  0
LINE
  5
BAF
330
A02
100
AcDbEntity
  8
Line364
100
AcDbLine
 10
122.337
 20
-73.675
 30
0
 11
134.837
 21
-73.675
 31
0
  0
ARC
  5
BB0
330
A02
100
AcDbEntity
  8
Arc251
100
AcDbCircle
 10
134.837
 20
-60.425
 30
0
 40
0.75
100
AcDbArc
 50
0
 51
90
  0
ARC
  5
BB1
330
A02
100
AcDbEntity
  8
Arc252
100
AcDbCircle
 10
141.387
 20
-60.425
 30
0
 40
0.75
100
AcDbArc
 50
90
 51
180
  0
LINE
  5
BB2
330
A02
100
AcDbEntity
  8
Line365
100
AcDbLine
 10
140.637
 20
-60.425
 30
0
 11
140.637
 21
-72.925
 31
0
  0
ARC
  5
BB3
330
A02
100
AcDbEntity
  8
Arc253
100
AcDbCircle
 10
141.387
 20
-72.925
 30
0
 40
0.75
100
AcDbArc
 50
180
 51
-90
  0
LINE
  5
BB4
330
A02
100
AcDbEntity
  8
Line366
100
AcDbLine
 10
141.387
 20
-73.675
 30
0
 11
153.887
 21
-73.675
 31
0
  0
ARC
  5
BB5
330
A02
100
AcDbEntity
  8
Arc254
100
AcDbCircle
 10
153.887
 20
-60.425
 30
0
 40
0.75
100
AcDbArc
 50
0
 51
90
  0
ARC
  5
BB6
330
A02
100
AcDbEntity
  8
Arc255
100
AcDbCircle
 10
153.887
 20
-72.925
 30
0
 40
0.75
100
AcDbArc
 50
-90
 51
0
  0
LINE
  5
BB7
330
A02
100
AcDbEntity
  8
Line368
100
AcDbLine
 10
153.887
 20
-59.675
 30
0
 11
141.387
 21
-59.675
 31
0
  0
LINE
  5
BB8
330
A02
100
AcDbEntity
  8
Line370
100
AcDbLine
 10
154.637
 20
-72.925
 30
0
 11
154.637
 21
-60.425
 31
0
  0
ARC
  5
BB9
330
A02
100
AcDbEntity
  8
Arc256
100
AcDbCircle
 10
160.438
 20
-72.925
 30
0
 40
0.75
100
AcDbArc
 50
180
 51
-90
  0
ARC
  5
BBA
330
A02
100
AcDbEntity
  8
Arc257
100
AcDbCircle
 10
172.938
 20
-60.425
 30
0
 40
0.75
100
AcDbArc
 50
0
 51
90
  0
ARC
  5
BBB
330
A02
100
AcDbEntity
  8
Arc258
100
AcDbCircle
 10
172.938
 20
-72.925
 30
0
 40
0.75
100
AcDbArc
 50
-90
 51
0
  0
ARC
  5
BBC
330
A02
100
AcDbEntity
  8
Arc259
100
AcDbCircle
 10
160.438
 20
-60.425
 30
0
 40
0.75
100
AcDbArc
 50
90
 51
180
  0
LINE
  5
BBD
330
A02
100
AcDbEntity
  8
Line372
100
AcDbLine
 10
159.688
 20
-60.425
 30
0
 11
159.688
 21
-72.925
 31
0
  0
LINE
  5
BBE
330
A02
100
AcDbEntity
  8
Line373
100
AcDbLine
 10
160.438
 20
-73.675
 30
0
 11
172.938
 21
-73.675
 31
0
  0
LINE
  5
BBF
330
A02
100
AcDbEntity
  8
Line374
100
AcDbLine
 10
172.938
 20
-59.675
 30
0
 11
160.438
 21
-59.675
 31
0
  0
LINE
  5
BC0
330
A02
100
AcDbEntity
  8
Line376
100
AcDbLine
 10
173.688
 20
-72.925
 30
0
 11
173.688
 21
-60.425
 31
0
  0
ARC
  5
BC1
330
A02
100
AcDbEntity
  8
Arc260
100
AcDbCircle
 10
179.488
 20
-60.425
 30
0
 40
0.75
100
AcDbArc
 50
90
 51
180
  0
LINE
  5
BC2
330
A02
100
AcDbEntity
  8
Line377
100
AcDbLine
 10
179.488
 20
-73.675
 30
0
 11
191.988
 21
-73.675
 31
0
  0
LINE
  5
BC3
330
A02
100
AcDbEntity
  8
Line378
100
AcDbLine
 10
191.988
 20
-59.675
 30
0
 11
179.488
 21
-59.675
 31
0
  0
ARC
  5
BC4
330
A02
100
AcDbEntity
  8
Arc261
100
AcDbCircle
 10
179.488
 20
-72.925
 30
0
 40
0.75
100
AcDbArc
 50
180
 51
-90
  0
ARC
  5
BC5
330
A02
100
AcDbEntity
  8
Arc262
100
AcDbCircle
 10
191.988
 20
-72.925
 30
0
 40
0.75
100
AcDbArc
 50
-90
 51
0
  0
LINE
  5
BC6
330
A02
100
AcDbEntity
  8
Line381
100
AcDbLine
 10
192.738
 20
-72.925
 30
0
 11
192.738
 21
-60.425
 31
0
  0
ARC
  5
BC7
330
A02
100
AcDbEntity
  8
Arc263
100
AcDbCircle
 10
191.988
 20
-60.425
 30
0
 40
0.75
100
AcDbArc
 50
0
 51
90
  0
LINE
  5
BC8
330
A02
100
AcDbEntity
  8
Line382
100
AcDbLine
 10
178.738
 20
-60.425
 30
0
 11
178.738
 21
-72.925
 31
0
  0
ARC
  5
BC9
330
A02
100
AcDbEntity
  8
Arc264
100
AcDbCircle
 10
211.038
 20
-60.425
 30
0
 40
0.75
100
AcDbArc
 50
0
 51
90
  0
LINE
  5
BCA
330
A02
100
AcDbEntity
  8
Line383
100
AcDbLine
 10
211.038
 20
-59.675
 30
0
 11
198.538
 21
-59.675
 31
0
  0
ARC
  5
BCB
330
A02
100
AcDbEntity
  8
Arc265
100
AcDbCircle
 10
211.038
 20
-72.925
 30
0
 40
0.75
100
AcDbArc
 50
-90
 51
0
  0
LINE
  5
BCC
330
A02
100
AcDbEntity
  8
Line386
100
AcDbLine
 10
197.788
 20
-60.425
 30
0
 11
197.788
 21
-72.925
 31
0
  0
LINE
  5
BCD
330
A02
100
AcDbEntity
  8
Line387
100
AcDbLine
 10
198.538
 20
-73.675
 30
0
 11
211.038
 21
-73.675
 31
0
  0
ARC
  5
BCE
330
A02
100
AcDbEntity
  8
Arc266
100
AcDbCircle
 10
198.538
 20
-60.425
 30
0
 40
0.75
100
AcDbArc
 50
90
 51
180
  0
ARC
  5
BCF
330
A02
100
AcDbEntity
  8
Arc267
100
AcDbCircle
 10
198.538
 20
-72.925
 30
0
 40
0.75
100
AcDbArc
 50
180
 51
-90
  0
LINE
  5
BD0
330
A02
100
AcDbEntity
  8
Line388
100
AcDbLine
 10
211.788
 20
-72.925
 30
0
 11
211.788
 21
-60.425
 31
0
  0
ARC
  5
BD1
330
A02
100
AcDbEntity
  8
Arc268
100
AcDbCircle
 10
230.088
 20
-72.925
 30
0
 40
0.75
100
AcDbArc
 50
-90
 51
0
  0
LINE
  5
BD2
330
A02
100
AcDbEntity
  8
Line391
100
AcDbLine
 10
216.838
 20
-60.425
 30
0
 11
216.838
 21
-72.925
 31
0
  0
ARC
  5
BD3
330
A02
100
AcDbEntity
  8
Arc269
100
AcDbCircle
 10
230.088
 20
-60.425
 30
0
 40
0.75
100
AcDbArc
 50
0
 51
90
  0
LINE
  5
BD4
330
A02
100
AcDbEntity
  8
Line392
100
AcDbLine
 10
230.088
 20
-59.675
 30
0
 11
217.588
 21
-59.675
 31
0
  0
LINE
  5
BD5
330
A02
100
AcDbEntity
  8
Line393
100
AcDbLine
 10
217.588
 20
-73.675
 30
0
 11
230.088
 21
-73.675
 31
0
  0
ARC
  5
BD6
330
A02
100
AcDbEntity
  8
Arc270
100
AcDbCircle
 10
217.588
 20
-72.925
 30
0
 40
0.75
100
AcDbArc
 50
180
 51
-90
  0
LINE
  5
BD7
330
A02
100
AcDbEntity
  8
Line394
100
AcDbLine
 10
230.838
 20
-72.925
 30
0
 11
230.838
 21
-60.425
 31
0
  0
ARC
  5
BD8
330
A02
100
AcDbEntity
  8
Arc271
100
AcDbCircle
 10
217.588
 20
-60.425
 30
0
 40
0.75
100
AcDbArc
 50
90
 51
180
  0
ARC
  5
BD9
330
A02
100
AcDbEntity
  8
Arc272
100
AcDbCircle
 10
256.281
 20
-72.925
 30
0
 40
0.75
100
AcDbArc
 50
-90
 51
0
  0
LINE
  5
BDA
330
A02
100
AcDbEntity
  8
Line397
100
AcDbLine
 10
243.031
 20
-60.425
 30
0
 11
243.031
 21
-72.925
 31
0
  0
ARC
  5
BDB
330
A02
100
AcDbEntity
  8
Arc273
100
AcDbCircle
 10
256.281
 20
-60.425
 30
0
 40
0.75
100
AcDbArc
 50
0
 51
90
  0
LINE
  5
BDC
330
A02
100
AcDbEntity
  8
Line398
100
AcDbLine
 10
256.281
 20
-59.675
 30
0
 11
243.781
 21
-59.675
 31
0
  0
LINE
  5
BDD
330
A02
100
AcDbEntity
  8
Line399
100
AcDbLine
 10
243.781
 20
-73.675
 30
0
 11
256.281
 21
-73.675
 31
0
  0
ARC
  5
BDE
330
A02
100
AcDbEntity
  8
Arc274
100
AcDbCircle
 10
243.781
 20
-72.925
 30
0
 40
0.75
100
AcDbArc
 50
180
 51
-90
  0
LINE
  5
BDF
330
A02
100
AcDbEntity
  8
Line400
100
AcDbLine
 10
257.031
 20
-72.925
 30
0
 11
257.031
 21
-60.425
 31
0
  0
ARC
  5
BE0
330
A02
100
AcDbEntity
  8
Arc275
100
AcDbCircle
 10
243.781
 20
-60.425
 30
0
 40
0.75
100
AcDbArc
 50
90
 51
180
  0
ARC
  5
BE1
330
A02
100
AcDbEntity
  8
Arc276
100
AcDbCircle
 10
282.475
 20
-72.925
 30
0
 40
0.75
100
AcDbArc
 50
-90
 51
0
  0
LINE
  5
BE2
330
A02
100
AcDbEntity
  8
Line403
100
AcDbLine
 10
269.225
 20
-60.425
 30
0
 11
269.225
 21
-72.925
 31
0
  0
ARC
  5
BE3
330
A02
100
AcDbEntity
  8
Arc277
100
AcDbCircle
 10
269.975
 20
-60.425
 30
0
 40
0.75
100
AcDbArc
 50
90
 51
180
  0
LINE
  5
BE4
330
A02
100
AcDbEntity
  8
Line404
100
AcDbLine
 10
269.975
 20
-73.675
 30
0
 11
282.475
 21
-73.675
 31
0
  0
ARC
  5
BE5
330
A02
100
AcDbEntity
  8
Arc278
100
AcDbCircle
 10
282.475
 20
-60.425
 30
0
 40
0.75
100
AcDbArc
 50
0
 51
90
  0
ARC
  5
BE6
330
A02
100
AcDbEntity
  8
Arc279
100
AcDbCircle
 10
269.975
 20
-72.925
 30
0
 40
0.75
100
AcDbArc
 50
180
 51
-90
  0
LINE
  5
BE7
330
A02
100
AcDbEntity
  8
Line405
100
AcDbLine
 10
283.225
 20
-72.925
 30
0
 11
283.225
 21
-60.425
 31
0
  0
LINE
  5
BE8
330
A02
100
AcDbEntity
  8
Line406
100
AcDbLine
 10
282.475
 20
-59.675
 30
0
 11
269.975
 21
-59.675
 31
0
  0
LINE
  5
BE9
330
A02
100
AcDbEntity
  8
Line408
100
AcDbLine
 10
289.025
 20
-73.675
 30
0
 11
301.525
 21
-73.675
 31
0
  0
ARC
  5
BEA
330
A02
100
AcDbEntity
  8
Arc280
100
AcDbCircle
 10
289.025
 20
-72.925
 30
0
 40
0.75
100
AcDbArc
 50
180
 51
-90
  0
ARC
  5
BEB
330
A02
100
AcDbEntity
  8
Arc281
100
AcDbCircle
 10
289.025
 20
-60.425
 30
0
 40
0.75
100
AcDbArc
 50
90
 51
180
  0
LINE
  5
BEC
330
A02
100
AcDbEntity
  8
Line409
100
AcDbLine
 10
301.525
 20
-59.675
 30
0
 11
289.025
 21
-59.675
 31
0
  0
ARC
  5
BED
330
A02
100
AcDbEntity
  8
Arc282
100
AcDbCircle
 10
301.525
 20
-60.425
 30
0
 40
0.75
100
AcDbArc
 50
0
 51
90
  0
LINE
  5
BEE
330
A02
100
AcDbEntity
  8
Line410
100
AcDbLine
 10
288.275
 20
-60.425
 30
0
 11
288.275
 21
-72.925
 31
0
  0
LINE
  5
BEF
330
A02
100
AcDbEntity
  8
Line411
100
AcDbLine
 10
302.275
 20
-72.925
 30
0
 11
302.275
 21
-60.425
 31
0
  0
ARC
  5
BF0
330
A02
100
AcDbEntity
  8
Arc283
100
AcDbCircle
 10
301.525
 20
-72.925
 30
0
 40
0.75
100
AcDbArc
 50
-90
 51
0
  0
LINE
  5
BF1
330
A02
100
AcDbEntity
  8
Line462
100
AcDbLine
 10
250.925
 20
-92.725
 30
0
 11
263.425
 21
-92.725
 31
0
  0
ARC
  5
BF2
330
A02
100
AcDbEntity
  8
Arc316
100
AcDbCircle
 10
250.925
 20
-79.475
 30
0
 40
0.75
100
AcDbArc
 50
90
 51
180
  0
ARC
  5
BF3
330
A02
100
AcDbEntity
  8
Arc317
100
AcDbCircle
 10
263.425
 20
-79.475
 30
0
 40
0.75
100
AcDbArc
 50
0
 51
90
  0
LINE
  5
BF4
330
A02
100
AcDbEntity
  8
Line463
100
AcDbLine
 10
263.425
 20
-78.725
 30
0
 11
250.925
 21
-78.725
 31
0
  0
LINE
  5
BF5
330
A02
100
AcDbEntity
  8
Line464
100
AcDbLine
 10
264.175
 20
-91.975
 30
0
 11
264.175
 21
-79.475
 31
0
  0
ARC
  5
BF6
330
A02
100
AcDbEntity
  8
Arc318
100
AcDbCircle
 10
250.925
 20
-91.975
 30
0
 40
0.75
100
AcDbArc
 50
180
 51
-90
  0
LINE
  5
BF7
330
A02
100
AcDbEntity
  8
Line467
100
AcDbLine
 10
250.175
 20
-79.475
 30
0
 11
250.175
 21
-91.975
 31
0
  0
ARC
  5
BF8
330
A02
100
AcDbEntity
  8
Arc319
100
AcDbCircle
 10
263.425
 20
-91.975
 30
0
 40
0.75
100
AcDbArc
 50
-90
 51
0
  0
LINE
  5
BF9
330
A02
100
AcDbEntity
  8
Line468
100
AcDbLine
 10
283.225
 20
-91.975
 30
0
 11
283.225
 21
-79.475
 31
0
  0
ARC
  5
BFA
330
A02
100
AcDbEntity
  8
Arc320
100
AcDbCircle
 10
269.975
 20
-91.975
 30
0
 40
0.75
100
AcDbArc
 50
180
 51
-90
  0
ARC
  5
BFB
330
A02
100
AcDbEntity
  8
Arc321
100
AcDbCircle
 10
282.475
 20
-79.475
 30
0
 40
0.75
100
AcDbArc
 50
0
 51
90
  0
LINE
  5
BFC
330
A02
100
AcDbEntity
  8
Line469
100
AcDbLine
 10
282.475
 20
-78.725
 30
0
 11
269.975
 21
-78.725
 31
0
  0
LINE
  5
BFD
330
A02
100
AcDbEntity
  8
Line470
100
AcDbLine
 10
269.975
 20
-92.725
 30
0
 11
282.475
 21
-92.725
 31
0
  0
ARC
  5
BFE
330
A02
100
AcDbEntity
  8
Arc322
100
AcDbCircle
 10
269.975
 20
-79.475
 30
0
 40
0.75
100
AcDbArc
 50
90
 51
180
  0
LINE
  5
BFF
330
A02
100
AcDbEntity
  8
Line472
100
AcDbLine
 10
269.225
 20
-79.475
 30
0
 11
269.225
 21
-91.975
 31
0
  0
ARC
  5
C00
330
A02
100
AcDbEntity
  8
Arc323
100
AcDbCircle
 10
282.475
 20
-91.975
 30
0
 40
0.75
100
AcDbArc
 50
-90
 51
0
  0
ARC
  5
C01
330
A02
100
AcDbEntity
  8
Arc324
100
AcDbCircle
 10
289.025
 20
-91.975
 30
0
 40
0.75
100
AcDbArc
 50
180
 51
-90
  0
LINE
  5
C02
330
A02
100
AcDbEntity
  8
Line474
100
AcDbLine
 10
302.275
 20
-91.975
 30
0
 11
302.275
 21
-79.475
 31
0
  0
LINE
  5
C03
330
A02
100
AcDbEntity
  8
Line475
100
AcDbLine
 10
289.025
 20
-92.725
 30
0
 11
301.525
 21
-92.725
 31
0
  0
ARC
  5
C04
330
A02
100
AcDbEntity
  8
Arc325
100
AcDbCircle
 10
301.525
 20
-79.475
 30
0
 40
0.75
100
AcDbArc
 50
0
 51
90
  0
LINE
  5
C05
330
A02
100
AcDbEntity
  8
Line476
100
AcDbLine
 10
301.525
 20
-78.725
 30
0
 11
289.025
 21
-78.725
 31
0
  0
ARC
  5
C06
330
A02
100
AcDbEntity
  8
Arc326
100
AcDbCircle
 10
289.025
 20
-79.475
 30
0
 40
0.75
100
AcDbArc
 50
90
 51
180
  0
ARC
  5
C07
330
A02
100
AcDbEntity
  8
Arc327
100
AcDbCircle
 10
301.525
 20
-91.975
 30
0
 40
0.75
100
AcDbArc
 50
-90
 51
0
  0
LINE
  5
C08
330
A02
100
AcDbEntity
  8
Line478
100
AcDbLine
 10
288.275
 20
-79.475
 30
0
 11
288.275
 21
-91.975
 31
0
  0
ARC
  5
C09
330
A02
100
AcDbEntity
  8
Arc356
100
AcDbCircle
 10
5.65625
 20
-72.925
 30
0
 40
0.75
100
AcDbArc
 50
180
 51
-90
  0
LINE
  5
C0A
330
A02
100
AcDbEntity
  8
Line520
100
AcDbLine
 10
4.90625
 20
-60.425
 30
0
 11
4.90625
 21
-72.925
 31
0
  0
LINE
  5
C0B
330
A02
100
AcDbEntity
  8
Line521
100
AcDbLine
 10
5.65625
 20
-73.675
 30
0
 11
18.1562
 21
-73.675
 31
0
  0
ARC
  5
C0C
330
A02
100
AcDbEntity
  8
Arc357
100
AcDbCircle
 10
18.1562
 20
-60.425
 30
0
 40
0.75
100
AcDbArc
 50
0
 51
90
  0
ARC
  5
C0D
330
A02
100
AcDbEntity
  8
Arc358
100
AcDbCircle
 10
18.1562
 20
-72.925
 30
0
 40
0.75
100
AcDbArc
 50
-90
 51
0
  0
LINE
  5
C0E
330
A02
100
AcDbEntity
  8
Line522
100
AcDbLine
 10
18.9062
 20
-72.925
 30
0
 11
18.9062
 21
-60.425
 31
0
  0
ARC
  5
C0F
330
A02
100
AcDbEntity
  8
Arc359
100
AcDbCircle
 10
5.65625
 20
-60.425
 30
0
 40
0.75
100
AcDbArc
 50
90
 51
180
  0
LINE
  5
C10
330
A02
100
AcDbEntity
  8
Line524
100
AcDbLine
 10
18.1562
 20
-59.675
 30
0
 11
5.65625
 21
-59.675
 31
0
  0
ARC
  5
C11
330
A02
100
AcDbEntity
  8
Arc360
100
AcDbCircle
 10
39.5875
 20
-72.925
 30
0
 40
0.75
100
AcDbArc
 50
-90
 51
0
  0
LINE
  5
C12
330
A02
100
AcDbEntity
  8
Line527
100
AcDbLine
 10
26.3375
 20
-60.425
 30
0
 11
26.3375
 21
-72.925
 31
0
  0
ARC
  5
C13
330
A02
100
AcDbEntity
  8
Arc361
100
AcDbCircle
 10
27.0875
 20
-60.425
 30
0
 40
0.75
100
AcDbArc
 50
90
 51
180
  0
LINE
  5
C14
330
A02
100
AcDbEntity
  8
Line528
100
AcDbLine
 10
27.0875
 20
-73.675
 30
0
 11
39.5875
 21
-73.675
 31
0
  0
ARC
  5
C15
330
A02
100
AcDbEntity
  8
Arc362
100
AcDbCircle
 10
39.5875
 20
-60.425
 30
0
 40
0.75
100
AcDbArc
 50
0
 51
90
  0
ARC
  5
C16
330
A02
100
AcDbEntity
  8
Arc363
100
AcDbCircle
 10
27.0875
 20
-72.925
 30
0
 40
0.75
100
AcDbArc
 50
180
 51
-90
  0
LINE
  5
C17
330
A02
100
AcDbEntity
  8
Line529
100
AcDbLine
 10
40.3375
 20
-72.925
 30
0
 11
40.3375
 21
-60.425
 31
0
  0
LINE
  5
C18
330
A02
100
AcDbEntity
  8
Line530
100
AcDbLine
 10
39.5875
 20
-59.675
 30
0
 11
27.0875
 21
-59.675
 31
0
  0
ARC
  5
C19
330
A02
100
AcDbEntity
  8
Arc364
100
AcDbCircle
 10
258.663
 20
-53.875
 30
0
 40
0.75
100
AcDbArc
 50
-90
 51
0
  0
LINE
  5
C1A
330
A02
100
AcDbEntity
  8
Line533
100
AcDbLine
 10
245.413
 20
-41.375
 30
0
 11
245.413
 21
-53.875
 31
0
  0
ARC
  5
C1B
330
A02
100
AcDbEntity
  8
Arc365
100
AcDbCircle
 10
246.163
 20
-41.375
 30
0
 40
0.75
100
AcDbArc
 50
90
 51
180
  0
LINE
  5
C1C
330
A02
100
AcDbEntity
  8
Line534
100
AcDbLine
 10
246.163
 20
-54.625
 30
0
 11
258.663
 21
-54.625
 31
0
  0
ARC
  5
C1D
330
A02
100
AcDbEntity
  8
Arc366
100
AcDbCircle
 10
258.663
 20
-41.375
 30
0
 40
0.75
100
AcDbArc
 50
0
 51
90
  0
ARC
  5
C1E
330
A02
100
AcDbEntity
  8
Arc367
100
AcDbCircle
 10
246.163
 20
-53.875
 30
0
 40
0.75
100
AcDbArc
 50
180
 51
-90
  0
LINE
  5
C1F
330
A02
100
AcDbEntity
  8
Line535
100
AcDbLine
 10
259.413
 20
-53.875
 30
0
 11
259.413
 21
-41.375
 31
0
  0
LINE
  5
C20
330
A02
100
AcDbEntity
  8
Line536
100
AcDbLine
 10
258.663
 20
-40.625
 30
0
 11
246.163
 21
-40.625
 31
0
  0
ARC
  5
C21
330
A02
100
AcDbEntity
  8
Arc368
100
AcDbCircle
 10
266.094
 20
-23.412
 30
0
 40
0.75
100
AcDbArc
 50
90
 51
180
  0
ARC
  5
C22
330
A02
100
AcDbEntity
  8
Arc369
100
AcDbCircle
 10
266.094
 20
-52.788
 30
0
 40
0.75
100
AcDbArc
 50
180
 51
-90
  0
LINE
  5
C23
330
A02
100
AcDbEntity
  8
Line537
100
AcDbLine
 10
282.344
 20
-52.788
 30
0
 11
282.344
 21
-47.288
 31
0
  0
LINE
  5
C24
330
A02
100
AcDbEntity
  8
Line538
100
AcDbLine
 10
267.594
 20
-45.1
 30
0
 11
280.094
 21
-45.1
 31
0
  0
ARC
  5
C25
330
A02
100
AcDbEntity
  8
Arc370
100
AcDbCircle
 10
281.594
 20
-28.912
 30
0
 40
0.75
100
AcDbArc
 50
-90
 51
0
  0
ARC
  5
C26
330
A02
100
AcDbEntity
  8
Arc371
100
AcDbCircle
 10
281.594
 20
-52.788
 30
0
 40
0.75
100
AcDbArc
 50
-90
 51
0
  0
ARC
  5
C27
330
A02
100
AcDbEntity
  8
Arc372
100
AcDbCircle
 10
266.094
 20
-47.288
 30
0
 40
0.75
100
AcDbArc
 50
90
 51
180
  0
LINE
  5
C28
330
A02
100
AcDbEntity
  8
Line541
100
AcDbLine
 10
265.344
 20
-47.288
 30
0
 11
265.344
 21
-52.788
 31
0
  0
ARC
  5
C29
330
A02
100
AcDbEntity
  8
Arc373
100
AcDbCircle
 10
266.094
 20
-28.912
 30
0
 40
0.75
100
AcDbArc
 50
180
 51
-90
  0
ARC
  5
C2A
330
A02
100
AcDbEntity
  8
Arc374
100
AcDbCircle
 10
281.594
 20
-23.412
 30
0
 40
0.75
100
AcDbArc
 50
0
 51
90
  0
LINE
  5
C2B
330
A02
100
AcDbEntity
  8
Line542
100
AcDbLine
 10
265.344
 20
-23.412
 30
0
 11
265.344
 21
-28.912
 31
0
  0
LINE
  5
C2C
330
A02
100
AcDbEntity
  8
Line543
100
AcDbLine
 10
282.344
 20
-28.912
 30
0
 11
282.344
 21
-23.412
 31
0
  0
ARC
  5
C2D
330
A02
100
AcDbEntity
  8
Arc375
100
AcDbCircle
 10
281.594
 20
-47.288
 30
0
 40
0.75
100
AcDbArc
 50
0
 51
90
  0
ARC
  5
C2E
330
A02
100
AcDbEntity
  8
Arc376
100
AcDbCircle
 10
280.094
 20
-44.35
 30
0
 40
0.75
100
AcDbArc
 50
-90
 51
0
  0
ARC
  5
C2F
330
A02
100
AcDbEntity
  8
Arc377
100
AcDbCircle
 10
267.594
 20
-44.35
 30
0
 40
0.75
100
AcDbArc
 50
180
 51
-90
  0
ARC
  5
C30
330
A02
100
AcDbEntity
  8
Arc378
100
AcDbCircle
 10
267.594
 20
-31.85
 30
0
 40
0.75
100
AcDbArc
 50
90
 51
180
  0
LINE
  5
C31
330
A02
100
AcDbEntity
  8
Line544
100
AcDbLine
 10
266.844
 20
-31.85
 30
0
 11
266.844
 21
-44.35
 31
0
  0
LINE
  5
C32
330
A02
100
AcDbEntity
  8
Line545
100
AcDbLine
 10
280.094
 20
-31.1
 30
0
 11
267.594
 21
-31.1
 31
0
  0
LINE
  5
C33
330
A02
100
AcDbEntity
  8
Line546
100
AcDbLine
 10
280.844
 20
-44.35
 30
0
 11
280.844
 21
-31.85
 31
0
  0
ARC
  5
C34
330
A02
100
AcDbEntity
  8
Arc379
100
AcDbCircle
 10
280.094
 20
-31.85
 30
0
 40
0.75
100
AcDbArc
 50
0
 51
90
  0
LINE
  5
C35
330
A02
100
AcDbEntity
  8
Line547
100
AcDbLine
 10
281.594
 20
-46.538
 30
0
 11
266.094
 21
-46.538
 31
0
  0
LINE
  5
C36
330
A02
100
AcDbEntity
  8
Line548
100
AcDbLine
 10
281.594
 20
-22.662
 30
0
 11
266.094
 21
-22.662
 31
0
  0
LINE
  5
C37
330
A02
100
AcDbEntity
  8
Line549
100
AcDbLine
 10
266.094
 20
-29.662
 30
0
 11
281.594
 21
-29.662
 31
0
  0
LINE
  5
C38
330
A02
100
AcDbEntity
  8
Line550
100
AcDbLine
 10
266.094
 20
-53.538
 30
0
 11
281.594
 21
-53.538
 31
0
  0
LINE
  5
C39
330
A02
100
AcDbEntity
  8
Line553
100
AcDbLine
 10
251.262
 20
-17.275
 30
0
 11
251.262
 21
-16.525
 31
0
  0
LINE
  5
C3A
330
A02
100
AcDbEntity
  8
Line554
100
AcDbLine
 10
258.262
 20
-17.275
 30
0
 11
258.262
 21
-16.525
 31
0
  0
LINE
  5
C3B
330
A02
100
AcDbEntity
  8
Line555
100
AcDbLine
 10
275.138
 20
-17.275
 30
0
 11
275.138
 21
-16.525
 31
0
  0
LINE
  5
C3C
330
A02
100
AcDbEntity
  8
Line556
100
AcDbLine
 10
282.138
 20
-17.275
 30
0
 11
282.138
 21
-16.525
 31
0
  0
LINE
  5
C3D
330
A02
100
AcDbEntity
  8
Line557
100
AcDbLine
 10
282.475
 20
-2.525
 30
0
 11
250.925
 21
-2.525
 31
0
  0
LINE
  5
C3E
330
A02
100
AcDbEntity
  8
Line558
100
AcDbLine
 10
282.475
 20
-16.525
 30
0
 11
282.138
 21
-16.525
 31
0
  0
LINE
  5
C3F
330
A02
100
AcDbEntity
  8
Line559
100
AcDbLine
 10
275.138
 20
-16.525
 30
0
 11
258.262
 21
-16.525
 31
0
  0
LINE
  5
C40
330
A02
100
AcDbEntity
  8
Line560
100
AcDbLine
 10
251.262
 20
-16.525
 30
0
 11
250.925
 21
-16.525
 31
0
  0
ARC
  5
C41
330
A02
100
AcDbEntity
  8
Arc380
100
AcDbCircle
 10
5.65625
 20
-41.375
 30
0
 40
0.75
100
AcDbArc
 50
90
 51
180
  0
ARC
  5
C42
330
A02
100
AcDbEntity
  8
Arc382
100
AcDbCircle
 10
5.65625
 20
-53.875
 30
0
 40
0.75
100
AcDbArc
 50
180
 51
-90
  0
LINE
  5
C43
330
A02
100
AcDbEntity
  8
Line564
100
AcDbLine
 10
4.90625
 20
-41.375
 30
0
 11
4.90625
 21
-53.875
 31
0
  0
LINE
  5
C44
330
A02
100
AcDbEntity
  8
Line565
100
AcDbLine
 10
22.9188
 20
-40.625
 30
0
 11
5.65625
 21
-40.625
 31
0
  0
LINE
  5
C45
330
A02
100
AcDbEntity
  8
Line566
100
AcDbLine
 10
5.65625
 20
-54.625
 30
0
 11
22.9188
 21
-54.625
 31
0
  0
LINE
  5
C46
330
A02
100
AcDbEntity
  8
Line692
100
AcDbLine
 10
4.90625
 20
-79.475
 30
0
 11
4.90625
 21
-91.975
 31
0
  0
ARC
  5
C47
330
A02
100
AcDbEntity
  8
Arc488
100
AcDbCircle
 10
5.65625
 20
-79.475
 30
0
 40
0.75
100
AcDbArc
 50
90
 51
180
  0
ARC
  5
C48
330
A02
100
AcDbEntity
  8
Arc490
100
AcDbCircle
 10
5.65625
 20
-91.975
 30
0
 40
0.75
100
AcDbArc
 50
180
 51
-90
  0
LINE
  5
C49
330
A02
100
AcDbEntity
  8
Line696
100
AcDbLine
 10
28.7188
 20
-79.475
 30
0
 11
28.7188
 21
-91.975
 31
0
  0
ARC
  5
C4A
330
A02
100
AcDbEntity
  8
Arc493
100
AcDbCircle
 10
29.4688
 20
-91.975
 30
0
 40
0.75
100
AcDbArc
 50
180
 51
-90
  0
LINE
  5
C4B
330
A02
100
AcDbEntity
  8
Line698
100
AcDbLine
 10
21.2875
 20
-91.975
 30
0
 11
21.2875
 21
-79.475
 31
0
  0
ARC
  5
C4C
330
A02
100
AcDbEntity
  8
Arc503
100
AcDbCircle
 10
202.775
 20
-77.975
 30
0
 40
0.75
100
AcDbArc
 50
0
 51
90
  0
LINE
  5
C4D
330
A02
100
AcDbEntity
  8
Line708
100
AcDbLine
 10
149.875
 20
-91.975
 30
0
 11
149.875
 21
-79.475
 31
0
  0
LINE
  5
C4E
330
A02
100
AcDbEntity
  8
Line715
100
AcDbLine
 10
89.225
 20
-77.975
 30
0
 11
89.225
 21
-91.975
 31
0
  0
ARC
  5
C4F
330
A02
100
AcDbEntity
  8
Arc508
100
AcDbCircle
 10
88.475
 20
-91.975
 30
0
 40
0.75
100
AcDbArc
 50
-90
 51
0
  0
ARC
  5
C50
330
A02
100
AcDbEntity
  8
Arc509
100
AcDbCircle
 10
197.275
 20
-77.975
 30
0
 40
0.75
100
AcDbArc
 50
90
 51
180
  0
ARC
  5
C51
330
A02
100
AcDbEntity
  8
Arc511
100
AcDbCircle
 10
88.475
 20
-77.975
 30
0
 40
0.75
100
AcDbArc
 50
0
 51
90
  0
ARC
  5
C52
330
A02
100
AcDbEntity
  8
Arc512
100
AcDbCircle
 10
217.588
 20
-91.975
 30
0
 40
0.75
100
AcDbArc
 50
180
 51
-90
  0
ARC
  5
C53
330
A02
100
AcDbEntity
  8
Arc513
100
AcDbCircle
 10
217.588
 20
-79.475
 30
0
 40
0.75
100
AcDbArc
 50
90
 51
180
  0
LINE
  5
C54
330
A02
100
AcDbEntity
  8
Line722
100
AcDbLine
 10
216.838
 20
-79.475
 30
0
 11
216.838
 21
-91.975
 31
0
  0
ARC
  5
C55
330
A02
100
AcDbEntity
  8
Arc515
100
AcDbCircle
 10
149.125
 20
-91.975
 30
0
 40
0.75
100
AcDbArc
 50
-90
 51
0
  0
ARC
  5
C56
330
A02
100
AcDbEntity
  8
Arc516
100
AcDbCircle
 10
149.125
 20
-79.475
 30
0
 40
0.75
100
AcDbArc
 50
0
 51
90
  0
LINE
  5
C57
330
A02
100
AcDbEntity
  8
Line724
100
AcDbLine
 10
202.775
 20
-77.225
 30
0
 11
197.275
 21
-77.225
 31
0
  0
ARC
  5
C58
330
A02
100
AcDbEntity
  8
Arc519
100
AcDbCircle
 10
78.1808
 20
-77.975
 30
0
 40
0.75
100
AcDbArc
 50
90
 51
180
  0
ARC
  5
C59
330
A02
100
AcDbEntity
  8
Arc521
100
AcDbCircle
 10
183.757
 20
-91.975
 30
0
 40
0.75
100
AcDbArc
 50
-90
 51
0
  0
ARC
  5
C5A
330
A02
100
AcDbEntity
  8
Arc522
100
AcDbCircle
 10
53.2812
 20
-79.475
 30
0
 40
0.75
100
AcDbArc
 50
90
 51
180
  0
ARC
  5
C5B
330
A02
100
AcDbEntity
  8
Arc523
100
AcDbCircle
 10
53.2812
 20
-91.975
 30
0
 40
0.75
100
AcDbArc
 50
180
 51
-90
  0
LINE
  5
C5C
330
A02
100
AcDbEntity
  8
Line732
100
AcDbLine
 10
52.5312
 20
-79.475
 30
0
 11
52.5312
 21
-91.975
 31
0
  0
ARC
  5
C5D
330
A02
100
AcDbEntity
  8
Arc524
100
AcDbCircle
 10
29.4688
 20
-79.475
 30
0
 40
0.75
100
AcDbArc
 50
90
 51
180
  0
ARC
  5
C5E
330
A02
100
AcDbEntity
  8
Arc526
100
AcDbCircle
 10
78.1808
 20
-91.975
 30
0
 40
0.75
100
AcDbArc
 50
180
 51
-90
  0
ARC
  5
C5F
330
A02
100
AcDbEntity
  8
Arc527
100
AcDbCircle
 10
183.757
 20
-77.975
 30
0
 40
0.75
100
AcDbArc
 50
0
 51
90
  0
ARC
  5
C60
330
A02
100
AcDbEntity
  8
Arc531
100
AcDbCircle
 10
196.156
 20
-91.975
 30
0
 40
0.75
100
AcDbArc
 50
180
 51
-90
  0
LINE
  5
C61
330
A02
100
AcDbEntity
  8
Line743
100
AcDbLine
 10
77.4308
 20
-91.975
 30
0
 11
77.4308
 21
-77.975
 31
0
  0
LINE
  5
C62
330
A02
100
AcDbEntity
  8
Line745
100
AcDbLine
 10
184.507
 20
-77.975
 30
0
 11
184.507
 21
-91.975
 31
0
  0
ARC
  5
C63
330
A02
100
AcDbEntity
  8
Arc537
100
AcDbCircle
 10
208.656
 20
-79.475
 30
0
 40
0.75
100
AcDbArc
 50
0
 51
90
  0
ARC
  5
C64
330
A02
100
AcDbEntity
  8
Arc538
100
AcDbCircle
 10
208.656
 20
-91.975
 30
0
 40
0.75
100
AcDbArc
 50
-90
 51
0
  0
LINE
  5
C65
330
A02
100
AcDbEntity
  8
Line746
100
AcDbLine
 10
195.406
 20
-79.475
 30
0
 11
195.406
 21
-91.975
 31
0
  0
LINE
  5
C66
330
A02
100
AcDbEntity
  8
Line748
100
AcDbLine
 10
209.406
 20
-91.975
 30
0
 11
209.406
 21
-79.475
 31
0
  0
ARC
  5
C67
330
A02
100
AcDbEntity
  8
Arc539
100
AcDbCircle
 10
196.156
 20
-79.475
 30
0
 40
0.75
100
AcDbArc
 50
90
 51
180
  0
ARC
  5
C68
330
A02
100
AcDbEntity
  8
Arc540
100
AcDbCircle
 10
232.469
 20
-91.975
 30
0
 40
0.75
100
AcDbArc
 50
-90
 51
0
  0
LINE
  5
C69
330
A02
100
AcDbEntity
  8
Line751
100
AcDbLine
 10
233.219
 20
-91.975
 30
0
 11
233.219
 21
-79.475
 31
0
  0
ARC
  5
C6A
330
A02
100
AcDbEntity
  8
Arc543
100
AcDbCircle
 10
232.469
 20
-79.475
 30
0
 40
0.75
100
AcDbArc
 50
0
 51
90
  0
ARC
  5
C6B
330
A02
100
AcDbEntity
  8
Arc544
100
AcDbCircle
 10
20.5375
 20
-79.475
 30
0
 40
0.75
100
AcDbArc
 50
0
 51
90
  0
ARC
  5
C6C
330
A02
100
AcDbEntity
  8
Arc545
100
AcDbCircle
 10
20.5375
 20
-91.975
 30
0
 40
0.75
100
AcDbArc
 50
-90
 51
0
  0
ARC
  5
C6D
330
A02
100
AcDbEntity
  8
Arc547
100
AcDbCircle
 10
49.1125
 20
-91.975
 30
0
 40
0.75
100
AcDbArc
 50
-90
 51
0
  0
LINE
  5
C6E
330
A02
100
AcDbEntity
  8
Line756
100
AcDbLine
 10
21.2875
 20
-91.975
 30
0
 11
21.2875
 21
-79.475
 31
0
  0
ARC
  5
C6F
330
A02
100
AcDbEntity
  8
Arc552
100
AcDbCircle
 10
49.1125
 20
-79.475
 30
0
 40
0.75
100
AcDbArc
 50
0
 51
90
  0
LINE
  5
C70
330
A02
100
AcDbEntity
  8
Line757
100
AcDbLine
 10
49.8625
 20
-91.975
 30
0
 11
49.8625
 21
-79.475
 31
0
  0
ARC
  5
C71
330
A02
100
AcDbEntity
  8
Arc554
100
AcDbCircle
 10
69.425
 20
-77.975
 30
0
 40
0.75
100
AcDbArc
 50
0
 51
90
  0
LINE
  5
C72
330
A02
100
AcDbEntity
  8
Line762
100
AcDbLine
 10
70.175
 20
-77.975
 30
0
 11
70.175
 21
-91.975
 31
0
  0
ARC
  5
C73
330
A02
100
AcDbEntity
  8
Arc556
100
AcDbCircle
 10
178.225
 20
-91.975
 30
0
 40
0.75
100
AcDbArc
 50
180
 51
-90
  0
ARC
  5
C74
330
A02
100
AcDbEntity
  8
Arc557
100
AcDbCircle
 10
63.925
 20
-77.975
 30
0
 40
0.75
100
AcDbArc
 50
90
 51
180
  0
ARC
  5
C75
330
A02
100
AcDbEntity
  8
Arc558
100
AcDbCircle
 10
69.425
 20
-91.975
 30
0
 40
0.75
100
AcDbArc
 50
-90
 51
0
  0
LINE
  5
C76
330
A02
100
AcDbEntity
  8
Line765
100
AcDbLine
 10
116.825
 20
-79.475
 30
0
 11
116.825
 21
-91.975
 31
0
  0
ARC
  5
C77
330
A02
100
AcDbEntity
  8
Arc559
100
AcDbCircle
 10
117.575
 20
-91.975
 30
0
 40
0.75
100
AcDbArc
 50
180
 51
-90
  0
LINE
  5
C78
330
A02
100
AcDbEntity
  8
Line767
100
AcDbLine
 10
69.425
 20
-77.225
 30
0
 11
63.925
 21
-77.225
 31
0
  0
ARC
  5
C79
330
A02
100
AcDbEntity
  8
Arc561
100
AcDbCircle
 10
196.156
 20
-91.975
 30
0
 40
0.75
100
AcDbArc
 50
180
 51
-90
  0
ARC
  5
C7A
330
A02
100
AcDbEntity
  8
Arc562
100
AcDbCircle
 10
20.5375
 20
-79.475
 30
0
 40
0.75
100
AcDbArc
 50
0
 51
90
  0
LINE
  5
C7B
330
A02
100
AcDbEntity
  8
Line768
100
AcDbLine
 10
209.406
 20
-91.975
 30
0
 11
209.406
 21
-79.475
 31
0
  0
ARC
  5
C7C
330
A02
100
AcDbEntity
  8
Arc565
100
AcDbCircle
 10
208.656
 20
-91.975
 30
0
 40
0.75
100
AcDbArc
 50
-90
 51
0
  0
ARC
  5
C7D
330
A02
100
AcDbEntity
  8
Arc566
100
AcDbCircle
 10
196.156
 20
-79.475
 30
0
 40
0.75
100
AcDbArc
 50
90
 51
180
  0
ARC
  5
C7E
330
A02
100
AcDbEntity
  8
Arc567
100
AcDbCircle
 10
208.656
 20
-79.475
 30
0
 40
0.75
100
AcDbArc
 50
0
 51
90
  0
LINE
  5
C7F
330
A02
100
AcDbEntity
  8
Line774
100
AcDbLine
 10
195.406
 20
-79.475
 30
0
 11
195.406
 21
-91.975
 31
0
  0
LINE
  5
C80
330
A02
100
AcDbEntity
  8
Line775
100
AcDbLine
 10
177.475
 20
-91.975
 30
0
 11
177.475
 21
-77.975
 31
0
  0
ARC
  5
C81
330
A02
100
AcDbEntity
  8
Arc569
100
AcDbCircle
 10
117.575
 20
-79.475
 30
0
 40
0.75
100
AcDbArc
 50
90
 51
180
  0
ARC
  5
C82
330
A02
100
AcDbEntity
  8
Arc570
100
AcDbCircle
 10
20.5375
 20
-91.975
 30
0
 40
0.75
100
AcDbArc
 50
-90
 51
0
  0
ARC
  5
C83
330
A02
100
AcDbEntity
  8
Arc571
100
AcDbCircle
 10
232.469
 20
-79.475
 30
0
 40
0.75
100
AcDbArc
 50
0
 51
90
  0
LINE
  5
C84
330
A02
100
AcDbEntity
  8
Line777
100
AcDbLine
 10
233.219
 20
-91.975
 30
0
 11
233.219
 21
-79.475
 31
0
  0
ARC
  5
C85
330
A02
100
AcDbEntity
  8
Arc573
100
AcDbCircle
 10
232.469
 20
-91.975
 30
0
 40
0.75
100
AcDbArc
 50
-90
 51
0
  0
LINE
  5
C86
330
A02
100
AcDbEntity
  8
Line778
100
AcDbLine
 10
5.65625
 20
-78.725
 30
0
 11
20.5375
 21
-78.725
 31
0
  0
LINE
  5
C87
330
A02
100
AcDbEntity
  8
Line779
100
AcDbLine
 10
5.65625
 20
-92.725
 30
0
 11
20.5375
 21
-92.725
 31
0
  0
LINE
  5
C88
330
A02
100
AcDbEntity
  8
Line780
100
AcDbLine
 10
29.4688
 20
-78.725
 30
0
 11
49.1125
 21
-78.725
 31
0
  0
LINE
  5
C89
330
A02
100
AcDbEntity
  8
Line781
100
AcDbLine
 10
29.4688
 20
-92.725
 30
0
 11
49.1125
 21
-92.725
 31
0
  0
LINE
  5
C8A
330
A02
100
AcDbEntity
  8
Line782
100
AcDbLine
 10
53.2812
 20
-78.725
 30
0
 11
63.175
 21
-78.725
 31
0
  0
LINE
  5
C8B
330
A02
100
AcDbEntity
  8
Line783
100
AcDbLine
 10
63.175
 20
-78.725
 30
0
 11
63.175
 21
-77.975
 31
0
  0
LINE
  5
C8C
330
A02
100
AcDbEntity
  8
Line784
100
AcDbLine
 10
53.2812
 20
-92.725
 30
0
 11
69.425
 21
-92.725
 31
0
  0
LINE
  5
C8D
330
A02
100
AcDbEntity
  8
Line785
100
AcDbLine
 10
78.1808
 20
-92.725
 30
0
 11
88.475
 21
-92.725
 31
0
  0
LINE
  5
C8E
330
A02
100
AcDbEntity
  8
Line786
100
AcDbLine
 10
88.475
 20
-77.225
 30
0
 11
78.1808
 21
-77.225
 31
0
  0
LINE
  5
C8F
330
A02
100
AcDbEntity
  8
Line787
100
AcDbLine
 10
117.575
 20
-78.725
 30
0
 11
149.125
 21
-78.725
 31
0
  0
LINE
  5
C90
330
A02
100
AcDbEntity
  8
Line788
100
AcDbLine
 10
117.575
 20
-92.725
 30
0
 11
149.125
 21
-92.725
 31
0
  0
LINE
  5
C91
330
A02
100
AcDbEntity
  8
Line789
100
AcDbLine
 10
196.156
 20
-78.725
 30
0
 11
196.525
 21
-78.725
 31
0
  0
LINE
  5
C92
330
A02
100
AcDbEntity
  8
Line790
100
AcDbLine
 10
196.525
 20
-77.975
 30
0
 11
196.525
 21
-78.725
 31
0
  0
LINE
  5
C93
330
A02
100
AcDbEntity
  8
Line791
100
AcDbLine
 10
203.525
 20
-77.975
 30
0
 11
203.525
 21
-78.725
 31
0
  0
LINE
  5
C94
330
A02
100
AcDbEntity
  8
Line792
100
AcDbLine
 10
203.525
 20
-78.725
 30
0
 11
208.656
 21
-78.725
 31
0
  0
LINE
  5
C95
330
A02
100
AcDbEntity
  8
Line793
100
AcDbLine
 10
208.656
 20
-92.725
 30
0
 11
196.156
 21
-92.725
 31
0
  0
LINE
  5
C96
330
A02
100
AcDbEntity
  8
Line794
100
AcDbLine
 10
217.588
 20
-78.725
 30
0
 11
232.469
 21
-78.725
 31
0
  0
LINE
  5
C97
330
A02
100
AcDbEntity
  8
Line795
100
AcDbLine
 10
232.469
 20
-92.725
 30
0
 11
217.588
 21
-92.725
 31
0
  0
ARC
  5
C98
330
A02
100
AcDbEntity
  8
Arc560
100
AcDbCircle
 10
178.225
 20
-77.975
 30
0
 40
0.75
100
AcDbArc
 50
90
 51
180
  0
LINE
  5
C99
330
A02
100
AcDbEntity
  8
Line796
100
AcDbLine
 10
178.225
 20
-77.225
 30
0
 11
183.757
 21
-77.225
 31
0
  0
LINE
  5
C9A
330
A02
100
AcDbEntity
  8
Line797
100
AcDbLine
 10
178.225
 20
-92.725
 30
0
 11
183.757
 21
-92.725
 31
0
  0
ENDSEC
  0
SECTION
  2
OBJECTS
  0
DICTIONARY
  5
F000
330
0
100
AcDbDictionary
  3
ACAD_GROUP
350
F001
  0
DICTIONARY
  5
F001
330
F000
100
AcDbDictionary
  0
ENDSEC
  0
EOF